<!-- Generator: Adobe Illustrator 17.0.2, SVG Export Plug-In  -->
<svg version="1.1"
	 xmlns="http://www.w3.org/2000/svg" xmlns:xlink="http://www.w3.org/1999/xlink" xmlns:a="http://ns.adobe.com/AdobeSVGViewerExtensions/3.0/"
	 x="0px" y="0px" width="212.51px" height="90.035px" viewBox="0 0 212.51 90.035" enable-background="new 0 0 212.51 90.035"
	 xml:space="preserve">
<defs>
	
		<pattern  x="143.796" y="273.586" width="1488.188" height="1052.363" patternUnits="userSpaceOnUse" id="pattern38187" viewBox="0 -1052.363 1488.188 1052.363" overflow="visible">
		<g>
			<polygon fill="none" points="0,0 1488.188,0 1488.188,-1052.363 0,-1052.363 			"/>
		</g>
	</pattern>
	
		<pattern  x="143.796" y="273.586" width="1488.188" height="1052.363" patternUnits="userSpaceOnUse" id="pattern38196" viewBox="0 -1052.363 1488.188 1052.363" overflow="visible">
		<g>
			<polygon fill="none" points="0,0 1488.188,0 1488.188,-1052.363 0,-1052.363 			"/>
		</g>
	</pattern>
	
		<pattern  x="143.796" y="273.586" width="1488.188" height="1052.363" patternUnits="userSpaceOnUse" id="pattern38205" viewBox="0 -1052.363 1488.188 1052.363" overflow="visible">
		<g>
			<polygon fill="none" points="0,0 1488.188,0 1488.188,-1052.363 0,-1052.363 			"/>
		</g>
	</pattern>
</defs>
<g id="g45769_1_">
	<path id="path10322_1_" inkscape:connector-curvature="0" fill="#20211F" d="M188.034,10.125
		c-3.054-1.519-1.945,1.058-2.961,13.232c-0.325,3.893-3.503,5.87-8.382,7.809c-6.64,2.64-7.757,1.141-37.118-10.145
		c0,0-0.893-2.417-3.777-10.544c-2.909-8.194-2.059-7.062-8.38-10.019c-3.281-1.534-1.642,2.316-2.189,6.521
		c0,0,2.372-1.871,4.673,1.367c2.3,3.239,5.649,16.775,5.649,16.775s15.39,7.868,25.25,10.378c9.859,2.51,14.179,4.081,18.035,1.978
		c3.855-2.105,9.136-4.64,10.523-7.73c1.385-3.09,0.867-10.244,0.61-13.719C189.707,12.555,188.034,10.125,188.034,10.125"/>
	<path id="path10326_1_" inkscape:connector-curvature="0" fill="none" stroke="#6F6F6E" stroke-width="0.23" d="M188.034,10.125
		c-3.054-1.519-1.945,1.058-2.961,13.232c-0.325,3.893-3.503,5.87-8.382,7.809c-6.64,2.64-7.757,1.141-37.118-10.145
		c0,0-0.893-2.417-3.777-10.544c-2.909-8.194-2.059-7.062-8.38-10.019c-3.281-1.534-1.642,2.316-2.189,6.521
		c0,0,2.372-1.871,4.673,1.367c2.3,3.239,5.649,16.775,5.649,16.775s15.39,7.868,25.25,10.378c9.859,2.51,14.179,4.081,18.035,1.978
		c3.855-2.105,9.136-4.64,10.523-7.73c1.385-3.09,0.867-10.244,0.61-13.719C189.707,12.555,188.034,10.125,188.034,10.125
		L188.034,10.125z"/>
	<path id="path10330_1_" inkscape:connector-curvature="0" fill="#FFFFFF" d="M3.636,54.705c0.234-1.72,1.391-2.301,4.037-2.891
		c0,0,0.168,0.057,1.539-0.101c5.397-0.624,20.961-0.655,45.094-4.964c17.65-3.15,23.148-3.368,42.587-15.045
		c23.465-14.096,26.227-17.264,27.115-24.091c0.545-4.205-1.092-8.055,2.189-6.521c6.321,2.956,5.47,1.825,8.379,10.019
		c2.885,8.126,3.779,10.544,3.779,10.544c31.403,13.13,33.288,13.532,40.88,9.989c4.758-2.22,6.695-4.017,7.019-7.91
		c1.016-12.175-0.091-14.751,2.962-13.232c3.469,1.726,5.2,2.357,5.759,4.244c1.107,3.736,2.639,8.085,3.916,10.749
		c1.274,2.668,2.571,4.497,3.756,7.993c0.831,2.453,1.804,6.558,1.804,6.558c0.523,3.671,1.626,10.443,1.135,14.675
		c-0.371,3.205-0.484,4.79-0.484,4.79l-4.29,2.76l-71.632,6.684l-45.646,8.25c0,0-44.417-2.405-45.546-3.228
		C36.855,73.151,7.69,64.079,7.69,64.079l-5.655-4.953L3.636,54.705L3.636,54.705z"/>
	
		<path id="path10334_1_" inkscape:connector-curvature="0" fill="none" stroke="#252223" stroke-width="0.009" stroke-miterlimit="10" d="
		M3.636,54.705c0.234-1.72,1.391-2.301,4.037-2.891c0,0,0.168,0.057,1.539-0.101c5.397-0.624,20.961-0.655,45.094-4.964
		c17.65-3.15,23.148-3.368,42.587-15.045c23.465-14.096,26.227-17.264,27.115-24.091c0.545-4.205-1.092-8.055,2.189-6.521
		c6.321,2.956,5.47,1.825,8.379,10.019c2.885,8.126,3.779,10.544,3.779,10.544c31.403,13.13,33.288,13.532,40.88,9.989
		c4.758-2.22,6.695-4.017,7.019-7.91c1.016-12.175-0.091-14.751,2.962-13.232c3.469,1.726,5.2,2.357,5.759,4.244
		c1.107,3.736,2.639,8.085,3.916,10.749c1.274,2.668,2.571,4.497,3.756,7.993c0.831,2.453,1.804,6.558,1.804,6.558
		c0.523,3.671,1.626,10.443,1.135,14.675c-0.371,3.205-0.484,4.79-0.484,4.79l-4.29,2.76l-71.632,6.684l-45.646,8.25
		c0,0-44.417-2.405-45.546-3.228C36.855,73.151,7.69,64.079,7.69,64.079l-5.655-4.953L3.636,54.705L3.636,54.705z"/>
	
		<path id="path10338_1_" inkscape:connector-curvature="0" fill="none" stroke="#060A03" stroke-width="0.152" stroke-linecap="round" stroke-linejoin="round" d="
		M124.16,3.167c0,0,2.441,0.946,3.225,1.494c0.785,0.547-0.356,4.415-1.225,6.584c-1.361,3.396-3.795,7.191-3.795,7.191L119.86,17.1
		"/>
	<path id="path10342_1_" inkscape:connector-curvature="0" fill="#20211F" d="M106.965,70.816c2.279-3.613,2.094-4.865-1.041-7.057
		c-2.501-1.75-21.698-16.284-23.36-17.542c-0.217-0.375-0.186-0.829-0.101-1.735L82.48,44.3c0.085-0.929,0.125-1.015,0.331-1.131
		c0.399-0.224,0.789-0.446,1.177-0.667c1.669-0.949,3.244-1.844,5.239-2.771c0.081-0.039,0.195-0.056,0.329-0.057
		c0.403-0.006,0.995,0.124,1.495,0.234c0.655,0.145,1.325,0.293,1.954,0.284c0.425-0.008,0.832-0.085,1.205-0.286
		c0.339-0.182,0.623-0.325,0.89-0.46c0.467-0.234,0.908-0.456,1.505-0.821c0.97-0.592,1.179-1.558,1.331-2.262
		c0.14-0.646,0.23-0.994,0.585-1.211c1.982-1.213,3.17-1.891,4.706-2.689c0.284-0.148,0.561-0.207,0.84-0.211
		c0.469-0.008,0.944,0.144,1.462,0.31c0.514,0.165,1.069,0.342,1.637,0.334c0.343-0.005,0.691-0.079,1.036-0.264
		c1.527-0.817,1.959-1.058,3.051-1.736c0.928-0.575,1.063-1.534,1.16-2.234c0.094-0.661,0.16-0.947,0.441-1.114
		c0.97-0.574,2.097-1.312,3.092-1.964c0.505-0.33,0.964-0.63,1.327-0.859l0.707-0.446c4.086-2.579,6.786-4.282,7.873-4.897
		c0.115-0.065,0.228-0.132,0.341-0.2c0.483-0.29,0.951-0.571,1.735-0.584c0.716-0.01,1.698,0.204,3.193,0.841
		c2.201,0.939,2.962,1.225,3.517,1.434c0.408,0.153,0.676,0.254,1.357,0.56c1.384,0.62,2.076,1.254,2.779,3.573
		c0.295,0.974,0.595,1.879,0.941,2.928c0.241,0.729,0.511,1.544,0.83,2.535c0.803,2.491,1.45,3.259,5.523,4.505
		c4.824,1.475,19.515,5.19,25.085,6.375c0,0-8.747,9.342-10.456,11.104s-2.853,2.55-6.886,3.575
		c-4.033,1.025-25.72,7.523-28.409,8.239c-2.687,0.715-9.533,2.832-10.65,3.246c-1.63,0.604-4.146,1.8-4.964,2.369
		C108.1,71.056,106.965,70.816,106.965,70.816"/>
	
		<path id="path10346_1_" inkscape:connector-curvature="0" fill="none" stroke="#6F6F6E" stroke-width="0.23" stroke-miterlimit="10" d="
		M106.965,70.816c2.279-3.613,2.094-4.865-1.041-7.057c-2.501-1.75-21.698-16.284-23.36-17.542
		c-0.217-0.375-0.186-0.829-0.101-1.735L82.48,44.3c0.085-0.929,0.125-1.015,0.331-1.131c0.399-0.224,0.789-0.446,1.177-0.667
		c1.669-0.949,3.244-1.844,5.239-2.771c0.081-0.039,0.195-0.056,0.329-0.057c0.403-0.006,0.995,0.124,1.495,0.234
		c0.655,0.145,1.325,0.293,1.954,0.284c0.425-0.008,0.832-0.085,1.205-0.286c0.339-0.182,0.623-0.325,0.89-0.46
		c0.467-0.234,0.908-0.456,1.505-0.821c0.97-0.592,1.179-1.558,1.331-2.262c0.14-0.646,0.23-0.994,0.585-1.211
		c1.982-1.213,3.17-1.891,4.706-2.689c0.284-0.148,0.561-0.207,0.84-0.211c0.469-0.008,0.944,0.144,1.462,0.31
		c0.514,0.165,1.069,0.342,1.637,0.334c0.343-0.005,0.691-0.079,1.036-0.264c1.527-0.817,1.959-1.058,3.051-1.736
		c0.928-0.575,1.063-1.534,1.16-2.234c0.094-0.661,0.16-0.947,0.441-1.114c0.97-0.574,2.097-1.312,3.092-1.964
		c0.505-0.33,0.964-0.63,1.327-0.859l0.707-0.446c4.086-2.579,6.786-4.282,7.873-4.897c0.115-0.065,0.228-0.132,0.341-0.2
		c0.483-0.29,0.951-0.571,1.735-0.584c0.716-0.01,1.698,0.204,3.193,0.841c2.201,0.939,2.962,1.225,3.517,1.434
		c0.408,0.153,0.676,0.254,1.357,0.56c1.384,0.62,2.076,1.254,2.779,3.573c0.295,0.974,0.595,1.879,0.941,2.928
		c0.241,0.729,0.511,1.544,0.83,2.535c0.803,2.491,1.45,3.259,5.523,4.505c4.824,1.475,19.515,5.19,25.085,6.375
		c0,0-8.747,9.342-10.456,11.104s-2.853,2.55-6.886,3.575c-4.033,1.025-25.72,7.523-28.409,8.239
		c-2.687,0.715-9.533,2.832-10.65,3.246c-1.63,0.604-4.146,1.8-4.964,2.369C108.1,71.056,106.965,70.816,106.965,70.816
		L106.965,70.816z"/>
	
		<path id="path10350_1_" inkscape:connector-curvature="0" fill="#20211F" stroke="#6F6F6E" stroke-width="0.23" stroke-miterlimit="10" d="
		M204.959,59.902c0,0-12.012,4.369-29.195,4.63s-65.361,6.19-65.361,6.19c0.422-0.435,1.682-2.059,2.208-2.709
		c0.525-0.65,1.586-1.201,3.61-1.768c2.025-0.565,36.896-10.482,39.131-11.265c2.235-0.783,3.825-1.77,5.299-3.397
		c1.474-1.628,5.736-5.999,7.739-8.063c2.001-2.062,3.052-3.256,6.673-4.487c3.62-1.232,12.52-4.103,15.609-5.006
		c3.09-0.902,5.11-1.789,6.859,0.645c1.749,2.435,5.179,8.704,6.068,11.722c0.77,2.619,1.278,4.021,2.141,4.692
		C205.738,51.087,205.318,59.778,204.959,59.902"/>
	<path id="path10354_1_" inkscape:connector-curvature="0" fill="#EEEC92" d="M120.594,63.704l-8.627,2.593L86.781,47.841
		l7.326-3.749L120.594,63.704L120.594,63.704z"/>
	
		<path id="path10358_1_" inkscape:connector-curvature="0" fill="none" stroke="#211E1B" stroke-width="0.096" stroke-miterlimit="10" d="
		M120.594,63.704l-8.627,2.593L86.781,47.841l7.326-3.749L120.594,63.704L120.594,63.704z"/>
	<path id="path10362_1_" inkscape:connector-curvature="0" fill="#EEEC92" d="M138.184,58.586l-8.627,2.593l-28.219-20.728
		l7.326-3.749L138.184,58.586z"/>
	
		<path id="path10366_1_" inkscape:connector-curvature="0" fill="none" stroke="#211E1B" stroke-width="0.096" stroke-miterlimit="10" d="
		M138.184,58.586l-8.627,2.593l-28.219-20.728l7.326-3.749L138.184,58.586z"/>
	<path id="path10370_1_" inkscape:connector-curvature="0" fill="#EEEC92" d="M155.951,53.29l-8.628,2.593l-31.43-22.821
		l7.326-3.749L155.951,53.29L155.951,53.29z"/>
	
		<path id="path10374_1_" inkscape:connector-curvature="0" fill="none" stroke="#211E1B" stroke-width="0.096" stroke-miterlimit="10" d="
		M155.951,53.29l-8.628,2.593l-31.43-22.821l7.326-3.749L155.951,53.29L155.951,53.29z"/>
	
		<path id="path10378_1_" inkscape:connector-curvature="0" fill="none" stroke="#060A03" stroke-width="0.152" stroke-linecap="round" stroke-linejoin="round" stroke-dasharray="2.412" d="
		M107.779,70.349c2.235-3.543,1.733-4.736-1.341-6.886c-2.454-1.716-21.281-15.971-22.912-17.206
		c-0.213-0.368-0.48-0.779-0.396-1.668l0.016-0.177c0.084-0.911,0.123-0.995,0.325-1.11c0.39-0.219,0.774-0.436,1.155-0.654
		c1.636-0.93,3.181-1.809,5.138-2.719c0.081-0.037,0.191-0.055,0.322-0.056c0.395-0.006,0.976,0.121,1.466,0.23
		c0.644,0.141,1.3,0.286,1.916,0.277c0.418-0.006,0.818-0.084,1.181-0.28c0.334-0.18,0.611-0.32,0.874-0.451
		c0.459-0.23,0.891-0.448,1.476-0.805c0.951-0.583,1.156-1.529,1.305-2.22c0.138-0.634,0.226-0.975,0.574-1.188
		c1.945-1.19,3.11-1.855,4.616-2.637c0.279-0.145,0.55-0.204,0.824-0.207c0.461-0.008,0.926,0.141,1.435,0.305
		c0.504,0.161,1.049,0.335,1.606,0.326c0.336-0.005,0.678-0.076,1.016-0.259c1.497-0.801,1.92-1.036,2.992-1.702
		c0.91-0.564,1.041-1.505,1.139-2.191c0.09-0.649,0.155-0.929,0.431-1.092c0.951-0.563,2.057-1.286,3.034-1.925
		c0.495-0.324,0.945-0.619,1.303-0.844l0.693-0.438c4.009-2.529,6.656-4.2,7.722-4.803c0.112-0.064,0.222-0.13,0.334-0.196
		c0.474-0.285,0.934-0.561,1.702-0.573c0.702-0.01,1.664,0.199,3.13,0.825c2.16,0.92,2.906,1.201,3.451,1.406
		c0.399,0.15,0.662,0.249,1.331,0.549c1.357,0.609,2.036,1.23,2.725,3.504c0.29,0.955,0.584,1.844,0.924,2.873
		c0.236,0.714,0.501,1.514,0.814,2.486c0.787,2.443,1.369,3.259,5.362,4.481c4.731,1.447,18.999,5.329,24.463,6.49
		c0,0,0.226,0.109,1.906-0.48c1.681-0.588,4.423-1.689,6.72-2.466c3.138-1.061,9.975-3.192,12.105-3.787
		c2.131-0.595,3.138-1.061,4.383-0.63c1.246,0.433,1.584,0.426,2.739,2.324c0.891,1.465,2.411,3.98,3.831,7.6
		c0.351,0.895,1.167,4.074,2.346,6.159c0.694,1.227,1.711,1.437,1.711,1.437"/>
	
		<path id="path10382_1_" inkscape:connector-curvature="0" fill="none" stroke="#1D1D1B" stroke-width="0.152" stroke-miterlimit="10" d="
		M4.83,60.194c3.522,1.695,29.355,13.187,64.605,14.315c15.448,0.495,51.465-6.753,66.88-8.444
		c15.416-1.69,60.064-5.261,70.106-5.851"/>
	
		<path id="path10386_1_" inkscape:connector-curvature="0" fill="none" stroke="#060A03" stroke-width="0.152" stroke-linecap="round" stroke-linejoin="round" d="
		M61.02,45.357c6.029,3.741,7.787,4.679,12.64,5.115c4.86,0.438,10.152,0.954,12.044,1.07c1.893,0.116,3.382,0.532,4.554,1.474"/>
	
		<path id="path10390_1_" inkscape:connector-curvature="0" fill="none" stroke="#060A03" stroke-width="0.152" stroke-linecap="round" stroke-linejoin="round" d="
		M69.442,43.891c0.882,0.425,0.451,0.186,1.09,0.368c0.914,0.259,1.948-0.503,2.67-0.359c0.895,0.177,1.895,0.322,2.491,0.471
		c1.917,0.48,1.36,1.37,2.954,1.611c1.915,0.289,3.001,0.477,3.001,0.477"/>
	<path id="path10394_1_" inkscape:connector-curvature="0" fill="#1D1D1B" d="M128.87,22.108c0.195,0.33,0.09,0.754-0.235,0.946
		l-1.711,1.01c-0.324,0.192-0.745,0.08-0.941-0.25c-0.195-0.331-0.09-0.755,0.235-0.946l1.711-1.01
		C128.254,21.666,128.675,21.778,128.87,22.108"/>
	
		<path id="path10398_1_" inkscape:connector-curvature="0" fill="none" stroke="#060A03" stroke-width="0.152" stroke-linecap="round" stroke-linejoin="round" d="
		M128.87,22.108c0.195,0.33,0.09,0.754-0.235,0.946l-1.711,1.01c-0.324,0.192-0.745,0.08-0.941-0.25
		c-0.195-0.331-0.09-0.755,0.235-0.946l1.711-1.01C128.254,21.666,128.675,21.778,128.87,22.108z"/>
	<path id="path10402_1_" inkscape:connector-curvature="0" fill="#1D1D1B" d="M135.548,25.123c0.195,0.33,0.09,0.754-0.235,0.946
		l-1.711,1.009c-0.325,0.192-0.745,0.081-0.941-0.249c-0.195-0.331-0.09-0.755,0.235-0.946l1.711-1.011
		C134.93,24.68,135.353,24.793,135.548,25.123"/>
	
		<path id="path10406_1_" inkscape:connector-curvature="0" fill="none" stroke="#060A03" stroke-width="0.152" stroke-linecap="round" stroke-linejoin="round" d="
		M135.548,25.123c0.195,0.33,0.09,0.754-0.235,0.946l-1.711,1.009c-0.325,0.192-0.745,0.081-0.941-0.249
		c-0.195-0.331-0.09-0.755,0.235-0.946l1.711-1.011C134.93,24.68,135.353,24.793,135.548,25.123z"/>
	<path id="path10410_1_" inkscape:connector-curvature="0" fill="#1D1D1B" d="M118.281,27.472c0.181,0.337,0.06,0.757-0.273,0.936
		l-1.749,0.941c-0.333,0.18-0.749,0.051-0.931-0.286c-0.181-0.337-0.061-0.757,0.272-0.936l1.749-0.942
		C117.682,27.006,118.098,27.135,118.281,27.472"/>
	
		<path id="path10414_1_" inkscape:connector-curvature="0" fill="none" stroke="#060A03" stroke-width="0.152" stroke-linecap="round" stroke-linejoin="round" d="
		M118.281,27.472c0.181,0.337,0.06,0.757-0.273,0.936l-1.749,0.941c-0.333,0.18-0.749,0.051-0.931-0.286
		c-0.181-0.337-0.061-0.757,0.272-0.936l1.749-0.942C117.682,27.006,118.098,27.135,118.281,27.472z"/>
	<path id="path10418_1_" inkscape:connector-curvature="0" fill="#1D1D1B" d="M104.068,34.926c0.181,0.337,0.06,0.757-0.272,0.936
		l-1.749,0.941c-0.333,0.18-0.749,0.051-0.931-0.286c-0.181-0.337-0.061-0.757,0.273-0.936l1.749-0.942
		C103.469,34.46,103.886,34.589,104.068,34.926"/>
	
		<path id="path10422_1_" inkscape:connector-curvature="0" fill="none" stroke="#060A03" stroke-width="0.152" stroke-linecap="round" stroke-linejoin="round" d="
		M104.068,34.926c0.181,0.337,0.06,0.757-0.272,0.936l-1.749,0.941c-0.333,0.18-0.749,0.051-0.931-0.286
		c-0.181-0.337-0.061-0.757,0.273-0.936l1.749-0.942C103.469,34.46,103.886,34.589,104.068,34.926z"/>
	<path id="path10426_1_" inkscape:connector-curvature="0" fill="#1D1D1B" d="M89.554,42.536c0.181,0.337,0.06,0.757-0.271,0.936
		l-2.176,1.224c-0.331,0.18-0.749,0.051-0.931-0.286c-0.18-0.337-0.06-0.757,0.273-0.936l2.175-1.225
		C88.955,42.069,89.371,42.198,89.554,42.536"/>
	
		<path id="path10430_1_" inkscape:connector-curvature="0" fill="none" stroke="#060A03" stroke-width="0.152" stroke-linecap="round" stroke-linejoin="round" d="
		M89.554,42.536c0.181,0.337,0.06,0.757-0.271,0.936l-2.176,1.224c-0.331,0.18-0.749,0.051-0.931-0.286
		c-0.18-0.337-0.06-0.757,0.273-0.936l2.175-1.225C88.955,42.069,89.371,42.198,89.554,42.536L89.554,42.536z"/>
	<path id="path10434_1_" inkscape:connector-curvature="0" fill="#1D1D1B" d="M75.054,47.625c-0.061,0.379-0.412,0.638-0.785,0.578
		l-2.536-0.387c-0.371-0.06-0.625-0.415-0.565-0.794c0.063-0.378,0.413-0.638,0.786-0.578l2.535,0.386
		C74.862,46.89,75.114,47.246,75.054,47.625"/>
	
		<path id="path10438_1_" inkscape:connector-curvature="0" fill="none" stroke="#060A03" stroke-width="0.152" stroke-linecap="round" stroke-linejoin="round" d="
		M75.054,47.625c-0.061,0.379-0.412,0.638-0.785,0.578l-2.536-0.387c-0.371-0.06-0.625-0.415-0.565-0.794
		c0.063-0.378,0.413-0.638,0.786-0.578l2.535,0.386C74.862,46.89,75.114,47.246,75.054,47.625L75.054,47.625z"/>
	<path id="path10442_1_" inkscape:connector-curvature="0" fill="#FFFFFF" d="M79.053,81.896c1.785-0.625,9.625-7.786,10.899-11.145
		c1.063-2.801,1.455-3.778-6.73-5.942c-8.377-2.216-12.849-3.44-22.873-5.246c-3.896-0.701-5.796,0.088-7.165,2.109
		c-1.847,2.726-2.705,3.189-4.352,3.065c-2.405-0.182-3.762-1.343-6.429-3.074c-4.862-3.154-3.751-3.344-9.303-4.456
		C28.674,56.32,16.29,53.603,7.092,52.1c-0.672-0.109-2.599,0.472-3.191,1.739c-0.508,1.086-0.68,2.594-0.396,4.658
		c0.615,4.471,2.206,7.439,2.206,7.439L79.053,81.896L79.053,81.896z"/>
	
		<path id="path10446_1_" inkscape:connector-curvature="0" fill="none" stroke="#252223" stroke-width="0.009" stroke-miterlimit="10" d="
		M79.053,81.896c1.785-0.625,9.625-7.786,10.899-11.145c1.063-2.801,1.455-3.778-6.73-5.942c-8.377-2.216-12.849-3.44-22.873-5.246
		c-3.896-0.701-5.796,0.088-7.165,2.109c-1.847,2.726-2.705,3.189-4.352,3.065c-2.405-0.182-3.762-1.343-6.429-3.074
		c-4.862-3.154-3.751-3.344-9.303-4.456C28.674,56.32,16.29,53.603,7.092,52.1c-0.672-0.109-2.599,0.472-3.191,1.739
		c-0.508,1.086-0.68,2.594-0.396,4.658c0.615,4.471,2.206,7.439,2.206,7.439L79.053,81.896L79.053,81.896z"/>
	<path id="path10450_1_" inkscape:connector-curvature="0" fill="#FFFFFF" d="M3.973,53.529c0,0,1.101,0.771,7.878,2.02
		s16.186,3.036,20.116,4.65c3.174,1.304,5.22,2.624,8.195,5.732c2.976,3.107,5.709,5.094,4.368,5.789
		c-1.34,0.696-13.309-1.374-22.126-3.493c-8.816-2.119-15.138-3.149-17.418-4.916c-2.279-1.768-3.455-2.948-2.901-4.609
		c0.554-1.662,1.577-4.354,1.577-4.354L3.973,53.529L3.973,53.529z"/>
	
		<path id="path10454_1_" inkscape:connector-curvature="0" fill="none" stroke="#252223" stroke-width="0.009" stroke-miterlimit="10" d="
		M3.973,53.529c0,0,1.101,0.771,7.878,2.02s16.186,3.036,20.116,4.65c3.174,1.304,5.22,2.624,8.195,5.732
		c2.976,3.107,5.709,5.094,4.368,5.789c-1.34,0.696-13.309-1.374-22.126-3.493c-8.816-2.119-15.138-3.149-17.418-4.916
		c-2.279-1.768-3.455-2.948-2.901-4.609c0.554-1.662,1.577-4.354,1.577-4.354L3.973,53.529L3.973,53.529z"/>
	
		<path id="path10458_1_" inkscape:connector-curvature="0" fill="none" stroke="#060A03" stroke-width="0.152" stroke-linecap="round" stroke-linejoin="round" d="
		M6.896,52.907c-1.268-0.418,0.045,0,0.063,0.003c0.103,0.016,0.206,0.034,0.31,0.05"/>
	
		<path id="path10462_1_" inkscape:connector-curvature="0" fill="none" stroke="#060A03" stroke-width="0.152" stroke-linecap="round" stroke-linejoin="round" stroke-dasharray="2.5,2.5" d="
		M10.348,53.49c6.325,1.128,13.404,2.609,18.346,3.643c1.752,0.366,3.214,0.671,4.245,0.877c3.958,0.794,4.303,1.041,6.215,2.416
		c0.688,0.494,1.542,1.107,2.801,1.925c0.405,0.261,0.78,0.511,1.131,0.746c1.992,1.326,3.433,2.285,5.683,2.455
		c0.214,0.016,0.405,0.023,0.585,0.02c1.869-0.028,2.943-1.133,4.508-3.441c0.944-1.393,2.066-1.971,3.874-1.999
		c0.715-0.011,1.523,0.066,2.469,0.236c9.527,1.716,14.099,2.926,21.671,4.931l1.136,0.301c2.804,0.741,6.086,1.72,6.6,2.719
		c0.116,0.228,0.101,0.521-0.004,0.92"/>
	
		<path id="path10466_1_" inkscape:connector-curvature="0" fill="none" stroke="#060A03" stroke-width="0.152" stroke-linecap="round" stroke-linejoin="round" d="
		M89.075,70.712l-0.613,1.41"/>
	<path id="path10470_1_" inkscape:connector-curvature="0" fill="#20211F" d="M211.741,77.707c-0.192,1.754-1.678,2.878-1.678,2.878
		l-25.976,5.695c-0.449,0.079-0.897,0.156-1.346,0.233c-2.158,0.364-4.324,0.69-6.494,0.976c-2.197,0.291-4.4,0.542-6.609,0.729
		c-1.106,0.094-2.214,0.171-3.322,0.225c-0.459,0.021-0.918,0.039-1.377,0.054c-0.815,0.026-1.629,0.041-2.444,0.054l-90.36,1.371
		l-2.826-0.02c-1.815-0.107-3.63-0.24-5.441-0.405c-6.181-0.563-12.332-1.499-18.398-2.819c-0.386-0.084-0.77-0.169-1.155-0.254
		C32.931,83.849,13.326,76.349,3.149,68.847c0,0-2.647-1.493-2.034-4.345c0,0,9.015,3.884,29.299,8.316
		c20.285,4.432,39.532,8.735,74.136,4.386c34.603-4.349,66.566-8.811,80.07-8.866c13.503-0.054,24.73-1.761,24.73-1.761
		L211.741,77.707L211.741,77.707z"/>
	
		<path id="path10474_1_" inkscape:connector-curvature="0" fill="none" stroke="#6F6F6E" stroke-width="0.23" stroke-miterlimit="10" d="
		M211.741,77.707c-0.192,1.754-1.678,2.878-1.678,2.878l-25.976,5.695c-0.449,0.079-0.897,0.156-1.346,0.233
		c-2.158,0.364-4.324,0.69-6.494,0.976c-2.197,0.291-4.4,0.542-6.609,0.729c-1.106,0.094-2.214,0.171-3.322,0.225
		c-0.459,0.021-0.918,0.039-1.377,0.054c-0.815,0.026-1.629,0.041-2.444,0.054l-90.36,1.371l-2.826-0.02
		c-1.815-0.107-3.63-0.24-5.441-0.405c-6.181-0.563-12.332-1.499-18.398-2.819c-0.386-0.084-0.77-0.169-1.155-0.254
		C32.931,83.849,13.326,76.349,3.149,68.847c0,0-2.647-1.493-2.034-4.345c0,0,9.015,3.884,29.299,8.316
		c20.285,4.432,39.532,8.735,74.136,4.386c34.603-4.349,66.566-8.811,80.07-8.866c13.503-0.054,24.73-1.761,24.73-1.761
		L211.741,77.707L211.741,77.707z"/>
	<path id="path10478_1_" inkscape:connector-curvature="0" fill="#FFFFFF" d="M211.776,66.438l-0.174,0.003
		c-0.018-0.003-0.031-0.005-0.048-0.008c-0.348,0.029-0.681,0.056-0.798,0.062c-11.935,0.675-23.846,1.576-35.749,2.702
		c-4.832,0.459-9.664,0.934-14.494,1.414c-6.101,0.606-12.201,1.22-18.294,1.898c-10.041,1.114-20.063,2.399-30.081,3.711
		c-8.048,1.055-16.096,2.129-24.2,2.677c-5.151,0.348-10.326,0.484-15.489,0.353c-2.068-0.052-4.135-0.101-6.199-0.219
		c-1.577-0.089-3.154-0.206-4.726-0.351c-6.155-0.569-12.267-1.572-18.309-2.87c-0.271-0.057-0.543-0.116-0.811-0.175
		c-12.468-2.73-24.734-6.03-36.881-9.922c-0.396-0.127-2.831-0.793-5.061-1.996c0.535,1.328,1.689,2.72,3.501,3.815l0.049,0.086
		c2.471,1.306,4.959,2.576,7.467,3.811c10.47,5.159,21.397,8.92,32.781,11.494c0.385,0.086,0.769,0.171,1.154,0.254
		c6.066,1.32,12.218,2.255,18.398,2.819c1.812,0.165,3.627,0.298,5.443,0.405l2.825,0.02l90.361-1.371
		c0.814-0.013,1.629-0.028,2.443-0.054c0.46-0.014,0.92-0.033,1.379-0.054c1.107-0.054,2.215-0.131,3.322-0.225
		c2.207-0.186,4.411-0.438,6.608-0.728c2.171-0.288,4.336-0.614,6.495-0.978c0.448-0.076,0.897-0.154,1.346-0.233l28.215-5.196
		c0.113-0.576,0.289-3.166,0.18-5.433C212.309,69.653,211.915,66.826,211.776,66.438"/>
	
		<path id="path10482_1_" inkscape:connector-curvature="0" fill="none" stroke="#252223" stroke-width="0.092" stroke-miterlimit="10" d="
		M211.776,66.438l-0.174,0.003c-0.018-0.003-0.031-0.005-0.048-0.008c-0.348,0.029-0.681,0.056-0.798,0.062
		c-11.935,0.675-23.846,1.576-35.749,2.702c-4.832,0.459-9.664,0.934-14.494,1.414c-6.101,0.606-12.201,1.22-18.294,1.898
		c-10.041,1.114-20.063,2.399-30.081,3.711c-8.048,1.055-16.096,2.129-24.2,2.677c-5.151,0.348-10.326,0.484-15.489,0.353
		c-2.068-0.052-4.135-0.101-6.199-0.219c-1.577-0.089-3.154-0.206-4.726-0.351c-6.155-0.569-12.267-1.572-18.309-2.87
		c-0.271-0.057-0.543-0.116-0.811-0.175c-12.468-2.73-24.734-6.03-36.881-9.922c-0.396-0.127-2.831-0.793-5.061-1.996
		c0.535,1.328,1.689,2.72,3.501,3.815l0.049,0.086c2.471,1.306,4.959,2.576,7.467,3.811c10.47,5.159,21.397,8.92,32.781,11.494
		c0.385,0.086,0.769,0.171,1.154,0.254c6.066,1.32,12.218,2.255,18.398,2.819c1.812,0.165,3.627,0.298,5.443,0.405l2.825,0.02
		l90.361-1.371c0.814-0.013,1.629-0.028,2.443-0.054c0.46-0.014,0.92-0.033,1.379-0.054c1.107-0.054,2.215-0.131,3.322-0.225
		c2.207-0.186,4.411-0.438,6.608-0.728c2.171-0.288,4.336-0.614,6.495-0.978c0.448-0.076,0.897-0.154,1.346-0.233l28.215-5.196
		c0.113-0.576,0.289-3.166,0.18-5.433C212.309,69.653,211.915,66.826,211.776,66.438L211.776,66.438z"/>
	<path id="path10486_1_" inkscape:connector-curvature="0" fill="#20211F" d="M42.406,75.635c0.27,0.059,0.54,0.117,0.811,0.176
		c6.042,1.296,12.155,2.3,18.309,2.869c1.572,0.145,3.149,0.262,4.726,0.353c2.065,0.116,4.132,0.165,6.199,0.218
		c5.164,0.131,10.339-0.005,15.489-0.353c8.105-0.549,16.154-1.621,24.201-2.676c10.019-1.314,20.039-2.599,30.08-3.713
		c6.094-0.677,12.192-1.291,18.295-1.898c4.829-0.479,9.66-0.955,14.492-1.413c11.902-1.128,23.814-2.029,35.749-2.704
		c0.116-0.005,0.45-0.034,0.799-0.062c-2.875-0.288-3.279-1.992-4.049-3.351c0,0-1.244-2.045-1.97-3.225l-59.215,4.577
		c-16.518,1.449-32.979,3.647-49.314,6.481c-6.996,1.211-14.011,2.062-21.096,2.559c-0.833,0.057-1.666,0.104-2.501,0.137
		c-2.109,0.088-4.221,0.098-6.33,0.025c-0.917-0.033-1.834-0.079-2.747-0.14c-0.917-0.061-1.834-0.135-2.75-0.223
		c-0.917-0.088-1.834-0.186-2.749-0.295c-0.916-0.11-25.949-2.724-51.712-10.404c-2.084-0.461-2.8-1.287-2.936-2.356
		c-0.139-1.095-0.554-4.378-0.554-4.378s-0.945-0.264-1.938,0.76c-0.72,0.741-0.944,2.086-1.513,4.774
		c-0.146,0.696-0.054,1.506,0.281,2.342c2.23,1.203,4.665,1.869,5.061,1.995C17.672,69.605,29.938,72.905,42.406,75.635"/>
	
		<path id="path10490_1_" inkscape:connector-curvature="0" fill="none" stroke="#6F6F6E" stroke-width="0.23" stroke-miterlimit="10" d="
		M42.406,75.635c0.27,0.059,0.54,0.117,0.811,0.176c6.042,1.296,12.155,2.3,18.309,2.869c1.572,0.145,3.149,0.262,4.726,0.353
		c2.065,0.116,4.132,0.165,6.199,0.218c5.164,0.131,10.339-0.005,15.489-0.353c8.105-0.549,16.154-1.621,24.201-2.676
		c10.019-1.314,20.039-2.599,30.08-3.713c6.094-0.677,12.192-1.291,18.295-1.898c4.829-0.479,9.66-0.955,14.492-1.413
		c11.902-1.128,23.814-2.029,35.749-2.704c0.116-0.005,0.45-0.034,0.799-0.062c-2.875-0.288-3.279-1.992-4.049-3.351
		c0,0-1.244-2.045-1.97-3.225l-59.215,4.577c-16.518,1.449-32.979,3.647-49.314,6.481c-6.996,1.211-14.011,2.062-21.096,2.559
		c-0.833,0.057-1.666,0.104-2.501,0.137c-2.109,0.088-4.221,0.098-6.33,0.025c-0.917-0.033-1.834-0.079-2.747-0.14
		c-0.917-0.061-1.834-0.135-2.75-0.223c-0.917-0.088-1.834-0.186-2.749-0.295c-0.916-0.11-25.949-2.724-51.712-10.404
		c-2.084-0.461-2.8-1.287-2.936-2.356c-0.139-1.095-0.554-4.378-0.554-4.378s-0.945-0.264-1.938,0.76
		c-0.72,0.741-0.944,2.086-1.513,4.774c-0.146,0.696-0.054,1.506,0.281,2.342c2.23,1.203,4.665,1.869,5.061,1.995
		C17.672,69.605,29.938,72.905,42.406,75.635L42.406,75.635z"/>
	
		<path id="path10494_1_" inkscape:connector-curvature="0" fill="#20211F" stroke="#6F6F6E" stroke-width="0.23" stroke-miterlimit="10" d="
		M187.994,85.676l-1.154-6.608c-0.084-0.48,0.236-0.938,0.717-1.022c0.48-0.083,0.938,0.239,1.02,0.718l1.131,6.478"/>
	
		<path id="path10498_1_" inkscape:connector-curvature="0" fill="#20211F" stroke="#6F6F6E" stroke-width="0.23" stroke-miterlimit="10" d="
		M155.901,88.9l-0.389-6.009c-0.028-0.486,0.344-0.902,0.831-0.931c0.486-0.029,0.904,0.341,0.933,0.829l0.397,6.16"/>
	
		<path id="path10502_1_" inkscape:connector-curvature="0" fill="#20211F" stroke="#6F6F6E" stroke-width="0.23" stroke-miterlimit="10" d="
		M95.284,89.526l-0.287-6.014c-0.021-0.486-0.434-0.865-0.921-0.841c-0.486,0.02-0.864,0.433-0.842,0.919l0.292,6.166"/>
	
		<path id="path10506_1_" inkscape:connector-curvature="0" fill="#20211F" stroke="#6F6F6E" stroke-width="0.23" stroke-miterlimit="10" d="
		M71.981,89.964l0.438-6.209c0.026-0.488-0.345-0.904-0.833-0.931c-0.487-0.028-0.904,0.345-0.93,0.831l-0.448,6.361"/>
	
		<path id="path10510_1_" inkscape:connector-curvature="0" fill="#20211F" stroke="#6F6F6E" stroke-width="0.23" stroke-miterlimit="10" d="
		M49.206,87.332l1.287-5.911c0.096-0.477-0.212-0.942-0.691-1.039c-0.478-0.096-0.944,0.213-1.04,0.69l-1.319,6.061"/>
	
		<path id="path10514_1_" inkscape:connector-curvature="0" fill="none" stroke="#060A03" stroke-width="0.152" stroke-linecap="round" stroke-linejoin="round" stroke-dasharray="2.459" d="
		M62.605,45.309c0,0,3.809,2.47,6.068,3.239c2.257,0.768,3.423,0.83,7.803,1.245c4.379,0.415,11.01,1.116,11.01,1.116"/>
	
		<path id="path10518_1_" inkscape:connector-curvature="0" fill="none" stroke="#060A03" stroke-width="0.152" stroke-linecap="round" stroke-linejoin="round" stroke-dasharray="2.459" d="
		M72.578,44.233c1.007,0.265,2.292,0.366,2.939,0.638s0.702,1.394,1.99,1.575c1.286,0.181,5.27,0.962,5.27,0.962"/>
	<path id="path10522_1_" inkscape:connector-curvature="0" fill="#EEEC92" d="M73.471,43.868c0.566-0.596,1.444-1.405,1.435-1.936
		l3.419-0.924c0.015,1.015-0.825,2.643-1.625,3.615L73.471,43.868L73.471,43.868z"/>
	
		<path id="path10526_1_" inkscape:connector-curvature="0" fill="none" stroke="#211E1B" stroke-width="0.096" stroke-miterlimit="10" d="
		M73.471,43.868c0.566-0.596,1.444-1.405,1.435-1.936l3.419-0.924c0.015,1.015-0.825,2.643-1.625,3.615L73.471,43.868L73.471,43.868
		z"/>
	<path id="path10530_1_" inkscape:connector-curvature="0" fill="#EEEC92" d="M86.891,44.194c-1.449-2.359-3.925-3.526-5.942-4.719
		l3.13-1.399c2.679,1.581,3.861,1.899,5.455,4.494L86.891,44.194L86.891,44.194z"/>
	
		<path id="path10534_1_" inkscape:connector-curvature="0" fill="none" stroke="#211E1B" stroke-width="0.096" stroke-miterlimit="10" d="
		M86.891,44.194c-1.449-2.359-3.925-3.526-5.942-4.719l3.13-1.399c2.679,1.581,3.861,1.899,5.455,4.494L86.891,44.194L86.891,44.194
		z"/>
	<path id="path10538_1_" inkscape:connector-curvature="0" fill="#EEEC92" d="M101.127,36.179c-1.449-2.359-2.885-3.811-4.902-5.003
		l2.794-1.66c2.677,1.581,3.158,2.444,4.751,5.039L101.127,36.179z"/>
	
		<path id="path10542_1_" inkscape:connector-curvature="0" fill="none" stroke="#211E1B" stroke-width="0.096" stroke-miterlimit="10" d="
		M101.127,36.179c-1.449-2.359-2.885-3.811-4.902-5.003l2.794-1.66c2.677,1.581,3.158,2.444,4.751,5.039L101.127,36.179z"/>
	<path id="path10546_1_" inkscape:connector-curvature="0" fill="#EEEC92" d="M115.371,28.695c-1.449-2.359-4.77-3.747-6.787-4.94
		l2.861-1.73c2.677,1.58,4.975,2.451,6.569,5.046L115.371,28.695L115.371,28.695z"/>
	
		<path id="path10550_1_" inkscape:connector-curvature="0" fill="none" stroke="#211E1B" stroke-width="0.096" stroke-miterlimit="10" d="
		M115.371,28.695c-1.449-2.359-4.77-3.747-6.787-4.94l2.861-1.73c2.677,1.58,4.975,2.451,6.569,5.046L115.371,28.695L115.371,28.695
		z"/>
	<path id="path10554_1_" inkscape:connector-curvature="0" fill="#EEEC92" d="M125.868,23.455c-1.449-2.359-5.129-5.935-7.8-6.721
		l2.095-2.159c2.967,0.9,6.754,4.661,8.347,7.256L125.868,23.455L125.868,23.455z"/>
	
		<path id="path10558_1_" inkscape:connector-curvature="0" fill="none" stroke="#211E1B" stroke-width="0.096" stroke-miterlimit="10" d="
		M125.868,23.455c-1.449-2.359-5.129-5.935-7.8-6.721l2.095-2.159c2.967,0.9,6.754,4.661,8.347,7.256L125.868,23.455L125.868,23.455
		z"/>
	<path id="path10562_1_" inkscape:connector-curvature="0" fill="#EEEC92" d="M71.442,46.744c-1.059-1.006-1.895-1.688-3.913-2.88
		l3.236-1.022c1.04,0.705,3.379,2.186,3.916,4.136L71.442,46.744z"/>
	
		<path id="path10566_1_" inkscape:connector-curvature="0" fill="none" stroke="#211E1B" stroke-width="0.096" stroke-miterlimit="10" d="
		M71.442,46.744c-1.059-1.006-1.895-1.688-3.913-2.88l3.236-1.022c1.04,0.705,3.379,2.186,3.916,4.136L71.442,46.744z"/>
	<path id="path10570_1_" inkscape:connector-curvature="0" fill="#EEEC92" d="M87.616,39.525c0.836-1.401,1.268-2.501,1.466-3.739
		l3.1-1.69c0.059,1.225-0.484,3.372-1.196,4.895l-1.719-0.189L87.616,39.525z"/>
	
		<path id="path10574_1_" inkscape:connector-curvature="0" fill="none" stroke="#211E1B" stroke-width="0.096" stroke-miterlimit="10" d="
		M87.616,39.525c0.836-1.401,1.268-2.501,1.466-3.739l3.1-1.69c0.059,1.225-0.484,3.372-1.196,4.895l-1.719-0.189L87.616,39.525z"/>
	<path id="path10578_1_" inkscape:connector-curvature="0" fill="#EEEC92" d="M115.811,24.673c-0.443-2.38-0.504-4.3-1.05-4.881
		l2.714-1.869c0.618,0.498,1.334,3.821,1.098,4.992L115.811,24.673L115.811,24.673z"/>
	
		<path id="path10582_1_" inkscape:connector-curvature="0" fill="none" stroke="#211E1B" stroke-width="0.096" stroke-miterlimit="10" d="
		M115.811,24.673c-0.443-2.38-0.504-4.3-1.05-4.881l2.714-1.869c0.618,0.498,1.334,3.821,1.098,4.992L115.811,24.673L115.811,24.673
		z"/>
	<path id="path10586_1_" inkscape:connector-curvature="0" fill="#EEEC92" d="M102.437,31.901c0.479-1.851,1.184-3.564,0.762-4.74
		l2.461-1.546c1.286,1.25,0.516,4.953,0.23,6.125c0,0-1.234-0.251-1.528-0.281c-0.292-0.03-0.934,0.031-1.239,0.161
		C102.819,31.749,102.437,31.901,102.437,31.901"/>
	
		<path id="path10590_1_" inkscape:connector-curvature="0" fill="none" stroke="#211E1B" stroke-width="0.096" stroke-miterlimit="10" d="
		M102.437,31.901c0.479-1.851,1.184-3.564,0.762-4.74l2.461-1.546c1.286,1.25,0.516,4.953,0.23,6.125c0,0-1.234-0.251-1.528-0.281
		c-0.292-0.03-0.934,0.031-1.239,0.161C102.819,31.749,102.437,31.901,102.437,31.901z"/>
	<path id="path10594_1_" inkscape:connector-curvature="0" fill="#20211F" d="M110.878,32.509
		c-0.761,0.433-28.449,15.075-28.449,15.075l-1.076-0.791c-0.466-0.655-0.405-1.346-0.308-2.38s0.109-1.582,0.762-1.95
		c2.081-1.169,3.97-2.305,6.472-3.467c1.203-0.559,3.68,0.875,4.937,0.196c0.936-0.505,1.454-0.706,2.358-1.259
		c1.34-0.82,0.575-2.654,1.915-3.474c2.095-1.281,3.269-1.945,4.757-2.718c1.952-1.014,3.624,0.894,4.967,0.174
		c1.542-0.826,1.956-1.059,3.005-1.71c1.219-0.756,0.335-2.599,1.616-3.358c1.454-0.86,3.332-2.136,4.4-2.81
		c0.71-0.449,3.005-1.844,3.389-2.137c0.589-0.451,0.765,0.363,0.765,0.363s0.201,3.117,0.255,4.124
		c0.053,0.965-0.056,1.403-1.204,2.137c-0.174,0.111-4.977,3.027-5.285,3.199C112.191,32.826,112.99,31.309,110.878,32.509"/>
	
		<path id="path10598_1_" inkscape:connector-curvature="0" fill="none" stroke="#6F6F6E" stroke-width="0.23" stroke-miterlimit="10" d="
		M110.878,32.509c-0.761,0.433-28.449,15.075-28.449,15.075l-1.076-0.791c-0.466-0.655-0.405-1.346-0.308-2.38
		s0.109-1.582,0.762-1.95c2.081-1.169,3.97-2.305,6.472-3.467c1.203-0.559,3.68,0.875,4.937,0.196
		c0.936-0.505,1.454-0.706,2.358-1.259c1.34-0.82,0.575-2.654,1.915-3.474c2.095-1.281,3.269-1.945,4.757-2.718
		c1.952-1.014,3.624,0.894,4.967,0.174c1.542-0.826,1.956-1.059,3.005-1.71c1.219-0.756,0.335-2.599,1.616-3.358
		c1.454-0.86,3.332-2.136,4.4-2.81c0.71-0.449,3.005-1.844,3.389-2.137c0.589-0.451,0.765,0.363,0.765,0.363
		s0.201,3.117,0.255,4.124c0.053,0.965-0.056,1.403-1.204,2.137c-0.174,0.111-4.977,3.027-5.285,3.199
		C112.191,32.826,112.99,31.309,110.878,32.509L110.878,32.509z"/>
	<path id="path10602_1_" inkscape:connector-curvature="0" fill="#EEEC92" d="M179.991,42.262c0.116,0.394,0.508,0.617,0.901,0.501
		c0.402-0.119,0.615-0.516,0.496-0.914c-0.116-0.394-0.515-0.614-0.913-0.495C180.082,41.469,179.875,41.868,179.991,42.262
		 M181.675,42.844l-0.08-0.271c0,0-0.14,0.37-0.628,0.515c-0.556,0.164-1.145-0.149-1.315-0.725
		c-0.17-0.575,0.153-1.162,0.709-1.328c0.484-0.143,0.805,0.088,0.805,0.088l-0.289-0.975l0.342-0.101l0.798,2.696L181.675,42.844z"
		/>
	<path id="path10606_1_" inkscape:connector-curvature="0" fill="#EEEC92" d="M183.687,42.249l-0.075-0.252
		c0,0-0.091,0.34-0.54,0.474c-0.465,0.136-0.866-0.091-1.011-0.58l-0.36-1.221l0.342-0.1l0.346,1.172
		c0.096,0.327,0.342,0.479,0.649,0.387c0.34-0.1,0.499-0.387,0.391-0.75l-0.331-1.123l0.342-0.101l0.589,1.992L183.687,42.249z"/>
	<path id="path10610_1_" inkscape:connector-curvature="0" fill="#EEEC92" d="M184.781,40.115c-0.39,0.116-0.55,0.445-0.433,0.843
		l0.299,1.009l-0.346,0.101l-0.589-1.992l0.342-0.101l0.098,0.332c0,0,0.075-0.412,0.524-0.546L184.781,40.115z"/>
	<path id="path10614_1_" inkscape:connector-curvature="0" fill="#EEEC92" d="M185.428,40.655c0.116,0.394,0.508,0.617,0.901,0.501
		c0.401-0.119,0.614-0.516,0.496-0.914c-0.116-0.394-0.515-0.614-0.913-0.495C185.519,39.862,185.312,40.261,185.428,40.655
		 M187.03,40.966c0,0-0.131,0.369-0.626,0.515c-0.555,0.164-1.146-0.149-1.315-0.725c-0.17-0.575,0.153-1.162,0.709-1.328
		c0.48-0.141,0.804,0.084,0.804,0.084l-0.079-0.267l0.341-0.101l0.589,1.992l-0.341,0.101L187.03,40.966L187.03,40.966z"/>
	<path id="path10618_1_" inkscape:connector-curvature="0" fill="#EEEC92" d="M187.553,39.211c0,0,0.083-0.329,0.508-0.455
		c0.28-0.083,0.534-0.021,0.715,0.158c0.031-0.111,0.156-0.414,0.578-0.539c0.46-0.136,0.843,0.085,0.978,0.559l0.368,1.245
		l-0.337,0.099l-0.355-1.201c-0.093-0.31-0.322-0.452-0.602-0.37c-0.31,0.091-0.464,0.36-0.364,0.695l0.344,1.166l-0.339,0.099
		l-0.355-1.201c-0.091-0.31-0.321-0.452-0.601-0.37c-0.315,0.093-0.461,0.364-0.36,0.71l0.34,1.151l-0.342,0.1l-0.589-1.992
		l0.342-0.101L187.553,39.211L187.553,39.211z"/>
	<path id="path10622_1_" inkscape:connector-curvature="0" fill="#EEEC92" d="M190.975,39.016c0.12,0.406,0.503,0.628,0.904,0.508
		c0.397-0.116,0.614-0.515,0.494-0.921c-0.121-0.409-0.511-0.628-0.909-0.51C191.062,38.211,190.853,38.607,190.975,39.016
		 M192.713,38.497c0.171,0.58-0.139,1.167-0.734,1.343c-0.598,0.177-1.177-0.143-1.35-0.726c-0.169-0.575,0.143-1.159,0.741-1.336
		C191.965,37.602,192.543,37.924,192.713,38.497"/>
	<path id="path10626_1_" inkscape:connector-curvature="0" fill="#EEEC92" d="M193.812,39.257l-0.363,0.107l0.351-2.434
		l-1.247,0.369l-0.095-0.319l1.611-0.476l0.091,0.308L193.812,39.257L193.812,39.257z"/>
	<path id="path10630_1_" inkscape:connector-curvature="0" fill="#4A525C" d="M164.659,59.408c-0.095-0.272-0.392-0.418-0.665-0.324
		c-0.274,0.095-0.419,0.392-0.324,0.666c0.095,0.272,0.393,0.418,0.665,0.322C164.609,59.979,164.754,59.681,164.659,59.408"/>
	<path id="path10634_1_" inkscape:connector-curvature="0" fill="#4A525C" d="M167.428,59.067c-0.095-0.272-0.392-0.418-0.665-0.324
		c-0.274,0.095-0.419,0.392-0.324,0.666c0.095,0.272,0.393,0.418,0.665,0.322C167.378,59.638,167.523,59.339,167.428,59.067"/>
	<path id="path10638_1_" inkscape:connector-curvature="0" fill="#4A525C" d="M164.283,56.643c-0.095-0.272-0.393-0.418-0.665-0.324
		c-0.274,0.095-0.419,0.392-0.324,0.666c0.095,0.272,0.392,0.418,0.665,0.322C164.233,57.214,164.378,56.915,164.283,56.643"/>
	<path id="path10642_1_" inkscape:connector-curvature="0" fill="#4A525C" d="M167.052,56.302c-0.095-0.272-0.392-0.418-0.665-0.324
		c-0.274,0.095-0.419,0.392-0.324,0.666c0.095,0.272,0.393,0.418,0.665,0.322C167.002,56.873,167.147,56.575,167.052,56.302"/>
	<path id="path10646_1_" inkscape:connector-curvature="0" fill="#4A525C" d="M166.676,53.537c-0.095-0.272-0.393-0.418-0.665-0.322
		c-0.274,0.094-0.418,0.392-0.324,0.665c0.095,0.272,0.392,0.418,0.665,0.322C166.626,54.108,166.771,53.81,166.676,53.537"/>
	<path id="path10650_1_" inkscape:connector-curvature="0" fill="#4A525C" d="M169.821,55.961c-0.095-0.272-0.392-0.418-0.665-0.324
		c-0.274,0.095-0.419,0.392-0.324,0.666c0.095,0.272,0.393,0.418,0.665,0.322C169.771,56.532,169.916,56.233,169.821,55.961"/>
	<path id="path10654_1_" inkscape:connector-curvature="0" fill="#4A525C" d="M172.59,55.62c-0.095-0.272-0.392-0.418-0.665-0.324
		c-0.274,0.095-0.419,0.392-0.324,0.666c0.095,0.272,0.393,0.418,0.665,0.322C172.54,56.191,172.685,55.892,172.59,55.62"/>
	<path id="path10658_1_" inkscape:connector-curvature="0" fill="#4A525C" d="M175.36,55.279c-0.095-0.272-0.392-0.418-0.665-0.324
		c-0.274,0.095-0.419,0.392-0.324,0.666c0.095,0.272,0.393,0.418,0.665,0.322C175.31,55.85,175.455,55.551,175.36,55.279"/>
	<path id="path10662_1_" inkscape:connector-curvature="0" fill="#4A525C" d="M178.129,54.938c-0.095-0.272-0.393-0.418-0.665-0.324
		c-0.274,0.095-0.419,0.392-0.324,0.666c0.095,0.272,0.392,0.418,0.665,0.322C178.079,55.509,178.224,55.21,178.129,54.938"/>
	<path id="path10666_1_" inkscape:connector-curvature="0" fill="#4A525C" d="M180.898,54.596c-0.095-0.272-0.393-0.418-0.665-0.324
		c-0.274,0.095-0.419,0.392-0.324,0.666c0.095,0.272,0.392,0.418,0.665,0.322C180.848,55.167,180.993,54.869,180.898,54.596"/>
	<path id="path10670_1_" inkscape:connector-curvature="0" fill="#4A525C" d="M183.667,54.255c-0.095-0.272-0.393-0.418-0.665-0.324
		c-0.274,0.095-0.419,0.392-0.324,0.666c0.095,0.272,0.392,0.418,0.665,0.322C183.617,54.826,183.762,54.527,183.667,54.255"/>
	<path id="path10674_1_" inkscape:connector-curvature="0" fill="#4A525C" d="M186.436,53.914c-0.095-0.272-0.393-0.418-0.665-0.324
		c-0.274,0.095-0.418,0.392-0.324,0.666c0.095,0.272,0.392,0.418,0.665,0.322C186.386,54.485,186.531,54.187,186.436,53.914"/>
	<path id="path10678_1_" inkscape:connector-curvature="0" fill="#4A525C" d="M189.205,53.573c-0.095-0.272-0.393-0.418-0.665-0.324
		c-0.274,0.095-0.419,0.392-0.324,0.666c0.095,0.272,0.392,0.418,0.665,0.322C189.155,54.144,189.3,53.845,189.205,53.573"/>
	<path id="path10682_1_" inkscape:connector-curvature="0" fill="#4A525C" d="M191.975,53.232c-0.095-0.272-0.393-0.418-0.665-0.324
		c-0.274,0.095-0.419,0.392-0.324,0.666c0.095,0.272,0.392,0.418,0.665,0.322C191.925,53.803,192.07,53.504,191.975,53.232"/>
	<path id="path10686_1_" inkscape:connector-curvature="0" fill="#4A525C" d="M194.744,52.891c-0.095-0.272-0.392-0.418-0.665-0.324
		c-0.274,0.095-0.418,0.392-0.324,0.666c0.095,0.272,0.393,0.418,0.666,0.322C194.694,53.462,194.839,53.163,194.744,52.891"/>
	<path id="path10690_1_" inkscape:connector-curvature="0" fill="#4A525C" d="M197.513,52.55c-0.095-0.272-0.392-0.418-0.665-0.324
		c-0.274,0.095-0.419,0.392-0.324,0.666c0.095,0.272,0.393,0.418,0.665,0.322C197.463,53.121,197.608,52.822,197.513,52.55"/>
	<path id="path10694_1_" inkscape:connector-curvature="0" fill="#4A525C" d="M200.282,52.208c-0.095-0.272-0.393-0.418-0.665-0.324
		c-0.274,0.095-0.419,0.392-0.324,0.666c0.095,0.272,0.392,0.418,0.665,0.322C200.232,52.779,200.377,52.481,200.282,52.208"/>
	<path id="path10698_1_" inkscape:connector-curvature="0" fill="#4A525C" d="M169.445,53.196c-0.095-0.272-0.393-0.418-0.665-0.324
		c-0.274,0.095-0.419,0.392-0.324,0.666c0.095,0.272,0.392,0.418,0.665,0.322C169.395,53.768,169.54,53.469,169.445,53.196"/>
	<path id="path10702_1_" inkscape:connector-curvature="0" fill="#4A525C" d="M172.214,52.855c-0.095-0.272-0.392-0.418-0.665-0.324
		c-0.274,0.095-0.419,0.392-0.324,0.666c0.095,0.272,0.393,0.418,0.665,0.322C172.164,53.426,172.309,53.128,172.214,52.855"/>
	<path id="path10706_1_" inkscape:connector-curvature="0" fill="#4A525C" d="M171.838,50.091c-0.095-0.272-0.392-0.418-0.665-0.324
		c-0.274,0.095-0.418,0.392-0.324,0.666c0.095,0.272,0.393,0.418,0.665,0.322C171.788,50.662,171.933,50.363,171.838,50.091"/>
	<path id="path10710_1_" inkscape:connector-curvature="0" fill="#4A525C" d="M174.983,52.514c-0.095-0.272-0.393-0.418-0.665-0.324
		c-0.274,0.095-0.418,0.392-0.324,0.666c0.095,0.272,0.392,0.418,0.666,0.322C174.933,53.085,175.078,52.786,174.983,52.514"/>
	<path id="path10714_1_" inkscape:connector-curvature="0" fill="#4A525C" d="M174.607,49.749c-0.095-0.272-0.393-0.418-0.665-0.324
		c-0.274,0.095-0.419,0.392-0.324,0.666c0.095,0.272,0.392,0.418,0.665,0.322C174.557,50.32,174.702,50.022,174.607,49.749"/>
	<path id="path10718_1_" inkscape:connector-curvature="0" fill="#4A525C" d="M177.752,52.173c-0.095-0.272-0.393-0.418-0.665-0.324
		c-0.274,0.095-0.419,0.392-0.324,0.666c0.095,0.272,0.392,0.418,0.665,0.322C177.702,52.744,177.847,52.445,177.752,52.173"/>
	<path id="path10722_1_" inkscape:connector-curvature="0" fill="#4A525C" d="M177.376,49.408c-0.095-0.272-0.392-0.418-0.665-0.324
		c-0.274,0.095-0.418,0.392-0.324,0.666c0.095,0.272,0.393,0.418,0.666,0.322C177.326,49.979,177.471,49.681,177.376,49.408"/>
	<path id="path10726_1_" inkscape:connector-curvature="0" fill="#4A525C" d="M180.521,51.832c-0.095-0.272-0.392-0.418-0.665-0.324
		c-0.274,0.095-0.419,0.392-0.324,0.666c0.095,0.272,0.393,0.418,0.665,0.322C180.471,52.403,180.616,52.104,180.521,51.832"/>
	<path id="path10730_1_" inkscape:connector-curvature="0" fill="#4A525C" d="M180.145,49.067c-0.095-0.272-0.392-0.418-0.665-0.322
		c-0.274,0.094-0.418,0.392-0.324,0.665c0.095,0.272,0.393,0.418,0.665,0.322C180.095,49.638,180.24,49.34,180.145,49.067"/>
	<path id="path10734_1_" inkscape:connector-curvature="0" fill="#4A525C" d="M183.291,51.49c-0.095-0.272-0.393-0.418-0.665-0.324
		c-0.274,0.095-0.419,0.392-0.324,0.666c0.095,0.272,0.392,0.418,0.665,0.322C183.241,52.062,183.386,51.763,183.291,51.49"/>
	<path id="path10738_1_" inkscape:connector-curvature="0" fill="#4A525C" d="M186.06,51.15c-0.095-0.272-0.393-0.418-0.665-0.324
		c-0.274,0.095-0.419,0.392-0.324,0.666c0.095,0.272,0.392,0.418,0.665,0.322C186.01,51.721,186.155,51.422,186.06,51.15"/>
	<path id="path10742_1_" inkscape:connector-curvature="0" fill="#4A525C" d="M188.829,50.808c-0.095-0.272-0.393-0.418-0.665-0.324
		c-0.274,0.095-0.419,0.392-0.324,0.666c0.095,0.272,0.392,0.418,0.665,0.322C188.779,51.379,188.924,51.081,188.829,50.808"/>
	<path id="path10746_1_" inkscape:connector-curvature="0" fill="#4A525C" d="M191.598,50.467c-0.095-0.272-0.393-0.418-0.665-0.322
		c-0.274,0.094-0.419,0.392-0.324,0.665c0.095,0.272,0.392,0.418,0.665,0.322C191.548,51.038,191.693,50.739,191.598,50.467"/>
	<path id="path10750_1_" inkscape:connector-curvature="0" fill="#4A525C" d="M194.367,50.126c-0.095-0.272-0.393-0.418-0.665-0.324
		c-0.274,0.095-0.419,0.392-0.324,0.666c0.095,0.272,0.392,0.418,0.665,0.322C194.317,50.697,194.462,50.398,194.367,50.126"/>
	<path id="path10754_1_" inkscape:connector-curvature="0" fill="#4A525C" d="M197.137,49.785c-0.095-0.272-0.393-0.418-0.665-0.324
		c-0.274,0.095-0.419,0.392-0.324,0.666c0.095,0.272,0.392,0.418,0.665,0.322C197.087,50.356,197.232,50.058,197.137,49.785"/>
	<path id="path10758_1_" inkscape:connector-curvature="0" fill="#4A525C" d="M199.906,49.444c-0.095-0.272-0.393-0.418-0.665-0.324
		c-0.274,0.095-0.419,0.392-0.324,0.666c0.095,0.272,0.392,0.418,0.665,0.322C199.856,50.015,200.001,49.716,199.906,49.444"/>
	<path id="path10762_1_" inkscape:connector-curvature="0" fill="#4A525C" d="M182.914,48.726c-0.095-0.272-0.393-0.418-0.665-0.322
		c-0.274,0.094-0.418,0.392-0.324,0.665c0.095,0.272,0.392,0.418,0.665,0.322C182.864,49.297,183.009,48.998,182.914,48.726"/>
	<path id="path10766_1_" inkscape:connector-curvature="0" fill="#4A525C" d="M185.684,48.384c-0.095-0.272-0.392-0.418-0.665-0.322
		c-0.274,0.094-0.418,0.392-0.324,0.665c0.095,0.272,0.393,0.418,0.665,0.322C185.634,48.956,185.779,48.657,185.684,48.384"/>
	<path id="path10770_1_" inkscape:connector-curvature="0" fill="#4A525C" d="M185.307,45.62c-0.095-0.272-0.393-0.418-0.665-0.324
		c-0.274,0.095-0.418,0.392-0.324,0.666c0.095,0.272,0.392,0.418,0.665,0.322C185.257,46.191,185.402,45.893,185.307,45.62"/>
	<path id="path10774_1_" inkscape:connector-curvature="0" fill="#4A525C" d="M188.453,48.044c-0.095-0.272-0.393-0.418-0.665-0.324
		c-0.274,0.095-0.419,0.392-0.324,0.666c0.095,0.272,0.392,0.418,0.665,0.322C188.403,48.615,188.548,48.316,188.453,48.044"/>
	<path id="path10778_1_" inkscape:connector-curvature="0" fill="#4A525C" d="M188.077,45.279c-0.095-0.272-0.393-0.418-0.665-0.324
		c-0.274,0.095-0.419,0.392-0.324,0.666c0.095,0.272,0.392,0.418,0.665,0.322C188.027,45.85,188.172,45.551,188.077,45.279"/>
	<path id="path10782_1_" inkscape:connector-curvature="0" fill="#4A525C" d="M191.222,47.702c-0.095-0.272-0.393-0.418-0.665-0.324
		c-0.274,0.095-0.419,0.392-0.324,0.666c0.095,0.272,0.392,0.418,0.665,0.322C191.172,48.274,191.317,47.975,191.222,47.702"/>
	<path id="path10786_1_" inkscape:connector-curvature="0" fill="#4A525C" d="M190.846,44.938c-0.095-0.272-0.392-0.418-0.665-0.324
		c-0.274,0.095-0.419,0.392-0.324,0.666c0.095,0.272,0.393,0.418,0.665,0.322C190.796,45.509,190.941,45.211,190.846,44.938"/>
	<path id="path10790_1_" inkscape:connector-curvature="0" fill="#4A525C" d="M193.991,47.361c-0.095-0.272-0.393-0.418-0.665-0.324
		c-0.274,0.095-0.418,0.392-0.324,0.666c0.095,0.272,0.392,0.418,0.665,0.322C193.941,47.932,194.086,47.634,193.991,47.361"/>
	<path id="path10794_1_" inkscape:connector-curvature="0" fill="#4A525C" d="M193.615,44.597c-0.095-0.272-0.392-0.418-0.665-0.324
		c-0.274,0.095-0.419,0.392-0.324,0.666c0.095,0.272,0.393,0.418,0.665,0.322C193.565,45.168,193.71,44.869,193.615,44.597"/>
	<path id="path10798_1_" inkscape:connector-curvature="0" fill="#4A525C" d="M196.76,47.02c-0.095-0.272-0.393-0.418-0.665-0.324
		c-0.274,0.095-0.418,0.394-0.324,0.666c0.095,0.272,0.392,0.418,0.665,0.322C196.71,47.591,196.855,47.292,196.76,47.02"/>
	<path id="path10802_1_" inkscape:connector-curvature="0" fill="#4A525C" d="M196.384,44.255c-0.095-0.272-0.392-0.418-0.665-0.324
		c-0.274,0.095-0.419,0.392-0.324,0.666c0.095,0.272,0.393,0.418,0.665,0.322C196.334,44.827,196.479,44.528,196.384,44.255"/>
	<path id="path10806_1_" inkscape:connector-curvature="0" fill="#4A525C" d="M199.53,46.679c-0.095-0.272-0.393-0.418-0.665-0.324
		c-0.274,0.095-0.419,0.392-0.324,0.666c0.095,0.272,0.392,0.418,0.665,0.322C199.48,47.25,199.625,46.952,199.53,46.679"/>
	<path id="path10810_1_" inkscape:connector-curvature="0" fill="#4A525C" d="M170.197,58.725c-0.095-0.272-0.392-0.418-0.665-0.324
		c-0.274,0.095-0.419,0.392-0.324,0.666c0.095,0.272,0.393,0.418,0.665,0.322C170.147,59.297,170.292,58.998,170.197,58.725"/>
	<path id="path10814_1_" inkscape:connector-curvature="0" fill="#4A525C" d="M172.967,58.384c-0.095-0.272-0.392-0.418-0.665-0.324
		c-0.274,0.095-0.419,0.392-0.324,0.666c0.095,0.272,0.393,0.418,0.665,0.322C172.917,58.955,173.062,58.657,172.967,58.384"/>
	<path id="path10818_1_" inkscape:connector-curvature="0" fill="#4A525C" d="M175.736,58.043c-0.095-0.272-0.393-0.418-0.665-0.324
		c-0.274,0.095-0.418,0.392-0.324,0.666c0.095,0.272,0.392,0.418,0.665,0.322C175.686,58.614,175.831,58.316,175.736,58.043"/>
	<path id="path10822_1_" inkscape:connector-curvature="0" fill="#4A525C" d="M178.505,57.702c-0.095-0.272-0.393-0.418-0.665-0.324
		c-0.274,0.095-0.419,0.392-0.324,0.666c0.095,0.272,0.392,0.418,0.665,0.322C178.455,58.273,178.6,57.975,178.505,57.702"/>
	<path id="path10826_1_" inkscape:connector-curvature="0" fill="#4A525C" d="M181.274,57.361c-0.095-0.272-0.393-0.418-0.665-0.324
		c-0.274,0.095-0.418,0.392-0.324,0.666c0.095,0.272,0.392,0.418,0.665,0.322C181.224,57.932,181.369,57.633,181.274,57.361"/>
	<path id="path10830_1_" inkscape:connector-curvature="0" fill="#4A525C" d="M184.043,57.02c-0.095-0.272-0.392-0.418-0.665-0.322
		c-0.274,0.094-0.418,0.392-0.324,0.665c0.095,0.272,0.393,0.418,0.666,0.322C183.993,57.591,184.138,57.292,184.043,57.02"/>
	<path id="path10834_1_" inkscape:connector-curvature="0" fill="#4A525C" d="M186.812,56.679c-0.095-0.272-0.392-0.418-0.665-0.322
		c-0.274,0.094-0.418,0.392-0.324,0.665c0.095,0.272,0.393,0.418,0.665,0.322C186.762,57.25,186.907,56.951,186.812,56.679"/>
	<path id="path10838_1_" inkscape:connector-curvature="0" fill="#4A525C" d="M189.582,56.338c-0.095-0.272-0.393-0.418-0.665-0.324
		c-0.274,0.095-0.418,0.392-0.324,0.666c0.095,0.272,0.392,0.418,0.666,0.322C189.532,56.909,189.677,56.61,189.582,56.338"/>
	<path id="path10842_1_" inkscape:connector-curvature="0" fill="#4A525C" d="M192.351,55.997c-0.095-0.272-0.392-0.418-0.665-0.324
		c-0.274,0.095-0.419,0.392-0.324,0.666c0.095,0.272,0.393,0.418,0.665,0.322C192.301,56.568,192.446,56.269,192.351,55.997"/>
	<path id="path10846_1_" inkscape:connector-curvature="0" fill="#4A525C" d="M195.12,55.655c-0.095-0.272-0.392-0.418-0.665-0.324
		c-0.274,0.095-0.418,0.392-0.324,0.666c0.095,0.272,0.393,0.418,0.666,0.322C195.07,56.226,195.215,55.928,195.12,55.655"/>
	<path id="path10850_1_" inkscape:connector-curvature="0" fill="#4A525C" d="M197.889,55.314c-0.095-0.272-0.392-0.418-0.665-0.324
		c-0.274,0.095-0.419,0.392-0.324,0.666c0.095,0.272,0.393,0.418,0.665,0.322C197.839,55.885,197.984,55.586,197.889,55.314"/>
	<path id="path10854_1_" inkscape:connector-curvature="0" fill="#4A525C" d="M200.658,54.972c-0.095-0.272-0.392-0.418-0.665-0.324
		c-0.274,0.095-0.419,0.394-0.324,0.666s0.393,0.418,0.665,0.322C200.608,55.544,200.753,55.245,200.658,54.972"/>
	<path id="path10858_1_" inkscape:connector-curvature="0" fill="#4A525C" d="M186.713,56.713c-0.075-0.219-0.314-0.334-0.532-0.259
		c-0.218,0.076-0.334,0.314-0.259,0.532c0.076,0.219,0.315,0.334,0.533,0.259C186.673,57.17,186.79,56.932,186.713,56.713"/>
	<path id="path10862_1_" inkscape:connector-curvature="0" fill="#4A525C" d="M186.337,53.948c-0.076-0.219-0.314-0.334-0.532-0.259
		c-0.219,0.076-0.334,0.314-0.259,0.532c0.076,0.219,0.314,0.334,0.533,0.259C186.297,54.405,186.412,54.167,186.337,53.948"/>
	<path id="path10866_1_" inkscape:connector-curvature="0" fill="#4A525C" d="M185.961,51.184c-0.075-0.219-0.314-0.334-0.533-0.259
		c-0.218,0.076-0.334,0.314-0.259,0.532c0.076,0.219,0.315,0.334,0.532,0.259C185.921,51.64,186.036,51.403,185.961,51.184"/>
	<path id="path10870_1_" inkscape:connector-curvature="0" fill="#4A525C" d="M185.585,48.419c-0.075-0.219-0.314-0.334-0.532-0.259
		c-0.218,0.076-0.334,0.314-0.259,0.532c0.076,0.219,0.315,0.334,0.533,0.259C185.545,48.876,185.661,48.637,185.585,48.419"/>
	<path id="path10874_1_" inkscape:connector-curvature="0" fill="#4A525C" d="M185.209,45.654c-0.076-0.219-0.314-0.334-0.533-0.259
		c-0.219,0.076-0.334,0.314-0.259,0.532c0.076,0.219,0.314,0.334,0.532,0.259C185.169,46.111,185.284,45.873,185.209,45.654"/>
	<path id="path10878_1_" inkscape:connector-curvature="0" fill="#4A525C" d="M189.483,56.372c-0.076-0.219-0.314-0.334-0.532-0.259
		c-0.219,0.076-0.334,0.314-0.259,0.532c0.076,0.219,0.314,0.334,0.533,0.259C189.443,56.828,189.558,56.591,189.483,56.372"/>
	<path id="path10882_1_" inkscape:connector-curvature="0" fill="#4A525C" d="M189.107,53.607c-0.076-0.219-0.314-0.334-0.532-0.259
		c-0.219,0.076-0.334,0.314-0.259,0.532c0.076,0.219,0.314,0.334,0.533,0.259C189.067,54.063,189.182,53.826,189.107,53.607"/>
	<path id="path10886_1_" inkscape:connector-curvature="0" fill="#4A525C" d="M188.73,50.843c-0.075-0.219-0.314-0.334-0.532-0.259
		c-0.219,0.076-0.334,0.314-0.259,0.532c0.076,0.219,0.314,0.334,0.533,0.259C188.69,51.299,188.805,51.061,188.73,50.843"/>
	<path id="path10890_1_" inkscape:connector-curvature="0" fill="#4A525C" d="M188.354,48.078c-0.075-0.219-0.314-0.334-0.533-0.259
		c-0.218,0.076-0.334,0.314-0.259,0.532c0.076,0.219,0.315,0.334,0.532,0.259C188.314,48.534,188.429,48.297,188.354,48.078"/>
	<path id="path10894_1_" inkscape:connector-curvature="0" fill="#4A525C" d="M187.978,45.313c-0.075-0.219-0.314-0.334-0.533-0.259
		c-0.219,0.076-0.334,0.314-0.259,0.532c0.076,0.219,0.314,0.334,0.532,0.259C187.938,45.769,188.053,45.532,187.978,45.313"/>
	<path id="path10898_1_" inkscape:connector-curvature="0" fill="#4A525C" d="M192.252,56.031c-0.075-0.219-0.314-0.334-0.532-0.259
		c-0.218,0.076-0.334,0.314-0.259,0.532c0.076,0.219,0.315,0.334,0.533,0.259C192.212,56.488,192.328,56.25,192.252,56.031"/>
	<path id="path10902_1_" inkscape:connector-curvature="0" fill="#4A525C" d="M191.876,53.266c-0.075-0.219-0.314-0.334-0.532-0.259
		c-0.219,0.076-0.334,0.314-0.259,0.532c0.076,0.219,0.315,0.334,0.533,0.259C191.836,53.722,191.951,53.485,191.876,53.266"/>
	<path id="path10906_1_" inkscape:connector-curvature="0" fill="#4A525C" d="M191.499,50.501c-0.075-0.219-0.314-0.334-0.532-0.259
		c-0.219,0.076-0.334,0.314-0.259,0.532c0.076,0.219,0.314,0.335,0.533,0.259C191.459,50.959,191.576,50.72,191.499,50.501"/>
	<path id="path10910_1_" inkscape:connector-curvature="0" fill="#4A525C" d="M191.123,47.737c-0.075-0.219-0.314-0.334-0.533-0.259
		c-0.218,0.076-0.334,0.314-0.259,0.532c0.076,0.219,0.315,0.334,0.532,0.259C191.083,48.194,191.199,47.955,191.123,47.737"/>
	<path id="path10914_1_" inkscape:connector-curvature="0" fill="#4A525C" d="M190.747,44.972c-0.076-0.219-0.314-0.334-0.533-0.259
		c-0.219,0.076-0.334,0.314-0.259,0.532c0.076,0.219,0.314,0.334,0.532,0.259C190.707,45.429,190.822,45.191,190.747,44.972"/>
	<path id="path10918_1_" inkscape:connector-curvature="0" fill="#4A525C" d="M195.021,55.689c-0.075-0.219-0.314-0.334-0.533-0.259
		c-0.219,0.076-0.334,0.314-0.259,0.532c0.076,0.219,0.314,0.335,0.532,0.259C194.981,56.147,195.097,55.908,195.021,55.689"/>
	<path id="path10922_1_" inkscape:connector-curvature="0" fill="#4A525C" d="M194.645,52.925c-0.076-0.219-0.314-0.334-0.533-0.259
		c-0.219,0.076-0.334,0.314-0.259,0.532c0.076,0.219,0.314,0.334,0.532,0.259C194.605,53.381,194.72,53.144,194.645,52.925"/>
	<path id="path10926_1_" inkscape:connector-curvature="0" fill="#4A525C" d="M194.268,50.16c-0.075-0.219-0.314-0.334-0.532-0.259
		c-0.218,0.076-0.334,0.314-0.259,0.532c0.076,0.219,0.315,0.334,0.533,0.259C194.228,50.616,194.343,50.379,194.268,50.16"/>
	<path id="path10930_1_" inkscape:connector-curvature="0" fill="#4A525C" d="M193.892,47.395c-0.075-0.219-0.314-0.334-0.532-0.259
		c-0.219,0.076-0.334,0.314-0.259,0.532c0.076,0.219,0.314,0.335,0.533,0.259C193.852,47.853,193.969,47.614,193.892,47.395"/>
	<path id="path10934_1_" inkscape:connector-curvature="0" fill="#4A525C" d="M193.516,44.631c-0.076-0.219-0.314-0.334-0.533-0.259
		s-0.334,0.314-0.259,0.532c0.076,0.219,0.315,0.334,0.532,0.259C193.476,45.087,193.591,44.85,193.516,44.631"/>
	<path id="path10938_1_" inkscape:connector-curvature="0" fill="#4A525C" d="M197.79,55.348c-0.075-0.219-0.314-0.334-0.532-0.259
		c-0.219,0.076-0.334,0.314-0.259,0.532c0.076,0.219,0.314,0.335,0.533,0.259C197.75,55.806,197.867,55.567,197.79,55.348"/>
	<path id="path10942_1_" inkscape:connector-curvature="0" fill="#4A525C" d="M197.414,52.584c-0.076-0.219-0.314-0.334-0.532-0.259
		c-0.219,0.076-0.334,0.314-0.259,0.532c0.076,0.219,0.314,0.334,0.533,0.259C197.374,53.04,197.489,52.803,197.414,52.584"/>
	<path id="path10946_1_" inkscape:connector-curvature="0" fill="#4A525C" d="M197.038,49.819c-0.075-0.219-0.314-0.334-0.533-0.259
		c-0.219,0.076-0.334,0.314-0.259,0.532c0.076,0.219,0.314,0.334,0.532,0.259C196.998,50.275,197.113,50.038,197.038,49.819"/>
	<path id="path10950_1_" inkscape:connector-curvature="0" fill="#4A525C" d="M196.661,47.054c-0.075-0.219-0.314-0.334-0.532-0.259
		c-0.218,0.076-0.334,0.314-0.259,0.532c0.076,0.219,0.315,0.334,0.533,0.259C196.621,47.512,196.738,47.273,196.661,47.054"/>
	<path id="path10954_1_" inkscape:connector-curvature="0" fill="#4A525C" d="M196.285,44.29c-0.076-0.219-0.314-0.334-0.533-0.259
		c-0.219,0.076-0.334,0.314-0.259,0.532c0.076,0.219,0.314,0.334,0.532,0.259C196.245,44.746,196.36,44.508,196.285,44.29"/>
	<path id="path10958_1_" inkscape:connector-curvature="0" fill="#4A525C" d="M171.739,50.125c-0.076-0.219-0.314-0.334-0.532-0.259
		c-0.219,0.076-0.334,0.314-0.259,0.532c0.076,0.219,0.314,0.334,0.533,0.259C171.699,50.581,171.814,50.344,171.739,50.125"/>
	<path id="path10962_1_" inkscape:connector-curvature="0" fill="#4A525C" d="M172.492,55.654c-0.075-0.219-0.314-0.334-0.532-0.259
		c-0.219,0.076-0.334,0.314-0.259,0.532c0.076,0.219,0.314,0.334,0.533,0.259C172.452,56.11,172.567,55.873,172.492,55.654"/>
	<path id="path10966_1_" inkscape:connector-curvature="0" fill="#4A525C" d="M172.115,52.889c-0.075-0.219-0.314-0.334-0.532-0.259
		c-0.218,0.076-0.334,0.314-0.259,0.532c0.076,0.219,0.315,0.334,0.533,0.259C172.075,53.347,172.191,53.108,172.115,52.889"/>
	<path id="path10970_1_" inkscape:connector-curvature="0" fill="#4A525C" d="M172.868,58.418c-0.076-0.219-0.314-0.334-0.533-0.259
		c-0.219,0.076-0.334,0.314-0.259,0.532c0.076,0.219,0.315,0.334,0.532,0.259C172.828,58.875,172.943,58.637,172.868,58.418"/>
	<path id="path10974_1_" inkscape:connector-curvature="0" fill="#4A525C" d="M174.508,49.784c-0.075-0.219-0.314-0.334-0.533-0.259
		c-0.219,0.076-0.334,0.314-0.259,0.532c0.076,0.219,0.314,0.334,0.532,0.259C174.468,50.24,174.583,50.002,174.508,49.784"/>
	<path id="path10978_1_" inkscape:connector-curvature="0" fill="#4A525C" d="M175.261,55.313c-0.075-0.219-0.314-0.334-0.533-0.259
		c-0.219,0.076-0.334,0.314-0.259,0.532c0.076,0.219,0.314,0.334,0.532,0.259C175.221,55.769,175.336,55.532,175.261,55.313"/>
	<path id="path10982_1_" inkscape:connector-curvature="0" fill="#4A525C" d="M174.884,52.548c-0.075-0.219-0.314-0.334-0.533-0.259
		c-0.219,0.076-0.334,0.314-0.259,0.532c0.076,0.219,0.314,0.335,0.532,0.259C174.844,53.005,174.961,52.767,174.884,52.548"/>
	<path id="path10986_1_" inkscape:connector-curvature="0" fill="#4A525C" d="M175.637,58.077c-0.075-0.219-0.314-0.334-0.532-0.259
		c-0.219,0.076-0.334,0.314-0.259,0.532c0.076,0.219,0.314,0.335,0.533,0.259C175.597,58.535,175.712,58.296,175.637,58.077"/>
	<path id="path10990_1_" inkscape:connector-curvature="0" fill="#4A525C" d="M177.277,49.442c-0.076-0.219-0.314-0.334-0.532-0.259
		c-0.219,0.076-0.334,0.314-0.259,0.532c0.076,0.219,0.314,0.334,0.533,0.259C177.237,49.899,177.352,49.661,177.277,49.442"/>
	<path id="path10994_1_" inkscape:connector-curvature="0" fill="#4A525C" d="M178.03,54.972c-0.075-0.219-0.314-0.334-0.533-0.259
		c-0.219,0.076-0.334,0.314-0.259,0.532c0.076,0.219,0.314,0.334,0.532,0.259C177.99,55.428,178.105,55.191,178.03,54.972"/>
	<path id="path10998_1_" inkscape:connector-curvature="0" fill="#4A525C" d="M177.653,52.207c-0.075-0.219-0.314-0.334-0.533-0.259
		c-0.219,0.076-0.334,0.314-0.259,0.532c0.076,0.219,0.314,0.335,0.532,0.259C177.613,52.665,177.728,52.426,177.653,52.207"/>
	<path id="path11002_1_" inkscape:connector-curvature="0" fill="#4A525C" d="M178.406,57.736c-0.076-0.219-0.314-0.334-0.533-0.259
		s-0.334,0.314-0.259,0.532c0.076,0.219,0.315,0.334,0.532,0.259C178.366,58.193,178.481,57.955,178.406,57.736"/>
	<path id="path11006_1_" inkscape:connector-curvature="0" fill="#4A525C" d="M180.046,49.101c-0.075-0.219-0.314-0.334-0.533-0.259
		c-0.219,0.076-0.334,0.314-0.259,0.532c0.076,0.219,0.314,0.335,0.532,0.259C180.006,49.559,180.123,49.32,180.046,49.101"/>
	<path id="path11010_1_" inkscape:connector-curvature="0" fill="#4A525C" d="M180.799,54.63c-0.075-0.219-0.314-0.334-0.533-0.259
		c-0.218,0.076-0.334,0.314-0.259,0.532c0.076,0.219,0.315,0.334,0.532,0.259C180.759,55.087,180.874,54.849,180.799,54.63"/>
	<path id="path11014_1_" inkscape:connector-curvature="0" fill="#4A525C" d="M180.423,51.866c-0.075-0.219-0.314-0.334-0.533-0.259
		c-0.219,0.076-0.334,0.314-0.259,0.532c0.076,0.219,0.314,0.334,0.532,0.259C180.383,52.322,180.498,52.085,180.423,51.866"/>
	<path id="path11018_1_" inkscape:connector-curvature="0" fill="#4A525C" d="M181.175,57.395c-0.076-0.219-0.314-0.334-0.533-0.259
		c-0.219,0.076-0.334,0.314-0.259,0.532c0.076,0.219,0.314,0.334,0.532,0.259C181.135,57.851,181.25,57.614,181.175,57.395"/>
	<path id="path11022_1_" inkscape:connector-curvature="0" fill="#4A525C" d="M182.816,48.76c-0.075-0.219-0.314-0.334-0.533-0.259
		c-0.219,0.076-0.334,0.314-0.259,0.532c0.076,0.219,0.314,0.335,0.532,0.259C182.776,49.218,182.892,48.979,182.816,48.76"/>
	<path id="path11026_1_" inkscape:connector-curvature="0" fill="#4A525C" d="M183.568,54.289c-0.075-0.219-0.314-0.334-0.533-0.259
		c-0.219,0.076-0.334,0.314-0.259,0.532c0.076,0.219,0.314,0.334,0.532,0.259C183.528,54.745,183.643,54.508,183.568,54.289"/>
	<path id="path11030_1_" inkscape:connector-curvature="0" fill="#4A525C" d="M183.192,51.525c-0.075-0.219-0.314-0.334-0.533-0.259
		c-0.218,0.076-0.334,0.314-0.259,0.532c0.076,0.219,0.315,0.334,0.532,0.259C183.152,51.981,183.267,51.743,183.192,51.525"/>
	<path id="path11034_1_" inkscape:connector-curvature="0" fill="#4A525C" d="M183.944,57.054c-0.075-0.219-0.314-0.334-0.532-0.259
		c-0.219,0.076-0.334,0.314-0.259,0.532c0.076,0.219,0.314,0.335,0.533,0.259C183.904,57.512,184.021,57.273,183.944,57.054"/>
	<path id="path11038_1_" inkscape:connector-curvature="0" fill="#4A525C" d="M167.329,59.101c-0.076-0.219-0.314-0.334-0.533-0.259
		c-0.219,0.076-0.334,0.314-0.259,0.532c0.076,0.219,0.315,0.334,0.532,0.259C167.289,59.557,167.404,59.32,167.329,59.101"/>
	<path id="path11042_1_" inkscape:connector-curvature="0" fill="#4A525C" d="M166.953,56.336c-0.075-0.219-0.314-0.334-0.533-0.259
		c-0.219,0.076-0.334,0.314-0.259,0.532c0.076,0.219,0.314,0.334,0.532,0.259C166.913,56.793,167.028,56.555,166.953,56.336"/>
	<path id="path11046_1_" inkscape:connector-curvature="0" fill="#4A525C" d="M166.577,53.571c-0.075-0.219-0.314-0.334-0.532-0.259
		c-0.218,0.076-0.334,0.314-0.259,0.532c0.076,0.219,0.315,0.334,0.533,0.259C166.537,54.029,166.653,53.79,166.577,53.571"/>
	<path id="path11050_1_" inkscape:connector-curvature="0" fill="#4A525C" d="M170.099,58.76c-0.076-0.219-0.314-0.334-0.533-0.259
		c-0.219,0.076-0.334,0.314-0.259,0.532c0.076,0.219,0.314,0.334,0.532,0.259C170.059,59.216,170.174,58.978,170.099,58.76"/>
	<path id="path11054_1_" inkscape:connector-curvature="0" fill="#4A525C" d="M169.722,55.995c-0.075-0.219-0.314-0.334-0.533-0.259
		c-0.218,0.076-0.334,0.314-0.259,0.532c0.076,0.219,0.315,0.334,0.532,0.259C169.682,56.451,169.797,56.214,169.722,55.995"/>
	<path id="path11058_1_" inkscape:connector-curvature="0" fill="#4A525C" d="M169.346,53.231c-0.075-0.219-0.314-0.334-0.532-0.259
		c-0.218,0.076-0.334,0.314-0.259,0.532c0.076,0.219,0.315,0.334,0.533,0.259C169.306,53.688,169.422,53.449,169.346,53.231"/>
	<path id="path11062_1_" inkscape:connector-curvature="0" fill="#4A525C" d="M164.56,59.442c-0.076-0.219-0.314-0.334-0.533-0.259
		c-0.219,0.076-0.334,0.314-0.259,0.532c0.076,0.219,0.315,0.334,0.532,0.259C164.52,59.899,164.635,59.661,164.56,59.442"/>
	<path id="path11066_1_" inkscape:connector-curvature="0" fill="#4A525C" d="M164.184,56.677c-0.075-0.219-0.314-0.334-0.532-0.259
		c-0.218,0.076-0.334,0.314-0.259,0.532c0.076,0.219,0.315,0.334,0.533,0.259C164.144,57.133,164.259,56.896,164.184,56.677"/>
	<path id="path11070_1_" inkscape:connector-curvature="0" fill="#4A525C" d="M199.431,46.713c-0.075-0.219-0.314-0.334-0.532-0.259
		c-0.219,0.076-0.334,0.314-0.259,0.532c0.076,0.219,0.314,0.335,0.533,0.259C199.391,47.171,199.506,46.932,199.431,46.713"/>
	<path id="path11074_1_" inkscape:connector-curvature="0" fill="#4A525C" d="M200.559,55.007c-0.075-0.219-0.314-0.334-0.533-0.259
		c-0.218,0.076-0.334,0.314-0.259,0.532c0.076,0.219,0.315,0.334,0.532,0.259C200.519,55.464,200.636,55.226,200.559,55.007"/>
	<path id="path11078_1_" inkscape:connector-curvature="0" fill="#4A525C" d="M200.183,52.242c-0.076-0.219-0.314-0.334-0.533-0.259
		c-0.219,0.076-0.334,0.314-0.259,0.532c0.076,0.219,0.314,0.334,0.532,0.259C200.143,52.699,200.258,52.461,200.183,52.242"/>
	<path id="path11082_1_" inkscape:connector-curvature="0" fill="#4A525C" d="M199.807,49.478c-0.075-0.219-0.314-0.334-0.532-0.259
		c-0.218,0.076-0.334,0.314-0.259,0.532c0.076,0.219,0.315,0.334,0.533,0.259C199.767,49.934,199.882,49.697,199.807,49.478"/>
	
		<path id="path11086_1_" inkscape:connector-curvature="0" fill="none" stroke="#808081" stroke-width="0.18" stroke-linecap="round" stroke-linejoin="round" stroke-miterlimit="10" d="
		M57.216,64.069c-0.047-0.295-0.325-0.495-0.62-0.446c-0.294,0.047-0.494,0.325-0.446,0.619c0.047,0.295,0.325,0.495,0.62,0.448
		C57.064,64.641,57.264,64.364,57.216,64.069z"/>
	
		<path id="path11090_1_" inkscape:connector-curvature="0" fill="none" stroke="#808081" stroke-width="0.18" stroke-linecap="round" stroke-linejoin="round" stroke-miterlimit="10" d="
		M63.549,64.197c-0.047-0.295-0.325-0.495-0.62-0.446c-0.294,0.047-0.494,0.325-0.446,0.619c0.047,0.295,0.325,0.495,0.62,0.448
		C63.397,64.769,63.597,64.492,63.549,64.197z"/>
	
		<path id="path11094_1_" inkscape:connector-curvature="0" fill="none" stroke="#808081" stroke-width="0.18" stroke-linecap="round" stroke-linejoin="round" stroke-miterlimit="10" d="
		M63.287,69.782c-0.047-0.295-0.325-0.495-0.62-0.446c-0.295,0.047-0.495,0.325-0.446,0.619c0.047,0.295,0.325,0.495,0.62,0.448
		C63.134,70.355,63.334,70.077,63.287,69.782z"/>
	
		<path id="path11098_1_" inkscape:connector-curvature="0" fill="none" stroke="#808081" stroke-width="0.18" stroke-linecap="round" stroke-linejoin="round" stroke-miterlimit="10" d="
		M56.952,69.638c-0.047-0.295-0.325-0.495-0.62-0.446c-0.294,0.047-0.494,0.325-0.446,0.619c0.047,0.295,0.325,0.495,0.62,0.448
		C56.8,70.211,57,69.933,56.952,69.638z"/>
	
		<path id="path11102_1_" inkscape:connector-curvature="0" fill="none" stroke="#808081" stroke-width="0.18" stroke-linecap="round" stroke-linejoin="round" stroke-miterlimit="10" d="
		M69.619,69.908c-0.047-0.295-0.325-0.495-0.62-0.446c-0.294,0.047-0.494,0.325-0.446,0.619c0.047,0.295,0.325,0.495,0.62,0.448
		C69.467,70.48,69.667,70.203,69.619,69.908z"/>
	
		<path id="path11106_1_" inkscape:connector-curvature="0" fill="none" stroke="#808081" stroke-width="0.18" stroke-linecap="round" stroke-linejoin="round" stroke-miterlimit="10" d="
		M75.95,70.015c-0.047-0.295-0.325-0.495-0.62-0.446c-0.294,0.047-0.494,0.325-0.446,0.619c0.047,0.295,0.325,0.495,0.62,0.448
		C75.798,70.587,75.998,70.31,75.95,70.015z"/>
	
		<path id="path11110_1_" inkscape:connector-curvature="0" fill="none" stroke="#808081" stroke-width="0.18" stroke-linecap="round" stroke-linejoin="round" stroke-miterlimit="10" d="
		M82.281,70.111c-0.047-0.295-0.325-0.495-0.62-0.446c-0.295,0.047-0.495,0.325-0.446,0.619c0.047,0.295,0.325,0.495,0.62,0.448
		C82.128,70.683,82.328,70.406,82.281,70.111z"/>
	
		<path id="path11114_1_" inkscape:connector-curvature="0" fill="none" stroke="#808081" stroke-width="0.116" stroke-linecap="round" stroke-linejoin="round" stroke-miterlimit="10" d="
		M98.308,44.39c-0.126-0.329-0.496-0.494-0.826-0.366c-0.329,0.126-0.493,0.496-0.366,0.825c0.126,0.33,0.496,0.494,0.825,0.368
		C98.27,45.089,98.434,44.719,98.308,44.39L98.308,44.39z"/>
	
		<path id="path11118_1_" inkscape:connector-curvature="0" fill="none" stroke="#808081" stroke-width="0.116" stroke-linecap="round" stroke-linejoin="round" stroke-miterlimit="10" d="
		M101.063,43.575c-0.126-0.329-0.496-0.494-0.826-0.368c-0.329,0.127-0.492,0.498-0.366,0.826c0.126,0.33,0.496,0.494,0.826,0.368
		C101.025,44.274,101.189,43.904,101.063,43.575z"/>
	
		<path id="path11122_1_" inkscape:connector-curvature="0" fill="none" stroke="#808081" stroke-width="0.116" stroke-linecap="round" stroke-linejoin="round" stroke-miterlimit="10" d="
		M101.923,46.955c-0.126-0.329-0.496-0.494-0.826-0.366c-0.329,0.126-0.493,0.496-0.366,0.825c0.126,0.33,0.496,0.494,0.826,0.368
		C101.885,47.654,102.049,47.285,101.923,46.955z"/>
	
		<path id="path11126_1_" inkscape:connector-curvature="0" fill="none" stroke="#808081" stroke-width="0.116" stroke-linecap="round" stroke-linejoin="round" stroke-miterlimit="10" d="
		M105.267,49.625c-0.069-0.18-0.271-0.269-0.45-0.2c-0.18,0.069-0.27,0.27-0.2,0.45c0.069,0.18,0.27,0.27,0.45,0.2
		C105.247,50.006,105.336,49.805,105.267,49.625z"/>
	
		<path id="path11130_1_" inkscape:connector-curvature="0" fill="none" stroke="#808081" stroke-width="0.116" stroke-linecap="round" stroke-linejoin="round" stroke-miterlimit="10" d="
		M104.682,46.139c-0.126-0.33-0.496-0.494-0.826-0.368c-0.329,0.127-0.494,0.496-0.366,0.826c0.126,0.33,0.496,0.494,0.825,0.368
		C104.644,46.838,104.808,46.468,104.682,46.139L104.682,46.139z"/>
	
		<path id="path11134_1_" inkscape:connector-curvature="0" fill="none" stroke="#808081" stroke-width="0.116" stroke-linecap="round" stroke-linejoin="round" stroke-miterlimit="10" d="
		M108.3,48.703c-0.126-0.329-0.496-0.494-0.826-0.366c-0.329,0.126-0.492,0.496-0.366,0.825c0.126,0.33,0.496,0.494,0.825,0.368
		C108.262,49.402,108.426,49.032,108.3,48.703L108.3,48.703z"/>
	
		<path id="path11138_1_" inkscape:connector-curvature="0" fill="none" stroke="#808081" stroke-width="0.116" stroke-linecap="round" stroke-linejoin="round" stroke-miterlimit="10" d="
		M109.484,52.617c-0.069-0.18-0.271-0.269-0.45-0.2c-0.18,0.069-0.27,0.271-0.2,0.45c0.069,0.18,0.27,0.27,0.45,0.2
		C109.464,52.998,109.553,52.797,109.484,52.617z"/>
	
		<path id="path11142_1_" inkscape:connector-curvature="0" fill="none" stroke="#808081" stroke-width="0.116" stroke-linecap="round" stroke-linejoin="round" stroke-miterlimit="10" d="
		M112.251,51.798c-0.069-0.18-0.271-0.269-0.45-0.2c-0.18,0.069-0.27,0.271-0.2,0.45c0.069,0.18,0.27,0.27,0.45,0.2
		C112.231,52.18,112.319,51.978,112.251,51.798z"/>
	
		<path id="path11146_1_" inkscape:connector-curvature="0" fill="none" stroke="#808081" stroke-width="0.116" stroke-linecap="round" stroke-linejoin="round" stroke-miterlimit="10" d="
		M113.701,55.609c-0.069-0.18-0.271-0.269-0.45-0.2c-0.18,0.069-0.27,0.271-0.2,0.45c0.069,0.18,0.27,0.27,0.45,0.2
		C113.681,55.991,113.77,55.789,113.701,55.609z"/>
	
		<path id="path11150_1_" inkscape:connector-curvature="0" fill="none" stroke="#808081" stroke-width="0.116" stroke-linecap="round" stroke-linejoin="round" stroke-miterlimit="10" d="
		M116.473,54.79c-0.069-0.18-0.271-0.269-0.45-0.2c-0.18,0.069-0.27,0.27-0.2,0.45c0.069,0.18,0.27,0.27,0.45,0.2
		C116.453,55.171,116.541,54.97,116.473,54.79z"/>
	
		<path id="path11154_1_" inkscape:connector-curvature="0" fill="none" stroke="#808081" stroke-width="0.116" stroke-linecap="round" stroke-linejoin="round" stroke-miterlimit="10" d="
		M117.919,58.602c-0.069-0.18-0.271-0.269-0.45-0.2c-0.18,0.069-0.27,0.27-0.2,0.45c0.069,0.18,0.27,0.27,0.45,0.2
		C117.899,58.983,117.987,58.782,117.919,58.602z"/>
	
		<path id="path11158_1_" inkscape:connector-curvature="0" fill="none" stroke="#808081" stroke-width="0.116" stroke-linecap="round" stroke-linejoin="round" stroke-miterlimit="10" d="
		M120.695,57.781c-0.069-0.18-0.271-0.27-0.45-0.2c-0.18,0.069-0.27,0.271-0.2,0.45c0.069,0.18,0.27,0.27,0.45,0.2
		C120.675,58.162,120.763,57.961,120.695,57.781z"/>
	
		<path id="path11162_1_" inkscape:connector-curvature="0" fill="none" stroke="#808081" stroke-width="0.116" stroke-linecap="round" stroke-linejoin="round" stroke-miterlimit="10" d="
		M122.136,61.594c-0.069-0.18-0.271-0.269-0.45-0.2c-0.18,0.069-0.27,0.271-0.2,0.45c0.069,0.18,0.27,0.27,0.45,0.2
		C122.116,61.976,122.204,61.774,122.136,61.594z"/>
	
		<path id="path11166_1_" inkscape:connector-curvature="0" fill="none" stroke="#808081" stroke-width="0.116" stroke-linecap="round" stroke-linejoin="round" stroke-miterlimit="10" d="
		M124.916,60.772c-0.069-0.18-0.271-0.269-0.45-0.2c-0.18,0.069-0.27,0.271-0.2,0.45c0.069,0.18,0.27,0.27,0.45,0.2
		C124.896,61.153,124.985,60.952,124.916,60.772z"/>
	
		<path id="path11170_1_" inkscape:connector-curvature="0" fill="none" stroke="#808081" stroke-width="0.116" stroke-linecap="round" stroke-linejoin="round" stroke-miterlimit="10" d="
		M112.726,36.45c-0.123-0.331-0.49-0.5-0.821-0.376c-0.331,0.122-0.5,0.49-0.378,0.82c0.124,0.331,0.491,0.5,0.821,0.378
		C112.679,37.149,112.848,36.782,112.726,36.45z"/>
	
		<path id="path11174_1_" inkscape:connector-curvature="0" fill="none" stroke="#808081" stroke-width="0.116" stroke-linecap="round" stroke-linejoin="round" stroke-miterlimit="10" d="
		M115.697,35.611c-0.123-0.331-0.49-0.5-0.821-0.378c-0.331,0.124-0.5,0.491-0.378,0.821c0.124,0.331,0.491,0.5,0.823,0.378
		C115.651,36.309,115.82,35.942,115.697,35.611z"/>
	
		<path id="path11178_1_" inkscape:connector-curvature="0" fill="none" stroke="#808081" stroke-width="0.116" stroke-linecap="round" stroke-linejoin="round" stroke-miterlimit="10" d="
		M116.073,38.884c-0.123-0.331-0.49-0.5-0.821-0.376c-0.331,0.122-0.5,0.49-0.378,0.82c0.124,0.331,0.491,0.5,0.821,0.378
		C116.027,39.583,116.196,39.216,116.073,38.884z"/>
	
		<path id="path11182_1_" inkscape:connector-curvature="0" fill="none" stroke="#808081" stroke-width="0.116" stroke-linecap="round" stroke-linejoin="round" stroke-miterlimit="10" d="
		M119.041,38.046c-0.123-0.331-0.49-0.5-0.821-0.378c-0.331,0.124-0.5,0.491-0.378,0.821c0.124,0.331,0.491,0.5,0.821,0.378
		C118.995,38.745,119.163,38.377,119.041,38.046z"/>
	
		<path id="path11186_1_" inkscape:connector-curvature="0" fill="none" stroke="#808081" stroke-width="0.116" stroke-linecap="round" stroke-linejoin="round" stroke-miterlimit="10" d="
		M119.661,41.492c-0.123-0.331-0.49-0.5-0.821-0.378c-0.331,0.124-0.5,0.491-0.378,0.821c0.124,0.331,0.491,0.5,0.821,0.378
		C119.614,42.191,119.783,41.824,119.661,41.492z"/>
	
		<path id="path11190_1_" inkscape:connector-curvature="0" fill="none" stroke="#808081" stroke-width="0.116" stroke-linecap="round" stroke-linejoin="round" stroke-miterlimit="10" d="
		M123.248,44.1c-0.123-0.331-0.49-0.5-0.821-0.378c-0.331,0.124-0.5,0.491-0.378,0.821c0.124,0.331,0.491,0.5,0.821,0.378
		C123.202,44.799,123.37,44.431,123.248,44.1z"/>
	
		<path id="path11194_1_" inkscape:connector-curvature="0" fill="none" stroke="#808081" stroke-width="0.116" stroke-linecap="round" stroke-linejoin="round" stroke-miterlimit="10" d="
		M122.623,40.655c-0.123-0.331-0.49-0.5-0.821-0.378c-0.331,0.124-0.5,0.491-0.378,0.821c0.124,0.331,0.491,0.5,0.823,0.378
		C122.577,41.354,122.746,40.986,122.623,40.655z"/>
	
		<path id="path11198_1_" inkscape:connector-curvature="0" fill="none" stroke="#808081" stroke-width="0.116" stroke-linecap="round" stroke-linejoin="round" stroke-miterlimit="10" d="
		M126.205,43.264c-0.123-0.331-0.49-0.5-0.821-0.378c-0.331,0.124-0.5,0.491-0.376,0.821c0.123,0.331,0.49,0.5,0.821,0.378
		C126.159,43.963,126.328,43.595,126.205,43.264z"/>
	
		<path id="path11202_1_" inkscape:connector-curvature="0" fill="none" stroke="#808081" stroke-width="0.116" stroke-linecap="round" stroke-linejoin="round" stroke-miterlimit="10" d="
		M127.432,47.143c-0.123-0.331-0.49-0.5-0.821-0.378c-0.331,0.124-0.5,0.491-0.376,0.821c0.123,0.331,0.49,0.5,0.82,0.378
		C127.386,47.841,127.555,47.474,127.432,47.143L127.432,47.143z"/>
	
		<path id="path11206_1_" inkscape:connector-curvature="0" fill="none" stroke="#808081" stroke-width="0.116" stroke-linecap="round" stroke-linejoin="round" stroke-miterlimit="10" d="
		M130.385,46.308c-0.123-0.331-0.49-0.5-0.821-0.378c-0.331,0.124-0.5,0.491-0.376,0.821c0.123,0.331,0.49,0.5,0.82,0.378
		C130.338,47.007,130.507,46.639,130.385,46.308L130.385,46.308z"/>
	
		<path id="path11210_1_" inkscape:connector-curvature="0" fill="none" stroke="#808081" stroke-width="0.116" stroke-linecap="round" stroke-linejoin="round" stroke-miterlimit="10" d="
		M131.345,50.286c-0.068-0.18-0.268-0.272-0.448-0.205c-0.181,0.066-0.272,0.267-0.206,0.448c0.068,0.18,0.268,0.272,0.448,0.205
		C131.32,50.667,131.413,50.466,131.345,50.286z"/>
	
		<path id="path11214_1_" inkscape:connector-curvature="0" fill="none" stroke="#808081" stroke-width="0.116" stroke-linecap="round" stroke-linejoin="round" stroke-miterlimit="10" d="
		M134.292,49.453c-0.068-0.18-0.268-0.272-0.448-0.205c-0.181,0.066-0.273,0.267-0.206,0.448c0.068,0.18,0.268,0.272,0.447,0.205
		C134.267,49.834,134.36,49.633,134.292,49.453z"/>
	
		<path id="path11218_1_" inkscape:connector-curvature="0" fill="none" stroke="#808081" stroke-width="0.116" stroke-linecap="round" stroke-linejoin="round" stroke-miterlimit="10" d="
		M135.53,53.328c-0.067-0.18-0.268-0.272-0.447-0.205c-0.181,0.066-0.273,0.267-0.206,0.448c0.067,0.18,0.268,0.272,0.447,0.205
		C135.505,53.71,135.598,53.508,135.53,53.328z"/>
	
		<path id="path11222_1_" inkscape:connector-curvature="0" fill="none" stroke="#808081" stroke-width="0.116" stroke-linecap="round" stroke-linejoin="round" stroke-miterlimit="10" d="
		M139.715,56.371c-0.068-0.18-0.268-0.272-0.448-0.206c-0.181,0.067-0.272,0.267-0.206,0.449c0.068,0.18,0.268,0.272,0.449,0.205
		C139.69,56.752,139.783,56.551,139.715,56.371z"/>
	
		<path id="path11226_1_" inkscape:connector-curvature="0" fill="none" stroke="#808081" stroke-width="0.116" stroke-linecap="round" stroke-linejoin="round" stroke-miterlimit="10" d="
		M138.471,52.497c-0.068-0.18-0.268-0.272-0.448-0.205c-0.181,0.066-0.272,0.267-0.206,0.448c0.068,0.18,0.268,0.272,0.448,0.205
		C138.446,52.878,138.539,52.677,138.471,52.497z"/>
	
		<path id="path11230_1_" inkscape:connector-curvature="0" fill="none" stroke="#808081" stroke-width="0.116" stroke-linecap="round" stroke-linejoin="round" stroke-miterlimit="10" d="
		M142.651,55.541c-0.067-0.18-0.267-0.272-0.449-0.206c-0.18,0.067-0.271,0.269-0.205,0.449c0.067,0.18,0.267,0.272,0.447,0.205
		C142.626,55.922,142.717,55.721,142.651,55.541z"/>
	
		<path id="path11234_1_" inkscape:connector-curvature="0" fill="none" stroke="#808081" stroke-width="0.116" stroke-linecap="round" stroke-linejoin="round" stroke-miterlimit="10" d="
		M128.466,29.473c-0.121-0.331-0.488-0.503-0.819-0.381c-0.333,0.121-0.502,0.488-0.381,0.82c0.12,0.331,0.488,0.501,0.819,0.38
		C128.416,30.172,128.587,29.804,128.466,29.473z"/>
	
		<path id="path11238_1_" inkscape:connector-curvature="0" fill="none" stroke="#808081" stroke-width="0.116" stroke-linecap="round" stroke-linejoin="round" stroke-miterlimit="10" d="
		M132.035,32.101c-0.121-0.331-0.488-0.503-0.819-0.381c-0.333,0.121-0.502,0.488-0.381,0.819c0.121,0.332,0.488,0.503,0.819,0.381
		C131.985,32.799,132.156,32.432,132.035,32.101z"/>
	
		<path id="path11242_1_" inkscape:connector-curvature="0" fill="none" stroke="#808081" stroke-width="0.116" stroke-linecap="round" stroke-linejoin="round" stroke-miterlimit="10" d="
		M135.604,34.728c-0.121-0.331-0.488-0.503-0.82-0.381c-0.331,0.121-0.501,0.488-0.38,0.82c0.12,0.331,0.488,0.501,0.819,0.38
		C135.554,35.427,135.725,35.059,135.604,34.728L135.604,34.728z"/>
	
		<path id="path11246_1_" inkscape:connector-curvature="0" fill="none" stroke="#808081" stroke-width="0.116" stroke-linecap="round" stroke-linejoin="round" stroke-miterlimit="10" d="
		M139.767,37.794c-0.121-0.331-0.488-0.503-0.819-0.381c-0.333,0.121-0.502,0.488-0.381,0.819c0.121,0.332,0.488,0.503,0.819,0.381
		C139.717,38.492,139.889,38.125,139.767,37.794z"/>
	
		<path id="path11250_1_" inkscape:connector-curvature="0" fill="none" stroke="#808081" stroke-width="0.116" stroke-linecap="round" stroke-linejoin="round" stroke-miterlimit="10" d="
		M142.342,37.104c-0.066-0.181-0.266-0.274-0.448-0.207c-0.18,0.065-0.274,0.265-0.207,0.446c0.066,0.181,0.266,0.274,0.447,0.207
		C142.315,37.485,142.408,37.285,142.342,37.104z"/>
	
		<path id="path11254_1_" inkscape:connector-curvature="0" fill="none" stroke="#808081" stroke-width="0.116" stroke-linecap="round" stroke-linejoin="round" stroke-miterlimit="10" d="
		M146.506,40.169c-0.066-0.181-0.266-0.274-0.446-0.207c-0.181,0.066-0.275,0.266-0.209,0.446c0.066,0.181,0.266,0.274,0.447,0.209
		C146.478,40.551,146.572,40.351,146.506,40.169z"/>
	
		<path id="path11258_1_" inkscape:connector-curvature="0" fill="none" stroke="#808081" stroke-width="0.116" stroke-linecap="round" stroke-linejoin="round" stroke-miterlimit="10" d="
		M143.658,40.958c-0.066-0.181-0.266-0.274-0.447-0.207c-0.18,0.066-0.274,0.266-0.207,0.446c0.066,0.181,0.266,0.274,0.448,0.209
		C143.631,41.34,143.724,41.14,143.658,40.958z"/>
	
		<path id="path11262_1_" inkscape:connector-curvature="0" fill="none" stroke="#808081" stroke-width="0.116" stroke-linecap="round" stroke-linejoin="round" stroke-miterlimit="10" d="
		M150.67,43.235c-0.066-0.181-0.266-0.274-0.446-0.207c-0.181,0.066-0.275,0.266-0.209,0.446c0.066,0.181,0.266,0.274,0.447,0.209
		C150.642,43.616,150.736,43.416,150.67,43.235z"/>
	
		<path id="path11266_1_" inkscape:connector-curvature="0" fill="none" stroke="#808081" stroke-width="0.116" stroke-linecap="round" stroke-linejoin="round" stroke-miterlimit="10" d="
		M147.822,44.024c-0.066-0.181-0.266-0.274-0.446-0.207c-0.181,0.066-0.275,0.266-0.209,0.446c0.066,0.181,0.266,0.274,0.448,0.209
		C147.795,44.405,147.889,44.205,147.822,44.024z"/>
	<path id="path11270_1_" inkscape:connector-curvature="0" fill="#20211F" d="M121.002,8.709l0.391,0.255"/>
	<path id="path11274_1_" inkscape:connector-curvature="0" fill="#20211F" d="M124.011,12.788l0.389,0.254l-0.055,0.228l0.146,0.18
		l0.144,0.062l0.15-0.033l0.059-0.195l-0.505-0.62l0.016-0.311l0.189-0.247l0.299-0.081l0.44,0.16l0.33,0.33l0.09,0.379
		l-0.074,0.218l-0.387-0.254l0.054-0.228l-0.146-0.18l-0.144-0.061l-0.15,0.031l-0.059,0.196l0.505,0.619l-0.016,0.311l-0.189,0.249
		l-0.299,0.08l-0.44-0.16l-0.33-0.33l-0.09-0.379L124.011,12.788L124.011,12.788z"/>
	<path id="path11278_1_" inkscape:connector-curvature="0" fill="#20211F" d="M119.712,10.687l0.936-1.434l0.39,0.255l-0.935,1.434
		L119.712,10.687L119.712,10.687z"/>
	<path id="path11282_1_" inkscape:connector-curvature="0" fill="#20211F" d="M123.296,10.206l0.228-4.152l1.787,0.098l-0.284,5.185
		L123.296,10.206L123.296,10.206z"/>
	<path id="path11286_1_" inkscape:connector-curvature="0" fill="#20211F" d="M121.002,8.71l0.129-2.345l1.772,0.096l-0.185,3.369
		l-1.325-0.865l-0.255,0.391l-0.391-0.255L121.002,8.71z"/>
	<path id="path11290_1_" inkscape:connector-curvature="0" fill="#20211F" d="M120.51,6.772l-1.787-0.098l-0.029,0.527l1.731,1.13
		L120.51,6.772z"/>
	<path id="path11294_1_" inkscape:connector-curvature="0" fill="#20211F" d="M123.663,12.182l-0.284,0.213l-0.355-0.019
		l-0.259-0.243l-0.042-0.353l0.194-0.298l0.34-0.104l0.326,0.14l0.161,0.316L123.663,12.182L123.663,12.182z M124.123,11.429
		l-0.065,0.099l-0.076-0.137l-0.355-0.309l-0.461-0.09l-0.445,0.154l-0.309,0.354l-0.09,0.462l0.154,0.444l0.355,0.309l0.394,0.091
		l-0.08,0.122l0.391,0.255l0.979-1.499L124.123,11.429z"/>
	<path id="path11298_1_" inkscape:connector-curvature="0" fill="#20211F" d="M121.946,11.061l-0.284,0.213l-0.355-0.019
		l-0.259-0.243l-0.042-0.353l0.194-0.298l0.34-0.103l0.326,0.139l0.161,0.316L121.946,11.061L121.946,11.061z M122.719,9.83
		l-0.378,0.578l-0.076-0.137l-0.355-0.309l-0.461-0.09l-0.445,0.154l-0.309,0.355l-0.089,0.461l0.152,0.444l0.355,0.309l0.394,0.093
		l-0.079,0.121l0.391,0.255l1.29-1.978L122.719,9.83L122.719,9.83z"/>
	<path id="path11302_1_" inkscape:connector-curvature="0" fill="#20211F" d="M119.686,9.586l-0.284,0.213l-0.355-0.019
		l-0.259-0.243l-0.042-0.353l0.194-0.298l0.34-0.104l0.326,0.14l0.161,0.316L119.686,9.586L119.686,9.586z M120.459,8.355
		l-0.378,0.578l-0.076-0.137l-0.355-0.309l-0.461-0.09l-0.445,0.154l-0.309,0.355l-0.089,0.461l0.152,0.444l0.355,0.309l0.394,0.093
		l-0.079,0.121l0.391,0.255l1.29-1.978L120.459,8.355L120.459,8.355z"/>
	<path id="path11306_1_" inkscape:connector-curvature="0" fill="#20211F" d="M117.969,8.466l-0.284,0.213L117.33,8.66l-0.259-0.243
		l-0.042-0.353l0.194-0.298l0.34-0.103l0.326,0.139l0.161,0.316L117.969,8.466L117.969,8.466z M118.429,7.713l-0.065,0.099
		l-0.076-0.137l-0.355-0.309l-0.461-0.09l-0.445,0.154l-0.309,0.355l-0.09,0.461l0.154,0.444l0.355,0.309l0.394,0.093l-0.079,0.121
		l0.39,0.255l0.979-1.499L118.429,7.713L118.429,7.713z"/>
	<path id="path11310_1_" inkscape:connector-curvature="0" fill="#FFFFFF" d="M101.324,28.994c-1.168-0.884,3.644-4.814,5.97-3.666
		c0.075,0.037-1.284,0.751-1.284,0.751s-1.122,0.379-2.239,0.908c-0.615,0.29-0.655,0.531-0.551,0.796
		C103.308,28.006,101.324,28.994,101.324,28.994"/>
	
		<path id="path11314_1_" inkscape:connector-curvature="0" fill="none" stroke="#252223" stroke-width="0.009" stroke-miterlimit="10" d="
		M101.324,28.994c-1.168-0.884,3.644-4.814,5.97-3.666c0.075,0.037-1.284,0.751-1.284,0.751s-1.122,0.379-2.239,0.908
		c-0.615,0.29-0.655,0.531-0.551,0.796C103.308,28.006,101.324,28.994,101.324,28.994L101.324,28.994z"/>
	<path id="path11318_1_" inkscape:connector-curvature="0" fill="#EEEC92" d="M88.697,40.024c-0.486-0.119-0.871,0.05-1.504,0.374
		c-1.524,0.779-3.449,1.771-4.562,2.351c-0.724,0.376-0.535,0.545-0.221,0.773c0.252,0.182,0.77,0.391,0.82,0.425l6.641-3.507
		C89.561,40.325,89.137,40.131,88.697,40.024"/>
	
		<path id="path11322_1_" inkscape:connector-curvature="0" fill="none" stroke="#211E1B" stroke-width="0.096" stroke-miterlimit="10" d="
		M88.697,40.024c-0.486-0.119-0.871,0.05-1.504,0.374c-1.524,0.779-3.449,1.771-4.562,2.351c-0.724,0.376-0.535,0.545-0.221,0.773
		c0.252,0.182,0.77,0.391,0.82,0.425l6.641-3.507C89.561,40.325,89.137,40.131,88.697,40.024L88.697,40.024z"/>
	
		<pattern  id="path11352_2_" xlink:href="#pattern38205" patternTransform="matrix(0.3448 -0.0052 0.0052 0.3448 -12143.3232 1392.1405)">
	</pattern>
	<path id="path11352_1_" inkscape:connector-curvature="0" fill="url(#path11352_2_)" d="M89.833,40.439l-6.641,3.507
		c0.591,0.391,0.876,0.636,1.656,1.082c0.866,0.496,1.225,0.276,1.225,0.276c0.481-0.235,3.93-2.165,4.544-2.496
		c1.78-0.957,1.595-1.226,0.206-1.88C90.532,40.792,90.413,40.695,89.833,40.439"/>
	
		<path id="path11356_1_" inkscape:connector-curvature="0" fill="none" stroke="#000000" stroke-width="0.014" stroke-linecap="round" stroke-linejoin="round" stroke-miterlimit="10" d="
		M89.833,40.439l-6.641,3.507c0.591,0.391,0.876,0.636,1.656,1.082c0.866,0.496,1.225,0.276,1.225,0.276
		c0.481-0.235,3.93-2.165,4.544-2.496c1.78-0.957,1.595-1.226,0.206-1.88C90.532,40.792,90.413,40.695,89.833,40.439L89.833,40.439z
		"/>
	<path id="path11360_1_" inkscape:connector-curvature="0" d="M87.86,42.463l1.119-0.594l0.427,0.008l0.374,0.241l0.11,0.311
		l-0.125,0.306l-3.207,1.753l-0.426-0.009l-0.375-0.241l-0.109-0.31l0.125-0.308L87.86,42.463L87.86,42.463z"/>
	
		<path id="path11364_1_" inkscape:connector-curvature="0" fill="none" stroke="#000000" stroke-width="0.219" stroke-linecap="round" stroke-linejoin="round" stroke-miterlimit="10" d="
		M87.86,42.463l1.119-0.594l0.427,0.008l0.374,0.241l0.11,0.311l-0.125,0.306l-3.207,1.753l-0.426-0.009l-0.375-0.241l-0.109-0.31
		l0.125-0.308L87.86,42.463"/>
	
		<path id="path11368_1_" inkscape:connector-curvature="0" fill="none" stroke="#000000" stroke-width="0.219" stroke-linecap="round" stroke-linejoin="round" stroke-miterlimit="10" d="
		M87.674,42.12l1.175-0.619l0.354-0.056l0.501,0.143l0.371,0.27l0.158,0.266l0.049,0.312l-0.065,0.311l-0.17,0.26l-0.22,0.169
		l-3.139,1.68l-0.354,0.056l-0.501-0.143l-0.37-0.27l-0.159-0.266l-0.05-0.312l0.066-0.311l0.17-0.26l0.22-0.169L87.674,42.12"/>
	<path id="path11372_1_" inkscape:connector-curvature="0" fill="#EEEC92" d="M117.246,24.776c-0.455-0.115-0.794,0.049-1.346,0.365
		c-1.329,0.761-3.009,1.731-3.98,2.296c-0.631,0.368-0.444,0.532-0.138,0.755c0.247,0.179,0.514,0.344,0.564,0.376l5.818-3.439
		C117.87,25.018,117.659,24.881,117.246,24.776"/>
	
		<path id="path11376_1_" inkscape:connector-curvature="0" fill="none" stroke="#211E1B" stroke-width="0.096" stroke-miterlimit="10" d="
		M117.246,24.776c-0.455-0.115-0.794,0.049-1.346,0.365c-1.329,0.761-3.009,1.731-3.98,2.296c-0.631,0.368-0.444,0.532-0.138,0.755
		c0.247,0.179,0.514,0.344,0.564,0.376l5.818-3.439C117.87,25.018,117.659,24.881,117.246,24.776L117.246,24.776z"/>
	
		<pattern  id="path11406_2_" xlink:href="#pattern38196" patternTransform="matrix(0.3448 -0.0052 0.0052 0.3448 -12114.9648 1407.4359)">
	</pattern>
	<path id="path11406_1_" inkscape:connector-curvature="0" fill="url(#path11406_2_)" d="M118.192,25.143l-5.846,3.411
		c0.575,0.381,1.047,0.675,1.8,1.111c0.837,0.486,1.147,0.27,1.147,0.27c0.42-0.229,3.415-2.115,3.95-2.438
		c1.55-0.936,1.356-1.199,0.029-1.838C118.993,25.526,118.745,25.395,118.192,25.143"/>
	
		<path id="path11410_1_" inkscape:connector-curvature="0" fill="none" stroke="#000000" stroke-width="0.014" stroke-linecap="round" stroke-linejoin="round" stroke-miterlimit="10" d="
		M118.192,25.143l-5.846,3.411c0.575,0.381,1.047,0.675,1.8,1.111c0.837,0.486,1.147,0.27,1.147,0.27
		c0.42-0.229,3.415-2.115,3.95-2.438c1.55-0.936,1.356-1.199,0.029-1.838C118.993,25.526,118.745,25.395,118.192,25.143z"/>
	<path id="path11414_1_" inkscape:connector-curvature="0" d="M116.687,27.159l0.975-0.58l0.391,0.008l0.364,0.236l0.126,0.304
		l-0.088,0.3l-2.79,1.711l-0.391-0.009l-0.364-0.235l-0.126-0.304l0.088-0.3L116.687,27.159L116.687,27.159z"/>
	
		<path id="path11418_1_" inkscape:connector-curvature="0" fill="none" stroke="#000000" stroke-width="0.208" stroke-linecap="round" stroke-linejoin="round" stroke-miterlimit="10" d="
		M116.687,27.159l0.975-0.58l0.391,0.008l0.364,0.236l0.126,0.304l-0.088,0.3l-2.79,1.711l-0.391-0.009l-0.364-0.235l-0.126-0.304
		l0.088-0.3L116.687,27.159"/>
	
		<path id="path11422_1_" inkscape:connector-curvature="0" fill="none" stroke="#000000" stroke-width="0.208" stroke-linecap="round" stroke-linejoin="round" stroke-miterlimit="10" d="
		M116.487,26.824l1.024-0.605l0.32-0.054l0.471,0.139l0.362,0.264l0.168,0.26l0.071,0.306l-0.033,0.304l-0.134,0.254l-0.187,0.165
		l-2.733,1.641l-0.32,0.055l-0.471-0.139l-0.362-0.265l-0.168-0.26l-0.072-0.305l0.034-0.305l0.134-0.254l0.187-0.165
		L116.487,26.824"/>
	<path id="path11426_1_" inkscape:connector-curvature="0" fill="#EEEC92" d="M103.304,32.081c-0.467-0.116-0.826,0.05-1.41,0.369
		c-1.409,0.768-3.19,1.748-4.22,2.319c-0.669,0.371-0.481,0.539-0.171,0.762c0.249,0.181,0.51,0.271,0.56,0.304l6.131-3.375
		C103.894,32.347,103.728,32.187,103.304,32.081"/>
	
		<path id="path11430_1_" inkscape:connector-curvature="0" fill="none" stroke="#211E1B" stroke-width="0.096" stroke-miterlimit="10" d="
		M103.304,32.081c-0.467-0.116-0.826,0.05-1.41,0.369c-1.409,0.768-3.19,1.748-4.22,2.319c-0.669,0.371-0.481,0.539-0.171,0.762
		c0.249,0.181,0.51,0.271,0.56,0.304l6.131-3.375C103.894,32.347,103.728,32.187,103.304,32.081L103.304,32.081z"/>
	
		<pattern  id="path11460_2_" xlink:href="#pattern38187" patternTransform="matrix(0.3448 -0.0052 0.0052 0.3448 -12128.9863 1400.1001)">
	</pattern>
	<path id="path11460_1_" inkscape:connector-curvature="0" fill="url(#path11460_2_)" d="M104.17,32.479l-6.222,3.304
		c0.571,0.4,1.114,0.756,1.866,1.217c0.835,0.511,1.17,0.303,1.17,0.303c0.451-0.22,3.68-2.044,4.255-2.355
		c1.668-0.904,1.485-1.174,0.15-1.854C105.022,32.907,104.639,32.704,104.17,32.479"/>
	
		<path id="path11464_1_" inkscape:connector-curvature="0" fill="none" stroke="#000000" stroke-width="0.014" stroke-linecap="round" stroke-linejoin="round" stroke-miterlimit="10" d="
		M104.17,32.479l-6.222,3.304c0.571,0.4,1.114,0.756,1.866,1.217c0.835,0.511,1.17,0.303,1.17,0.303
		c0.451-0.22,3.68-2.044,4.255-2.355c1.668-0.904,1.485-1.174,0.15-1.854C105.022,32.907,104.639,32.704,104.17,32.479z"/>
	<path id="path11468_1_" inkscape:connector-curvature="0" d="M102.611,34.538l1.049-0.56l0.405,0.019l0.362,0.247l0.111,0.31
		l-0.111,0.3l-3.004,1.652l-0.405-0.019l-0.362-0.247l-0.11-0.309l0.11-0.301L102.611,34.538L102.611,34.538z"/>
	
		<path id="path11472_1_" inkscape:connector-curvature="0" fill="none" stroke="#000000" stroke-width="0.213" stroke-linecap="round" stroke-linejoin="round" stroke-miterlimit="10" d="
		M102.611,34.538l1.049-0.56l0.405,0.019l0.362,0.247l0.111,0.31l-0.111,0.3l-3.004,1.652l-0.405-0.019l-0.362-0.247l-0.11-0.309
		l0.11-0.301L102.611,34.538"/>
	
		<path id="path11476_1_" inkscape:connector-curvature="0" fill="none" stroke="#000000" stroke-width="0.213" stroke-linecap="round" stroke-linejoin="round" stroke-miterlimit="10" d="
		M102.426,34.194l1.101-0.583l0.335-0.047l0.48,0.154l0.357,0.276l0.156,0.266l0.055,0.31l-0.054,0.306l-0.156,0.252l-0.205,0.161
		l-2.94,1.584l-0.335,0.046l-0.48-0.153l-0.357-0.276l-0.156-0.266l-0.055-0.311l0.054-0.305l0.156-0.254l0.204-0.161
		L102.426,34.194"/>
	<path id="path11480_1_" inkscape:connector-curvature="0" fill="#EEEC92" d="M86.891,44.194c-1.449-2.359-3.925-3.526-5.942-4.719
		l3.13-1.399c2.679,1.581,3.861,1.899,5.455,4.494L86.891,44.194L86.891,44.194z"/>
	
		<path id="path11484_1_" inkscape:connector-curvature="0" fill="none" stroke="#211E1B" stroke-width="0.096" stroke-miterlimit="10" d="
		M86.891,44.194c-1.449-2.359-3.925-3.526-5.942-4.719l3.13-1.399c2.679,1.581,3.861,1.899,5.455,4.494L86.891,44.194L86.891,44.194
		z"/>
	<path id="path11488_1_" inkscape:connector-curvature="0" fill="#EEEC92" d="M101.127,36.179c-1.449-2.359-2.885-3.811-4.902-5.003
		l2.794-1.66c2.677,1.581,3.158,2.444,4.751,5.039L101.127,36.179z"/>
	
		<path id="path11492_1_" inkscape:connector-curvature="0" fill="none" stroke="#211E1B" stroke-width="0.096" stroke-miterlimit="10" d="
		M101.127,36.179c-1.449-2.359-2.885-3.811-4.902-5.003l2.794-1.66c2.677,1.581,3.158,2.444,4.751,5.039L101.127,36.179z"/>
	<path id="path11496_1_" inkscape:connector-curvature="0" fill="#EEEC92" d="M115.371,28.695c-1.449-2.359-4.77-3.747-6.787-4.94
		l2.861-1.73c2.677,1.58,4.975,2.451,6.569,5.046L115.371,28.695L115.371,28.695z"/>
	
		<path id="path11500_1_" inkscape:connector-curvature="0" fill="none" stroke="#211E1B" stroke-width="0.096" stroke-miterlimit="10" d="
		M115.371,28.695c-1.449-2.359-4.77-3.747-6.787-4.94l2.861-1.73c2.677,1.58,4.975,2.451,6.569,5.046L115.371,28.695L115.371,28.695
		z"/>
</g>
</svg>
