<!-- Generator: Adobe Illustrator 17.0.2, SVG Export Plug-In  -->
<svg version="1.1"
	 xmlns="http://www.w3.org/2000/svg" xmlns:xlink="http://www.w3.org/1999/xlink" xmlns:a="http://ns.adobe.com/AdobeSVGViewerExtensions/3.0/"
	 x="0px" y="0px" width="212.445px" height="89.925px" viewBox="0 0 212.445 89.925" enable-background="new 0 0 212.445 89.925"
	 xml:space="preserve">
<defs>
	
		<pattern  x="-95.52" y="273.475" width="1488.188" height="1052.363" patternUnits="userSpaceOnUse" id="pattern37903" viewBox="0 -1052.363 1488.188 1052.363" overflow="visible">
		<g>
			<polygon fill="none" points="0,0 1488.188,0 1488.188,-1052.363 0,-1052.363 			"/>
		</g>
	</pattern>
	
		<pattern  x="-95.52" y="273.475" width="1488.188" height="1052.363" patternUnits="userSpaceOnUse" id="pattern37912" viewBox="0 -1052.363 1488.188 1052.363" overflow="visible">
		<g>
			<polygon fill="none" points="0,0 1488.188,0 1488.188,-1052.363 0,-1052.363 			"/>
		</g>
	</pattern>
	
		<pattern  x="-95.52" y="273.475" width="1488.188" height="1052.363" patternUnits="userSpaceOnUse" id="pattern37921" viewBox="0 -1052.363 1488.188 1052.363" overflow="visible">
		<g>
			<polygon fill="none" points="0,0 1488.188,0 1488.188,-1052.363 0,-1052.363 			"/>
		</g>
	</pattern>
</defs>
<g id="g46047_1_">
	<path id="path11504_1_" inkscape:connector-curvature="0" fill="#005BA7" d="M187.967,10.015c-3.054-1.52-1.945,1.058-2.961,13.232
		c-0.325,3.893-3.503,5.87-8.382,7.809c-6.64,2.64-7.757,1.141-37.117-10.145c0,0-0.892-2.417-3.778-10.544
		c-2.909-8.194-2.059-7.062-8.38-10.019c-3.281-1.534-1.642,2.316-2.189,6.521c0,0,2.373-1.871,4.673,1.367
		c2.3,3.239,5.649,16.775,5.649,16.775s15.39,7.868,25.25,10.378c9.859,2.51,14.179,4.081,18.035,1.978
		c3.855-2.105,9.136-4.64,10.522-7.73c1.385-3.09,0.868-10.244,0.61-13.719C189.64,12.445,187.967,10.015,187.967,10.015"/>
	
		<path id="path11508_1_" inkscape:connector-curvature="0" fill="none" stroke="#252223" stroke-width="0.009" stroke-miterlimit="10" d="
		M187.967,10.015c-3.054-1.52-1.945,1.058-2.961,13.232c-0.325,3.893-3.503,5.87-8.382,7.809c-6.64,2.64-7.757,1.141-37.117-10.145
		c0,0-0.892-2.417-3.778-10.544c-2.909-8.194-2.059-7.062-8.38-10.019c-3.281-1.534-1.642,2.316-2.189,6.521
		c0,0,2.373-1.871,4.673,1.367c2.3,3.239,5.649,16.775,5.649,16.775s15.39,7.868,25.25,10.378c9.859,2.51,14.179,4.081,18.035,1.978
		c3.855-2.105,9.136-4.64,10.522-7.73c1.385-3.09,0.868-10.244,0.61-13.719C189.64,12.445,187.967,10.015,187.967,10.015
		L187.967,10.015z"/>
	<path id="path11512_1_" inkscape:connector-curvature="0" fill="#005BA7" d="M3.569,54.595c0.234-1.72,1.391-2.301,4.038-2.891
		c0,0,0.168,0.057,1.539-0.101c5.397-0.624,20.961-0.655,45.094-4.964c17.65-3.15,23.148-3.368,42.588-15.045
		c23.465-14.096,26.227-17.264,27.115-24.091c0.545-4.205-1.092-8.055,2.189-6.521c6.321,2.956,5.47,1.825,8.379,10.019
		c2.885,8.126,3.779,10.544,3.779,10.544c31.403,13.13,33.288,13.532,40.88,9.989c4.757-2.22,6.695-4.017,7.019-7.91
		c1.016-12.175-0.091-14.751,2.962-13.232c3.469,1.726,5.2,2.357,5.759,4.244c1.107,3.736,2.639,8.085,3.916,10.749
		c1.274,2.668,2.571,4.497,3.756,7.993c0.831,2.453,1.804,6.558,1.804,6.558c0.522,3.671,1.626,10.443,1.135,14.675
		c-0.371,3.205-0.484,4.79-0.484,4.79l-4.29,2.76l-71.633,6.684l-45.646,8.25c0,0-44.417-2.405-45.546-3.228
		c-1.133-0.822-30.298-9.895-30.298-9.895l-5.655-4.953L3.569,54.595L3.569,54.595z"/>
	
		<path id="path11516_1_" inkscape:connector-curvature="0" fill="none" stroke="#252223" stroke-width="0.009" stroke-miterlimit="10" d="
		M3.569,54.595c0.234-1.72,1.391-2.301,4.038-2.891c0,0,0.168,0.057,1.539-0.101c5.397-0.624,20.961-0.655,45.094-4.964
		c17.65-3.15,23.148-3.368,42.588-15.045c23.465-14.096,26.227-17.264,27.115-24.091c0.545-4.205-1.092-8.055,2.189-6.521
		c6.321,2.956,5.47,1.825,8.379,10.019c2.885,8.126,3.779,10.544,3.779,10.544c31.403,13.13,33.288,13.532,40.88,9.989
		c4.757-2.22,6.695-4.017,7.019-7.91c1.016-12.175-0.091-14.751,2.962-13.232c3.469,1.726,5.2,2.357,5.759,4.244
		c1.107,3.736,2.639,8.085,3.916,10.749c1.274,2.668,2.571,4.497,3.756,7.993c0.831,2.453,1.804,6.558,1.804,6.558
		c0.522,3.671,1.626,10.443,1.135,14.675c-0.371,3.205-0.484,4.79-0.484,4.79l-4.29,2.76l-71.633,6.684l-45.646,8.25
		c0,0-44.417-2.405-45.546-3.228c-1.133-0.822-30.298-9.895-30.298-9.895l-5.655-4.953L3.569,54.595L3.569,54.595z"/>
	
		<path id="path11520_1_" inkscape:connector-curvature="0" fill="none" stroke="#060A03" stroke-width="0.152" stroke-linecap="round" stroke-linejoin="round" d="
		M124.093,3.057c0,0,2.441,0.946,3.225,1.494c0.785,0.547-0.356,4.415-1.225,6.584c-1.361,3.396-3.795,7.191-3.795,7.191
		l-2.505-1.336"/>
	<path id="path11524_1_" inkscape:connector-curvature="0" fill="#FAFBFC" d="M106.898,70.706c2.279-3.613,2.094-4.865-1.041-7.057
		c-2.501-1.75-21.698-16.284-23.36-17.542c-0.218-0.375-0.186-0.829-0.101-1.735l0.018-0.181c0.085-0.929,0.125-1.015,0.331-1.131
		c0.399-0.224,0.789-0.446,1.177-0.667c1.669-0.949,3.244-1.844,5.239-2.771c0.081-0.039,0.195-0.056,0.329-0.057
		c0.402-0.006,0.995,0.124,1.495,0.234c0.655,0.145,1.325,0.293,1.954,0.284c0.425-0.008,0.832-0.085,1.205-0.286
		c0.339-0.182,0.622-0.325,0.89-0.46c0.467-0.234,0.908-0.456,1.505-0.821c0.97-0.592,1.179-1.558,1.331-2.262
		c0.14-0.646,0.23-0.994,0.585-1.211c1.982-1.213,3.17-1.891,4.706-2.689c0.284-0.148,0.561-0.207,0.84-0.211
		c0.469-0.008,0.944,0.144,1.463,0.31c0.514,0.165,1.069,0.342,1.637,0.334c0.342-0.005,0.691-0.079,1.036-0.264
		c1.527-0.817,1.959-1.058,3.051-1.736c0.928-0.575,1.063-1.534,1.16-2.234c0.094-0.661,0.159-0.947,0.441-1.114
		c0.97-0.574,2.098-1.312,3.092-1.964c0.505-0.33,0.964-0.63,1.328-0.859l0.708-0.446c4.086-2.579,6.786-4.282,7.873-4.897
		c0.115-0.065,0.228-0.132,0.341-0.2c0.482-0.29,0.951-0.571,1.735-0.584c0.718-0.01,1.698,0.204,3.192,0.841
		c2.201,0.939,2.962,1.225,3.517,1.434c0.407,0.153,0.676,0.254,1.357,0.56c1.384,0.62,2.076,1.254,2.779,3.573
		c0.295,0.974,0.595,1.879,0.941,2.928c0.241,0.729,0.511,1.544,0.83,2.535c0.802,2.491,1.45,3.259,5.522,4.505
		c4.824,1.475,19.515,5.19,25.085,6.375c0,0-8.747,9.342-10.456,11.104s-2.853,2.55-6.886,3.575
		c-4.033,1.025-25.72,7.523-28.409,8.239c-2.687,0.715-9.533,2.832-10.65,3.246c-1.63,0.604-4.146,1.8-4.964,2.369
		C108.033,70.946,106.898,70.706,106.898,70.706"/>
	<path id="path11528_1_" inkscape:connector-curvature="0" fill="none" stroke="#272321" stroke-width="0.423" d="M106.898,70.706
		c2.279-3.613,2.094-4.865-1.041-7.057c-2.501-1.75-21.698-16.284-23.36-17.542c-0.218-0.375-0.186-0.829-0.101-1.735l0.018-0.181
		c0.085-0.929,0.125-1.015,0.331-1.131c0.399-0.224,0.789-0.446,1.177-0.667c1.669-0.949,3.244-1.844,5.239-2.771
		c0.081-0.039,0.195-0.056,0.329-0.057c0.402-0.006,0.995,0.124,1.495,0.234c0.655,0.145,1.325,0.293,1.954,0.284
		c0.425-0.008,0.832-0.085,1.205-0.286c0.339-0.182,0.622-0.325,0.89-0.46c0.467-0.234,0.908-0.456,1.505-0.821
		c0.97-0.592,1.179-1.558,1.331-2.262c0.14-0.646,0.23-0.994,0.585-1.211c1.982-1.213,3.17-1.891,4.706-2.689
		c0.284-0.148,0.561-0.207,0.84-0.211c0.469-0.008,0.944,0.144,1.463,0.31c0.514,0.165,1.069,0.342,1.637,0.334
		c0.342-0.005,0.691-0.079,1.036-0.264c1.527-0.817,1.959-1.058,3.051-1.736c0.928-0.575,1.063-1.534,1.16-2.234
		c0.094-0.661,0.159-0.947,0.441-1.114c0.97-0.574,2.098-1.312,3.092-1.964c0.505-0.33,0.964-0.63,1.328-0.859l0.708-0.446
		c4.086-2.579,6.786-4.282,7.873-4.897c0.115-0.065,0.228-0.132,0.341-0.2c0.482-0.29,0.951-0.571,1.735-0.584
		c0.718-0.01,1.698,0.204,3.192,0.841c2.201,0.939,2.962,1.225,3.517,1.434c0.407,0.153,0.676,0.254,1.357,0.56
		c1.384,0.62,2.076,1.254,2.779,3.573c0.295,0.974,0.595,1.879,0.941,2.928c0.241,0.729,0.511,1.544,0.83,2.535
		c0.802,2.491,1.45,3.259,5.522,4.505c4.824,1.475,19.515,5.19,25.085,6.375c0,0-8.747,9.342-10.456,11.104s-2.853,2.55-6.886,3.575
		c-4.033,1.025-25.72,7.523-28.409,8.239c-2.687,0.715-9.533,2.832-10.65,3.246c-1.63,0.604-4.146,1.8-4.964,2.369
		C108.033,70.946,106.898,70.706,106.898,70.706L106.898,70.706z"/>
	<path id="path11532_1_" inkscape:connector-curvature="0" fill="#FAFBFC" stroke="#272321" stroke-width="0.423" d="
		M204.892,59.791c0,0-12.012,4.369-29.195,4.63s-65.361,6.19-65.361,6.19c0.423-0.435,1.683-2.059,2.207-2.709
		c0.525-0.65,1.586-1.201,3.61-1.768c2.025-0.565,36.896-10.482,39.131-11.265c2.235-0.783,3.825-1.77,5.299-3.397
		c1.474-1.628,5.736-5.999,7.739-8.063c2.001-2.062,3.052-3.256,6.673-4.487c3.62-1.232,12.52-4.103,15.609-5.006
		c3.09-0.902,5.11-1.789,6.859,0.645c1.749,2.435,5.179,8.704,6.068,11.722c0.77,2.619,1.277,4.021,2.141,4.692
		C205.671,50.976,205.251,59.667,204.892,59.791"/>
	<path id="path11536_1_" inkscape:connector-curvature="0" fill="#20211F" d="M120.527,63.593l-8.628,2.593L86.714,47.731
		l7.326-3.749L120.527,63.593L120.527,63.593z"/>
	
		<path id="path11540_1_" inkscape:connector-curvature="0" fill="none" stroke="#6F6F6E" stroke-width="0.23" stroke-miterlimit="10" d="
		M120.527,63.593l-8.628,2.593L86.714,47.731l7.326-3.749L120.527,63.593L120.527,63.593z"/>
	<path id="path11544_1_" inkscape:connector-curvature="0" fill="#20211F" d="M138.117,58.475l-8.628,2.593L101.271,40.34
		l7.326-3.749L138.117,58.475L138.117,58.475z"/>
	
		<path id="path11548_1_" inkscape:connector-curvature="0" fill="none" stroke="#6F6F6E" stroke-width="0.23" stroke-miterlimit="10" d="
		M138.117,58.475l-8.628,2.593L101.271,40.34l7.326-3.749L138.117,58.475L138.117,58.475z"/>
	<path id="path11552_1_" inkscape:connector-curvature="0" fill="#20211F" d="M155.884,53.179l-8.628,2.593l-31.43-22.821
		l7.326-3.749L155.884,53.179L155.884,53.179z"/>
	
		<path id="path11556_1_" inkscape:connector-curvature="0" fill="none" stroke="#6F6F6E" stroke-width="0.23" stroke-miterlimit="10" d="
		M155.884,53.179l-8.628,2.593l-31.43-22.821l7.326-3.749L155.884,53.179L155.884,53.179z"/>
	
		<path id="path11560_1_" inkscape:connector-curvature="0" fill="none" stroke="#060A03" stroke-width="0.152" stroke-linecap="round" stroke-linejoin="round" stroke-dasharray="2.412" d="
		M107.713,70.239c2.235-3.543,1.732-4.736-1.341-6.886c-2.454-1.716-21.281-15.971-22.912-17.206
		c-0.213-0.368-0.48-0.779-0.396-1.668l0.016-0.177c0.084-0.911,0.122-0.995,0.325-1.11c0.39-0.219,0.774-0.436,1.155-0.654
		c1.636-0.93,3.181-1.809,5.137-2.719c0.08-0.037,0.191-0.055,0.322-0.056c0.395-0.006,0.976,0.121,1.466,0.23
		c0.644,0.141,1.3,0.286,1.916,0.277c0.418-0.006,0.817-0.084,1.181-0.28c0.334-0.18,0.611-0.32,0.874-0.451
		c0.459-0.23,0.891-0.448,1.476-0.805c0.951-0.583,1.156-1.529,1.305-2.22c0.137-0.634,0.226-0.975,0.574-1.188
		c1.945-1.19,3.11-1.855,4.616-2.637c0.279-0.145,0.55-0.204,0.824-0.207c0.461-0.008,0.926,0.141,1.435,0.305
		c0.504,0.161,1.049,0.335,1.606,0.326c0.336-0.005,0.677-0.076,1.016-0.259c1.497-0.801,1.92-1.036,2.993-1.702
		c0.91-0.564,1.041-1.505,1.139-2.191c0.09-0.649,0.155-0.929,0.431-1.092c0.951-0.563,2.057-1.286,3.034-1.925
		c0.495-0.324,0.945-0.619,1.302-0.844l0.692-0.438c4.009-2.529,6.656-4.2,7.723-4.803c0.112-0.064,0.223-0.13,0.334-0.196
		c0.474-0.285,0.934-0.561,1.702-0.573c0.703-0.01,1.664,0.199,3.13,0.825c2.16,0.92,2.906,1.201,3.451,1.406
		c0.399,0.15,0.662,0.249,1.331,0.549c1.357,0.609,2.036,1.23,2.725,3.504c0.29,0.955,0.584,1.844,0.924,2.873
		c0.236,0.714,0.501,1.514,0.814,2.486c0.788,2.443,1.369,3.259,5.363,4.481c4.731,1.447,18.999,5.329,24.463,6.49
		c0,0,0.226,0.109,1.906-0.48c1.681-0.588,4.422-1.689,6.72-2.466c3.138-1.061,9.975-3.192,12.105-3.787
		c2.131-0.595,3.138-1.061,4.383-0.63c1.246,0.433,1.584,0.426,2.739,2.324c0.891,1.465,2.411,3.98,3.831,7.6
		c0.351,0.895,1.167,4.074,2.346,6.159c0.694,1.227,1.711,1.437,1.711,1.437"/>
	
		<path id="path11564_1_" inkscape:connector-curvature="0" fill="none" stroke="#1D1D1B" stroke-width="0.152" stroke-miterlimit="10" d="
		M4.763,60.084c3.522,1.695,29.355,13.187,64.605,14.315c15.448,0.495,51.465-6.753,66.88-8.444
		c15.416-1.69,60.064-5.261,70.106-5.851"/>
	
		<path id="path11568_1_" inkscape:connector-curvature="0" fill="none" stroke="#060A03" stroke-width="0.152" stroke-linecap="round" stroke-linejoin="round" d="
		M60.954,45.247c6.029,3.741,7.788,4.679,12.64,5.115c4.86,0.438,10.153,0.954,12.044,1.07c1.893,0.116,3.382,0.532,4.554,1.474"/>
	
		<path id="path11572_1_" inkscape:connector-curvature="0" fill="none" stroke="#060A03" stroke-width="0.152" stroke-linecap="round" stroke-linejoin="round" d="
		M69.375,43.781c0.882,0.425,0.451,0.186,1.09,0.368c0.914,0.259,1.948-0.503,2.67-0.359c0.895,0.177,1.895,0.322,2.491,0.471
		c1.917,0.48,1.36,1.37,2.954,1.611c1.915,0.289,3.001,0.477,3.001,0.477"/>
	<path id="path11576_1_" inkscape:connector-curvature="0" fill="#1D1D1B" d="M128.803,21.997c0.195,0.33,0.09,0.754-0.235,0.946
		l-1.711,1.01c-0.324,0.192-0.745,0.08-0.941-0.25c-0.195-0.331-0.09-0.755,0.235-0.946l1.711-1.01
		C128.187,21.556,128.608,21.667,128.803,21.997"/>
	
		<path id="path11580_1_" inkscape:connector-curvature="0" fill="none" stroke="#060A03" stroke-width="0.152" stroke-linecap="round" stroke-linejoin="round" d="
		M128.803,21.997c0.195,0.33,0.09,0.754-0.235,0.946l-1.711,1.01c-0.324,0.192-0.745,0.08-0.941-0.25
		c-0.195-0.331-0.09-0.755,0.235-0.946l1.711-1.01C128.187,21.556,128.608,21.667,128.803,21.997z"/>
	<path id="path11584_1_" inkscape:connector-curvature="0" fill="#1D1D1B" d="M135.481,25.012c0.195,0.33,0.09,0.754-0.235,0.946
		l-1.711,1.009c-0.325,0.192-0.745,0.081-0.941-0.249c-0.195-0.331-0.09-0.755,0.235-0.946l1.711-1.011
		C134.863,24.57,135.286,24.682,135.481,25.012"/>
	
		<path id="path11588_1_" inkscape:connector-curvature="0" fill="none" stroke="#060A03" stroke-width="0.152" stroke-linecap="round" stroke-linejoin="round" d="
		M135.481,25.012c0.195,0.33,0.09,0.754-0.235,0.946l-1.711,1.009c-0.325,0.192-0.745,0.081-0.941-0.249
		c-0.195-0.331-0.09-0.755,0.235-0.946l1.711-1.011C134.863,24.57,135.286,24.682,135.481,25.012z"/>
	<path id="path11592_1_" inkscape:connector-curvature="0" fill="#1D1D1B" d="M118.214,27.362c0.181,0.337,0.06,0.757-0.271,0.936
		l-1.75,0.941c-0.332,0.18-0.749,0.051-0.931-0.286c-0.181-0.337-0.061-0.757,0.272-0.936l1.749-0.942
		C117.615,26.896,118.031,27.024,118.214,27.362"/>
	
		<path id="path11596_1_" inkscape:connector-curvature="0" fill="none" stroke="#060A03" stroke-width="0.152" stroke-linecap="round" stroke-linejoin="round" d="
		M118.214,27.362c0.181,0.337,0.06,0.757-0.271,0.936l-1.75,0.941c-0.332,0.18-0.749,0.051-0.931-0.286
		c-0.181-0.337-0.061-0.757,0.272-0.936l1.749-0.942C117.615,26.896,118.031,27.024,118.214,27.362L118.214,27.362z"/>
	<path id="path11600_1_" inkscape:connector-curvature="0" fill="#1D1D1B" d="M104.001,34.816c0.181,0.337,0.06,0.757-0.272,0.936
		l-1.749,0.941c-0.332,0.18-0.749,0.051-0.931-0.286c-0.181-0.337-0.061-0.757,0.272-0.936l1.749-0.942
		C103.402,34.349,103.819,34.478,104.001,34.816"/>
	
		<path id="path11604_1_" inkscape:connector-curvature="0" fill="none" stroke="#060A03" stroke-width="0.152" stroke-linecap="round" stroke-linejoin="round" d="
		M104.001,34.816c0.181,0.337,0.06,0.757-0.272,0.936l-1.749,0.941c-0.332,0.18-0.749,0.051-0.931-0.286
		c-0.181-0.337-0.061-0.757,0.272-0.936l1.749-0.942C103.402,34.349,103.819,34.478,104.001,34.816z"/>
	<path id="path11608_1_" inkscape:connector-curvature="0" fill="#1D1D1B" d="M89.487,42.425c0.181,0.337,0.06,0.757-0.271,0.936
		l-2.176,1.224c-0.331,0.18-0.749,0.051-0.931-0.286c-0.181-0.337-0.06-0.757,0.272-0.936l2.175-1.225
		C88.888,41.959,89.304,42.087,89.487,42.425"/>
	
		<path id="path11612_1_" inkscape:connector-curvature="0" fill="none" stroke="#060A03" stroke-width="0.152" stroke-linecap="round" stroke-linejoin="round" d="
		M89.487,42.425c0.181,0.337,0.06,0.757-0.271,0.936l-2.176,1.224c-0.331,0.18-0.749,0.051-0.931-0.286
		c-0.181-0.337-0.06-0.757,0.272-0.936l2.175-1.225C88.888,41.959,89.304,42.087,89.487,42.425L89.487,42.425z"/>
	<path id="path11616_1_" inkscape:connector-curvature="0" fill="#1D1D1B" d="M74.988,47.514c-0.061,0.379-0.412,0.638-0.785,0.578
		l-2.536-0.387c-0.371-0.06-0.625-0.415-0.565-0.794c0.062-0.378,0.412-0.638,0.786-0.578l2.535,0.386
		C74.795,46.779,75.048,47.135,74.988,47.514"/>
	
		<path id="path11620_1_" inkscape:connector-curvature="0" fill="none" stroke="#060A03" stroke-width="0.152" stroke-linecap="round" stroke-linejoin="round" d="
		M74.988,47.514c-0.061,0.379-0.412,0.638-0.785,0.578l-2.536-0.387c-0.371-0.06-0.625-0.415-0.565-0.794
		c0.062-0.378,0.412-0.638,0.786-0.578l2.535,0.386C74.795,46.779,75.048,47.135,74.988,47.514L74.988,47.514z"/>
	<path id="path11624_1_" inkscape:connector-curvature="0" fill="#005BA7" d="M78.986,81.786c1.785-0.625,9.625-7.786,10.899-11.145
		c1.063-2.801,1.455-3.778-6.73-5.942c-8.377-2.216-12.849-3.44-22.873-5.246c-3.896-0.701-5.796,0.088-7.165,2.109
		c-1.847,2.726-2.705,3.189-4.352,3.065c-2.404-0.182-3.763-1.343-6.429-3.074c-4.863-3.154-3.751-3.344-9.302-4.456
		c-4.426-0.886-16.81-3.604-26.009-5.106c-0.672-0.109-2.599,0.472-3.191,1.739c-0.508,1.086-0.68,2.594-0.396,4.658
		c0.615,4.471,2.206,7.439,2.206,7.439L78.986,81.786L78.986,81.786z"/>
	
		<path id="path11628_1_" inkscape:connector-curvature="0" fill="none" stroke="#252223" stroke-width="0.009" stroke-miterlimit="10" d="
		M78.986,81.786c1.785-0.625,9.625-7.786,10.899-11.145c1.063-2.801,1.455-3.778-6.73-5.942c-8.377-2.216-12.849-3.44-22.873-5.246
		c-3.896-0.701-5.796,0.088-7.165,2.109c-1.847,2.726-2.705,3.189-4.352,3.065c-2.404-0.182-3.763-1.343-6.429-3.074
		c-4.863-3.154-3.751-3.344-9.302-4.456c-4.426-0.886-16.81-3.604-26.009-5.106c-0.672-0.109-2.599,0.472-3.191,1.739
		c-0.508,1.086-0.68,2.594-0.396,4.658c0.615,4.471,2.206,7.439,2.206,7.439L78.986,81.786L78.986,81.786z"/>
	<path id="path11632_1_" inkscape:connector-curvature="0" fill="#005BA7" d="M3.906,53.418c0,0,1.101,0.771,7.878,2.02
		s16.186,3.036,20.116,4.65c3.174,1.304,5.22,2.624,8.195,5.733c2.976,3.107,5.709,5.094,4.367,5.789
		c-1.34,0.696-13.309-1.374-22.126-3.493c-8.816-2.119-15.137-3.149-17.417-4.916c-2.279-1.768-3.455-2.948-2.901-4.609
		c0.554-1.662,1.577-4.354,1.577-4.354L3.906,53.418L3.906,53.418z"/>
	
		<path id="path11636_1_" inkscape:connector-curvature="0" fill="none" stroke="#252223" stroke-width="0.009" stroke-miterlimit="10" d="
		M3.906,53.418c0,0,1.101,0.771,7.878,2.02s16.186,3.036,20.116,4.65c3.174,1.304,5.22,2.624,8.195,5.733
		c2.976,3.107,5.709,5.094,4.367,5.789c-1.34,0.696-13.309-1.374-22.126-3.493c-8.816-2.119-15.137-3.149-17.417-4.916
		c-2.279-1.768-3.455-2.948-2.901-4.609c0.554-1.662,1.577-4.354,1.577-4.354L3.906,53.418L3.906,53.418z"/>
	
		<path id="path11640_1_" inkscape:connector-curvature="0" fill="none" stroke="#060A03" stroke-width="0.152" stroke-linecap="round" stroke-linejoin="round" d="
		M6.829,52.797c-1.268-0.418,0.045,0,0.062,0.003c0.103,0.016,0.206,0.034,0.31,0.05"/>
	
		<path id="path11644_1_" inkscape:connector-curvature="0" fill="none" stroke="#060A03" stroke-width="0.152" stroke-linecap="round" stroke-linejoin="round" stroke-dasharray="2.5,2.5" d="
		M10.281,53.38c6.325,1.128,13.404,2.609,18.346,3.643c1.753,0.366,3.214,0.671,4.245,0.877c3.957,0.794,4.302,1.041,6.216,2.416
		c0.686,0.494,1.541,1.107,2.8,1.925c0.405,0.261,0.78,0.511,1.131,0.746c1.992,1.326,3.433,2.285,5.682,2.455
		c0.214,0.016,0.405,0.023,0.585,0.02c1.869-0.028,2.943-1.133,4.507-3.441c0.944-1.393,2.066-1.971,3.874-1.999
		c0.715-0.011,1.522,0.066,2.469,0.236c9.528,1.716,14.099,2.926,21.671,4.931l1.136,0.301c2.804,0.741,6.086,1.72,6.6,2.719
		c0.116,0.228,0.101,0.521-0.004,0.92"/>
	
		<path id="path11648_1_" inkscape:connector-curvature="0" fill="none" stroke="#060A03" stroke-width="0.152" stroke-linecap="round" stroke-linejoin="round" d="
		M89.008,70.602l-0.612,1.41"/>
	<path id="path11652_1_" inkscape:connector-curvature="0" fill="#4DAE3A" d="M211.674,77.596c-0.192,1.754-1.678,2.878-1.678,2.878
		l-25.976,5.695c-0.449,0.079-0.897,0.156-1.346,0.233c-2.158,0.364-4.324,0.69-6.494,0.976c-2.197,0.291-4.4,0.542-6.609,0.729
		c-1.106,0.094-2.214,0.171-3.322,0.225c-0.459,0.021-0.918,0.039-1.377,0.054c-0.815,0.026-1.629,0.041-2.444,0.054l-90.36,1.371
		l-2.826-0.02c-1.815-0.107-3.63-0.24-5.441-0.405c-6.181-0.563-12.332-1.499-18.397-2.819c-0.386-0.084-0.77-0.169-1.155-0.254
		C32.865,83.739,13.26,76.239,3.082,68.736c0,0-2.648-1.493-2.034-4.345c0,0,9.015,3.884,29.299,8.316
		c20.285,4.432,39.533,8.735,74.136,4.386c34.603-4.349,66.566-8.811,80.07-8.866c13.503-0.054,24.73-1.761,24.73-1.761
		L211.674,77.596L211.674,77.596z"/>
	
		<path id="path11656_1_" inkscape:connector-curvature="0" fill="none" stroke="#6F6F6E" stroke-width="0.23" stroke-miterlimit="10" d="
		M211.674,77.596c-0.192,1.754-1.678,2.878-1.678,2.878l-25.976,5.695c-0.449,0.079-0.897,0.156-1.346,0.233
		c-2.158,0.364-4.324,0.69-6.494,0.976c-2.197,0.291-4.4,0.542-6.609,0.729c-1.106,0.094-2.214,0.171-3.322,0.225
		c-0.459,0.021-0.918,0.039-1.377,0.054c-0.815,0.026-1.629,0.041-2.444,0.054l-90.36,1.371l-2.826-0.02
		c-1.815-0.107-3.63-0.24-5.441-0.405c-6.181-0.563-12.332-1.499-18.397-2.819c-0.386-0.084-0.77-0.169-1.155-0.254
		C32.865,83.739,13.26,76.239,3.082,68.736c0,0-2.648-1.493-2.034-4.345c0,0,9.015,3.884,29.299,8.316
		c20.285,4.432,39.533,8.735,74.136,4.386c34.603-4.349,66.566-8.811,80.07-8.866c13.503-0.054,24.73-1.761,24.73-1.761
		L211.674,77.596L211.674,77.596z"/>
	<path id="path11660_1_" inkscape:connector-curvature="0" fill="#EEEC92" d="M211.709,66.328l-0.174,0.003
		c-0.018-0.003-0.031-0.005-0.047-0.008c-0.348,0.029-0.681,0.056-0.798,0.062c-11.935,0.675-23.846,1.576-35.749,2.702
		c-4.833,0.459-9.664,0.934-14.494,1.414c-6.101,0.606-12.201,1.22-18.294,1.898c-10.041,1.114-20.062,2.399-30.081,3.711
		c-8.047,1.055-16.096,2.129-24.2,2.677c-5.151,0.348-10.326,0.484-15.489,0.353c-2.067-0.052-4.135-0.101-6.199-0.219
		c-1.577-0.089-3.154-0.206-4.726-0.351c-6.155-0.569-12.267-1.572-18.309-2.87c-0.271-0.057-0.542-0.116-0.811-0.175
		c-12.467-2.73-24.734-6.03-36.881-9.922c-0.396-0.127-2.831-0.793-5.061-1.996c0.535,1.328,1.689,2.72,3.501,3.815l0.049,0.086
		c2.471,1.306,4.959,2.576,7.467,3.811c10.47,5.159,21.398,8.92,32.781,11.494c0.385,0.086,0.769,0.171,1.154,0.254
		c6.066,1.32,12.217,2.255,18.397,2.819c1.813,0.165,3.628,0.298,5.443,0.405l2.825,0.02l90.361-1.371
		c0.814-0.013,1.629-0.028,2.443-0.054c0.46-0.014,0.92-0.033,1.379-0.054c1.107-0.054,2.215-0.131,3.322-0.225
		c2.207-0.186,4.411-0.438,6.608-0.728c2.171-0.288,4.336-0.614,6.495-0.978c0.448-0.076,0.897-0.154,1.346-0.233l28.215-5.196
		c0.113-0.576,0.289-3.166,0.18-5.433C212.242,69.543,211.848,66.715,211.709,66.328"/>
	
		<path id="path11664_1_" inkscape:connector-curvature="0" fill="none" stroke="#211E1B" stroke-width="0.096" stroke-miterlimit="10" d="
		M211.709,66.328l-0.174,0.003c-0.018-0.003-0.031-0.005-0.047-0.008c-0.348,0.029-0.681,0.056-0.798,0.062
		c-11.935,0.675-23.846,1.576-35.749,2.702c-4.833,0.459-9.664,0.934-14.494,1.414c-6.101,0.606-12.201,1.22-18.294,1.898
		c-10.041,1.114-20.062,2.399-30.081,3.711c-8.047,1.055-16.096,2.129-24.2,2.677c-5.151,0.348-10.326,0.484-15.489,0.353
		c-2.067-0.052-4.135-0.101-6.199-0.219c-1.577-0.089-3.154-0.206-4.726-0.351c-6.155-0.569-12.267-1.572-18.309-2.87
		c-0.271-0.057-0.542-0.116-0.811-0.175c-12.467-2.73-24.734-6.03-36.881-9.922c-0.396-0.127-2.831-0.793-5.061-1.996
		c0.535,1.328,1.689,2.72,3.501,3.815l0.049,0.086c2.471,1.306,4.959,2.576,7.467,3.811c10.47,5.159,21.398,8.92,32.781,11.494
		c0.385,0.086,0.769,0.171,1.154,0.254c6.066,1.32,12.217,2.255,18.397,2.819c1.813,0.165,3.628,0.298,5.443,0.405l2.825,0.02
		l90.361-1.371c0.814-0.013,1.629-0.028,2.443-0.054c0.46-0.014,0.92-0.033,1.379-0.054c1.107-0.054,2.215-0.131,3.322-0.225
		c2.207-0.186,4.411-0.438,6.608-0.728c2.171-0.288,4.336-0.614,6.495-0.978c0.448-0.076,0.897-0.154,1.346-0.233l28.215-5.196
		c0.113-0.576,0.289-3.166,0.18-5.433C212.242,69.543,211.848,66.715,211.709,66.328L211.709,66.328z"/>
	<path id="path11668_1_" inkscape:connector-curvature="0" fill="#EEEC92" d="M42.339,75.525c0.27,0.059,0.54,0.117,0.811,0.176
		c6.043,1.296,12.155,2.3,18.309,2.869c1.572,0.145,3.149,0.262,4.726,0.353c2.065,0.116,4.132,0.165,6.199,0.218
		c5.164,0.131,10.339-0.005,15.489-0.353c8.104-0.549,16.154-1.621,24.201-2.676c10.019-1.314,20.039-2.599,30.08-3.713
		c6.094-0.677,12.192-1.291,18.295-1.898c4.829-0.479,9.66-0.955,14.492-1.413c11.902-1.128,23.814-2.029,35.749-2.704
		c0.116-0.005,0.45-0.034,0.799-0.062c-2.875-0.288-3.279-1.992-4.049-3.351c0,0-1.244-2.045-1.97-3.225l-59.215,4.577
		c-16.517,1.449-32.979,3.647-49.314,6.481c-6.996,1.211-14.011,2.062-21.096,2.559c-0.832,0.057-1.666,0.104-2.501,0.137
		c-2.109,0.088-4.221,0.098-6.33,0.025c-0.918-0.033-1.834-0.079-2.747-0.14c-0.918-0.061-1.834-0.135-2.75-0.223
		c-0.918-0.088-1.834-0.186-2.749-0.295c-0.916-0.11-25.949-2.724-51.712-10.404c-2.084-0.461-2.8-1.287-2.936-2.356
		c-0.139-1.095-0.554-4.378-0.554-4.378s-0.945-0.264-1.937,0.76c-0.72,0.741-0.944,2.086-1.512,4.774
		c-0.146,0.696-0.054,1.506,0.281,2.342c2.23,1.203,4.665,1.869,5.061,1.995C17.605,69.495,29.871,72.795,42.339,75.525"/>
	
		<path id="path11672_1_" inkscape:connector-curvature="0" fill="none" stroke="#211E1B" stroke-width="0.096" stroke-miterlimit="10" d="
		M42.339,75.525c0.27,0.059,0.54,0.117,0.811,0.176c6.043,1.296,12.155,2.3,18.309,2.869c1.572,0.145,3.149,0.262,4.726,0.353
		c2.065,0.116,4.132,0.165,6.199,0.218c5.164,0.131,10.339-0.005,15.489-0.353c8.104-0.549,16.154-1.621,24.201-2.676
		c10.019-1.314,20.039-2.599,30.08-3.713c6.094-0.677,12.192-1.291,18.295-1.898c4.829-0.479,9.66-0.955,14.492-1.413
		c11.902-1.128,23.814-2.029,35.749-2.704c0.116-0.005,0.45-0.034,0.799-0.062c-2.875-0.288-3.279-1.992-4.049-3.351
		c0,0-1.244-2.045-1.97-3.225l-59.215,4.577c-16.517,1.449-32.979,3.647-49.314,6.481c-6.996,1.211-14.011,2.062-21.096,2.559
		c-0.832,0.057-1.666,0.104-2.501,0.137c-2.109,0.088-4.221,0.098-6.33,0.025c-0.918-0.033-1.834-0.079-2.747-0.14
		c-0.918-0.061-1.834-0.135-2.75-0.223c-0.918-0.088-1.834-0.186-2.749-0.295c-0.916-0.11-25.949-2.724-51.712-10.404
		c-2.084-0.461-2.8-1.287-2.936-2.356c-0.139-1.095-0.554-4.378-0.554-4.378s-0.945-0.264-1.937,0.76
		c-0.72,0.741-0.944,2.086-1.512,4.774c-0.146,0.696-0.054,1.506,0.281,2.342c2.23,1.203,4.665,1.869,5.061,1.995
		C17.605,69.495,29.871,72.795,42.339,75.525L42.339,75.525z"/>
	
		<path id="path11676_1_" inkscape:connector-curvature="0" fill="#FFFFFF" stroke="#252223" stroke-width="0.092" stroke-miterlimit="10" d="
		M187.927,85.565l-1.154-6.608c-0.084-0.48,0.236-0.938,0.718-1.022c0.48-0.083,0.938,0.239,1.02,0.718l1.131,6.478"/>
	
		<path id="path11680_1_" inkscape:connector-curvature="0" fill="#FFFFFF" stroke="#252223" stroke-width="0.092" stroke-miterlimit="10" d="
		M155.834,88.79l-0.389-6.009c-0.027-0.486,0.344-0.902,0.831-0.931c0.486-0.029,0.904,0.341,0.932,0.829l0.397,6.16"/>
	
		<path id="path11684_1_" inkscape:connector-curvature="0" fill="#FFFFFF" stroke="#252223" stroke-width="0.092" stroke-miterlimit="10" d="
		M95.217,89.415l-0.288-6.014c-0.021-0.486-0.434-0.865-0.921-0.841c-0.486,0.02-0.864,0.433-0.843,0.919l0.293,6.166"/>
	
		<path id="path11688_1_" inkscape:connector-curvature="0" fill="#FFFFFF" stroke="#252223" stroke-width="0.092" stroke-miterlimit="10" d="
		M71.914,89.854l0.438-6.209c0.026-0.488-0.345-0.904-0.832-0.931c-0.488-0.028-0.904,0.345-0.93,0.831l-0.448,6.361"/>
	
		<path id="path11692_1_" inkscape:connector-curvature="0" fill="#FFFFFF" stroke="#252223" stroke-width="0.092" stroke-miterlimit="10" d="
		M49.139,87.222l1.287-5.911c0.096-0.477-0.213-0.942-0.691-1.039c-0.477-0.096-0.944,0.213-1.04,0.69l-1.319,6.061"/>
	<path id="path11696_1_" inkscape:connector-curvature="0" fill="#FAFBFC" d="M121.043,74.986
		c6.245-0.602,13.031-1.741,21.855-2.733c6-0.675,12.005-1.287,18.012-1.893c4.755-0.477,9.511-0.952,14.269-1.41
		c11.719-1.125,23.446-2.028,35.197-2.707c0.115-0.006,0.444-0.034,0.786-0.062c-2.831-0.28-3.231-1.959-3.99-3.295
		c0,0-1.229-2.012-1.945-3.174l-58.301,4.584c-11.823,1.054-25.374,2.923-34.553,4.156L121.043,74.986L121.043,74.986z"/>
	<path id="path11700_1_" inkscape:connector-curvature="0" fill="none" stroke="#272321" stroke-width="0.423" d="M121.043,74.986
		c6.245-0.602,13.031-1.741,21.855-2.733c6-0.675,12.005-1.287,18.012-1.893c4.755-0.477,9.511-0.952,14.269-1.41
		c11.719-1.125,23.446-2.028,35.197-2.707c0.115-0.006,0.444-0.034,0.786-0.062c-2.831-0.28-3.231-1.959-3.99-3.295
		c0,0-1.229-2.012-1.945-3.174l-58.301,4.584c-11.823,1.054-25.374,2.923-34.553,4.156L121.043,74.986L121.043,74.986z"/>
	
		<path id="path11704_1_" inkscape:connector-curvature="0" fill="none" stroke="#060A03" stroke-width="0.152" stroke-linecap="round" stroke-linejoin="round" stroke-dasharray="2.459" d="
		M62.539,45.198c0,0,3.809,2.47,6.068,3.239c2.257,0.768,3.423,0.83,7.803,1.245c4.379,0.415,11.01,1.116,11.01,1.116"/>
	
		<path id="path11708_1_" inkscape:connector-curvature="0" fill="none" stroke="#060A03" stroke-width="0.152" stroke-linecap="round" stroke-linejoin="round" stroke-dasharray="2.459" d="
		M72.511,44.123c1.007,0.265,2.293,0.366,2.939,0.638s0.703,1.394,1.99,1.575c1.286,0.181,5.27,0.962,5.27,0.962"/>
	<path id="path11712_1_" inkscape:connector-curvature="0" fill="#ED6F87" d="M73.404,43.758c0.566-0.596,1.444-1.405,1.435-1.936
		l3.419-0.924c0.015,1.015-0.825,2.643-1.625,3.615L73.404,43.758L73.404,43.758z"/>
	
		<path id="path11716_1_" inkscape:connector-curvature="0" fill="none" stroke="#252223" stroke-width="0.092" stroke-miterlimit="10" d="
		M73.404,43.758c0.566-0.596,1.444-1.405,1.435-1.936l3.419-0.924c0.015,1.015-0.825,2.643-1.625,3.615L73.404,43.758L73.404,43.758
		z"/>
	<path id="path11720_1_" inkscape:connector-curvature="0" fill="#ED6F87" d="M86.824,44.083c-1.449-2.359-3.925-3.526-5.942-4.719
		l3.13-1.399c2.679,1.581,3.861,1.899,5.455,4.494L86.824,44.083L86.824,44.083z"/>
	
		<path id="path11724_1_" inkscape:connector-curvature="0" fill="none" stroke="#252223" stroke-width="0.092" stroke-miterlimit="10" d="
		M86.824,44.083c-1.449-2.359-3.925-3.526-5.942-4.719l3.13-1.399c2.679,1.581,3.861,1.899,5.455,4.494L86.824,44.083L86.824,44.083
		z"/>
	<path id="path11728_1_" inkscape:connector-curvature="0" fill="#ED6F87" d="M101.06,36.068c-1.449-2.359-2.885-3.811-4.902-5.003
		l2.794-1.66c2.679,1.581,3.158,2.444,4.751,5.039L101.06,36.068L101.06,36.068z"/>
	
		<path id="path11732_1_" inkscape:connector-curvature="0" fill="none" stroke="#252223" stroke-width="0.092" stroke-miterlimit="10" d="
		M101.06,36.068c-1.449-2.359-2.885-3.811-4.902-5.003l2.794-1.66c2.679,1.581,3.158,2.444,4.751,5.039L101.06,36.068L101.06,36.068
		z"/>
	<path id="path11736_1_" inkscape:connector-curvature="0" fill="#ED6F87" d="M115.304,28.585c-1.449-2.359-4.77-3.747-6.789-4.94
		l2.863-1.73c2.677,1.58,4.975,2.451,6.569,5.046L115.304,28.585z"/>
	
		<path id="path11740_1_" inkscape:connector-curvature="0" fill="none" stroke="#252223" stroke-width="0.092" stroke-miterlimit="10" d="
		M115.304,28.585c-1.449-2.359-4.77-3.747-6.789-4.94l2.863-1.73c2.677,1.58,4.975,2.451,6.569,5.046L115.304,28.585z"/>
	<path id="path11744_1_" inkscape:connector-curvature="0" fill="#ED6F87" d="M125.801,23.344c-1.449-2.359-5.129-5.935-7.8-6.721
		l2.095-2.159c2.967,0.9,6.754,4.661,8.348,7.256L125.801,23.344z"/>
	
		<path id="path11748_1_" inkscape:connector-curvature="0" fill="none" stroke="#252223" stroke-width="0.092" stroke-miterlimit="10" d="
		M125.801,23.344c-1.449-2.359-5.129-5.935-7.8-6.721l2.095-2.159c2.967,0.9,6.754,4.661,8.348,7.256L125.801,23.344z"/>
	<path id="path11752_1_" inkscape:connector-curvature="0" fill="#ED6F87" d="M71.375,46.633c-1.059-1.006-1.895-1.688-3.913-2.88
		l3.236-1.022c1.04,0.705,3.379,2.186,3.916,4.136L71.375,46.633L71.375,46.633z"/>
	
		<path id="path11756_1_" inkscape:connector-curvature="0" fill="none" stroke="#252223" stroke-width="0.092" stroke-miterlimit="10" d="
		M71.375,46.633c-1.059-1.006-1.895-1.688-3.913-2.88l3.236-1.022c1.04,0.705,3.379,2.186,3.916,4.136L71.375,46.633L71.375,46.633z
		"/>
	<path id="path11760_1_" inkscape:connector-curvature="0" fill="#ED6F87" d="M87.549,39.414c0.836-1.401,1.268-2.501,1.466-3.739
		l3.1-1.69c0.059,1.225-0.484,3.372-1.196,4.895L89.2,38.692L87.549,39.414z"/>
	
		<path id="path11764_1_" inkscape:connector-curvature="0" fill="none" stroke="#252223" stroke-width="0.092" stroke-miterlimit="10" d="
		M87.549,39.414c0.836-1.401,1.268-2.501,1.466-3.739l3.1-1.69c0.059,1.225-0.484,3.372-1.196,4.895L89.2,38.692L87.549,39.414z"/>
	<path id="path11768_1_" inkscape:connector-curvature="0" fill="#ED6F87" d="M115.744,24.562c-0.443-2.38-0.504-4.3-1.05-4.881
		l2.714-1.869c0.617,0.498,1.334,3.821,1.097,4.992L115.744,24.562L115.744,24.562z"/>
	
		<path id="path11772_1_" inkscape:connector-curvature="0" fill="none" stroke="#252223" stroke-width="0.092" stroke-miterlimit="10" d="
		M115.744,24.562c-0.443-2.38-0.504-4.3-1.05-4.881l2.714-1.869c0.617,0.498,1.334,3.821,1.097,4.992L115.744,24.562L115.744,24.562
		z"/>
	<path id="path11776_1_" inkscape:connector-curvature="0" fill="#ED6F87" d="M102.37,31.791c0.479-1.851,1.184-3.564,0.762-4.74
		l2.461-1.546c1.286,1.25,0.516,4.953,0.23,6.125c0,0-1.234-0.251-1.527-0.281c-0.293-0.03-0.934,0.031-1.239,0.161
		C102.752,31.638,102.37,31.791,102.37,31.791"/>
	
		<path id="path11780_1_" inkscape:connector-curvature="0" fill="none" stroke="#252223" stroke-width="0.092" stroke-miterlimit="10" d="
		M102.37,31.791c0.479-1.851,1.184-3.564,0.762-4.74l2.461-1.546c1.286,1.25,0.516,4.953,0.23,6.125c0,0-1.234-0.251-1.527-0.281
		c-0.293-0.03-0.934,0.031-1.239,0.161C102.752,31.638,102.37,31.791,102.37,31.791z"/>
	<path id="path11784_1_" inkscape:connector-curvature="0" fill="#FAFBFC" d="M110.811,32.399
		c-0.761,0.433-28.449,15.075-28.449,15.075l-1.076-0.791c-0.466-0.655-0.405-1.346-0.308-2.38s0.109-1.582,0.762-1.95
		c2.081-1.169,3.97-2.305,6.473-3.467c1.203-0.559,3.68,0.875,4.938,0.196c0.936-0.505,1.454-0.706,2.357-1.259
		c1.34-0.82,0.575-2.654,1.915-3.474c2.095-1.281,3.269-1.945,4.757-2.718c1.953-1.014,3.624,0.894,4.967,0.174
		c1.543-0.826,1.956-1.059,3.005-1.71c1.219-0.756,0.335-2.599,1.616-3.358c1.454-0.86,3.332-2.136,4.4-2.81
		c0.71-0.449,3.005-1.844,3.389-2.137c0.589-0.451,0.765,0.363,0.765,0.363s0.201,3.117,0.255,4.124
		c0.052,0.965-0.056,1.403-1.204,2.137c-0.174,0.111-4.977,3.027-5.285,3.199C112.124,32.715,112.923,31.199,110.811,32.399"/>
	<path id="path11788_1_" inkscape:connector-curvature="0" fill="none" stroke="#272321" stroke-width="0.423" d="M110.811,32.399
		c-0.761,0.433-28.449,15.075-28.449,15.075l-1.076-0.791c-0.466-0.655-0.405-1.346-0.308-2.38s0.109-1.582,0.762-1.95
		c2.081-1.169,3.97-2.305,6.473-3.467c1.203-0.559,3.68,0.875,4.938,0.196c0.936-0.505,1.454-0.706,2.357-1.259
		c1.34-0.82,0.575-2.654,1.915-3.474c2.095-1.281,3.269-1.945,4.757-2.718c1.953-1.014,3.624,0.894,4.967,0.174
		c1.543-0.826,1.956-1.059,3.005-1.71c1.219-0.756,0.335-2.599,1.616-3.358c1.454-0.86,3.332-2.136,4.4-2.81
		c0.71-0.449,3.005-1.844,3.389-2.137c0.589-0.451,0.765,0.363,0.765,0.363s0.201,3.117,0.255,4.124
		c0.052,0.965-0.056,1.403-1.204,2.137c-0.174,0.111-4.977,3.027-5.285,3.199C112.124,32.715,112.923,31.199,110.811,32.399
		L110.811,32.399z"/>
	<path id="path11792_1_" inkscape:connector-curvature="0" fill="#20211F" d="M179.924,42.151c0.116,0.394,0.508,0.617,0.901,0.501
		c0.402-0.119,0.615-0.516,0.496-0.914c-0.116-0.394-0.515-0.614-0.913-0.495C180.015,41.359,179.808,41.757,179.924,42.151
		 M181.608,42.734l-0.08-0.271c0,0-0.14,0.37-0.628,0.515c-0.556,0.164-1.145-0.149-1.315-0.725
		c-0.17-0.575,0.153-1.162,0.709-1.328c0.484-0.143,0.805,0.088,0.805,0.088l-0.289-0.975l0.342-0.101l0.798,2.696L181.608,42.734z"
		/>
	<path id="path11796_1_" inkscape:connector-curvature="0" fill="#20211F" d="M183.62,42.139l-0.075-0.252
		c0,0-0.091,0.34-0.54,0.474c-0.465,0.136-0.866-0.091-1.011-0.58l-0.36-1.221l0.342-0.1l0.346,1.172
		c0.096,0.327,0.342,0.479,0.649,0.387c0.34-0.1,0.499-0.387,0.391-0.75l-0.331-1.123l0.342-0.101l0.589,1.992L183.62,42.139z"/>
	<path id="path11800_1_" inkscape:connector-curvature="0" fill="#20211F" d="M184.715,40.004c-0.39,0.116-0.55,0.445-0.433,0.843
		l0.299,1.009l-0.346,0.103l-0.589-1.994l0.342-0.101l0.098,0.332c0,0,0.075-0.412,0.524-0.546L184.715,40.004z"/>
	<path id="path11804_1_" inkscape:connector-curvature="0" fill="#20211F" d="M185.361,40.544c0.116,0.394,0.508,0.617,0.901,0.501
		c0.401-0.119,0.614-0.516,0.496-0.914c-0.116-0.394-0.515-0.614-0.913-0.495C185.452,39.752,185.245,40.151,185.361,40.544
		 M186.964,40.856c0,0-0.131,0.369-0.626,0.515c-0.555,0.164-1.146-0.149-1.315-0.725c-0.17-0.575,0.153-1.162,0.709-1.328
		c0.48-0.141,0.804,0.084,0.804,0.084l-0.079-0.267l0.341-0.101l0.589,1.992l-0.341,0.101L186.964,40.856L186.964,40.856z"/>
	<path id="path11808_1_" inkscape:connector-curvature="0" fill="#20211F" d="M187.486,39.1c0,0,0.083-0.329,0.508-0.455
		c0.28-0.083,0.534-0.021,0.715,0.158c0.031-0.111,0.156-0.414,0.578-0.539c0.46-0.136,0.843,0.085,0.978,0.559l0.368,1.245
		l-0.337,0.099l-0.355-1.201c-0.093-0.31-0.322-0.452-0.602-0.37c-0.31,0.091-0.464,0.36-0.364,0.695l0.344,1.166l-0.339,0.099
		l-0.355-1.201c-0.091-0.31-0.321-0.452-0.601-0.37c-0.315,0.093-0.461,0.364-0.36,0.71l0.34,1.151l-0.342,0.1l-0.589-1.992
		l0.342-0.101L187.486,39.1L187.486,39.1z"/>
	<path id="path11812_1_" inkscape:connector-curvature="0" fill="#20211F" d="M190.908,38.906c0.12,0.406,0.503,0.628,0.904,0.508
		c0.397-0.116,0.614-0.515,0.494-0.921c-0.121-0.409-0.511-0.628-0.909-0.51C190.995,38.101,190.787,38.497,190.908,38.906
		 M192.647,38.387c0.171,0.58-0.139,1.167-0.734,1.343c-0.598,0.177-1.177-0.143-1.35-0.726c-0.169-0.575,0.143-1.159,0.741-1.336
		C191.898,37.492,192.477,37.813,192.647,38.387"/>
	<path id="path11816_1_" inkscape:connector-curvature="0" fill="#20211F" d="M193.745,39.147l-0.363,0.107l0.351-2.434
		l-1.247,0.369l-0.095-0.319l1.611-0.476l0.091,0.308L193.745,39.147L193.745,39.147z"/>
	<path id="path11820_1_" inkscape:connector-curvature="0" fill="#4A525C" d="M164.592,59.298c-0.095-0.272-0.393-0.418-0.665-0.324
		c-0.274,0.095-0.419,0.392-0.324,0.666c0.095,0.272,0.392,0.418,0.665,0.322C164.542,59.869,164.687,59.57,164.592,59.298"/>
	<path id="path11824_1_" inkscape:connector-curvature="0" fill="#4A525C" d="M167.361,58.956c-0.095-0.272-0.393-0.418-0.665-0.324
		c-0.274,0.095-0.419,0.392-0.324,0.666c0.095,0.272,0.392,0.418,0.665,0.322C167.311,59.527,167.456,59.229,167.361,58.956"/>
	<path id="path11828_1_" inkscape:connector-curvature="0" fill="#4A525C" d="M164.216,56.532c-0.095-0.272-0.392-0.418-0.665-0.324
		c-0.274,0.095-0.419,0.392-0.324,0.666c0.095,0.272,0.393,0.418,0.665,0.322C164.166,57.104,164.311,56.805,164.216,56.532"/>
	<path id="path11832_1_" inkscape:connector-curvature="0" fill="#4A525C" d="M166.985,56.192c-0.095-0.272-0.392-0.418-0.665-0.324
		c-0.274,0.095-0.419,0.392-0.324,0.666c0.095,0.272,0.393,0.418,0.665,0.322C166.935,56.763,167.08,56.464,166.985,56.192"/>
	<path id="path11836_1_" inkscape:connector-curvature="0" fill="#4A525C" d="M166.609,53.427c-0.095-0.272-0.393-0.418-0.665-0.322
		c-0.274,0.094-0.419,0.392-0.324,0.665c0.095,0.272,0.392,0.418,0.665,0.322C166.559,53.998,166.704,53.699,166.609,53.427"/>
	<path id="path11840_1_" inkscape:connector-curvature="0" fill="#4A525C" d="M169.754,55.85c-0.095-0.272-0.393-0.418-0.665-0.324
		c-0.274,0.095-0.419,0.392-0.324,0.666c0.095,0.272,0.392,0.418,0.665,0.322C169.704,56.422,169.849,56.123,169.754,55.85"/>
	<path id="path11844_1_" inkscape:connector-curvature="0" fill="#4A525C" d="M172.524,55.509c-0.095-0.272-0.392-0.418-0.665-0.324
		c-0.274,0.095-0.419,0.392-0.324,0.666c0.095,0.272,0.393,0.418,0.665,0.322C172.474,56.08,172.619,55.782,172.524,55.509"/>
	<path id="path11848_1_" inkscape:connector-curvature="0" fill="#4A525C" d="M175.293,55.168c-0.095-0.272-0.393-0.418-0.665-0.324
		c-0.274,0.095-0.419,0.392-0.324,0.666c0.095,0.272,0.392,0.418,0.665,0.322C175.243,55.74,175.388,55.441,175.293,55.168"/>
	<path id="path11852_1_" inkscape:connector-curvature="0" fill="#4A525C" d="M178.062,54.827c-0.095-0.272-0.393-0.418-0.665-0.324
		c-0.274,0.095-0.419,0.392-0.324,0.666c0.095,0.272,0.392,0.418,0.665,0.322C178.012,55.398,178.157,55.1,178.062,54.827"/>
	<path id="path11856_1_" inkscape:connector-curvature="0" fill="#4A525C" d="M180.831,54.486c-0.095-0.272-0.393-0.418-0.665-0.324
		c-0.274,0.095-0.419,0.392-0.324,0.666c0.095,0.272,0.392,0.418,0.665,0.322C180.781,55.057,180.926,54.758,180.831,54.486"/>
	<path id="path11860_1_" inkscape:connector-curvature="0" fill="#4A525C" d="M183.6,54.144c-0.095-0.272-0.393-0.418-0.665-0.324
		c-0.274,0.095-0.419,0.392-0.324,0.666c0.095,0.272,0.392,0.418,0.665,0.322C183.55,54.716,183.695,54.417,183.6,54.144"/>
	<path id="path11864_1_" inkscape:connector-curvature="0" fill="#4A525C" d="M186.369,53.804c-0.095-0.272-0.393-0.418-0.665-0.324
		c-0.274,0.095-0.418,0.392-0.324,0.666c0.095,0.272,0.392,0.418,0.665,0.322C186.319,54.375,186.464,54.076,186.369,53.804"/>
	<path id="path11868_1_" inkscape:connector-curvature="0" fill="#4A525C" d="M189.138,53.462c-0.095-0.272-0.392-0.418-0.665-0.324
		c-0.274,0.095-0.419,0.392-0.324,0.666c0.095,0.272,0.393,0.418,0.665,0.322C189.088,54.034,189.233,53.735,189.138,53.462"/>
	<path id="path11872_1_" inkscape:connector-curvature="0" fill="#4A525C" d="M191.908,53.121c-0.095-0.272-0.392-0.418-0.665-0.324
		c-0.274,0.095-0.419,0.392-0.324,0.666c0.095,0.272,0.393,0.418,0.665,0.322C191.858,53.692,192.003,53.394,191.908,53.121"/>
	<path id="path11876_1_" inkscape:connector-curvature="0" fill="#4A525C" d="M194.677,52.78c-0.095-0.272-0.392-0.418-0.665-0.324
		c-0.274,0.095-0.418,0.392-0.324,0.666c0.095,0.272,0.393,0.418,0.666,0.322C194.627,53.351,194.772,53.053,194.677,52.78"/>
	<path id="path11880_1_" inkscape:connector-curvature="0" fill="#4A525C" d="M197.446,52.439c-0.095-0.272-0.392-0.418-0.665-0.324
		c-0.274,0.095-0.419,0.392-0.324,0.666c0.095,0.272,0.393,0.418,0.665,0.322C197.396,53.01,197.541,52.712,197.446,52.439"/>
	<path id="path11884_1_" inkscape:connector-curvature="0" fill="#4A525C" d="M200.215,52.098c-0.095-0.272-0.392-0.418-0.665-0.324
		c-0.274,0.095-0.419,0.392-0.324,0.666c0.095,0.272,0.393,0.418,0.665,0.322C200.165,52.669,200.31,52.37,200.215,52.098"/>
	<path id="path11888_1_" inkscape:connector-curvature="0" fill="#4A525C" d="M169.378,53.086c-0.095-0.272-0.393-0.418-0.665-0.324
		c-0.274,0.095-0.419,0.392-0.324,0.666c0.095,0.272,0.392,0.418,0.665,0.322C169.328,53.657,169.473,53.358,169.378,53.086"/>
	<path id="path11892_1_" inkscape:connector-curvature="0" fill="#4A525C" d="M172.147,52.745c-0.095-0.272-0.392-0.418-0.665-0.324
		c-0.274,0.095-0.419,0.392-0.324,0.666c0.095,0.272,0.393,0.418,0.665,0.322C172.097,53.316,172.242,53.017,172.147,52.745"/>
	<path id="path11896_1_" inkscape:connector-curvature="0" fill="#4A525C" d="M171.771,49.98c-0.095-0.272-0.393-0.418-0.665-0.324
		c-0.274,0.095-0.418,0.392-0.324,0.666c0.095,0.272,0.392,0.418,0.665,0.322C171.721,50.552,171.866,50.253,171.771,49.98"/>
	<path id="path11900_1_" inkscape:connector-curvature="0" fill="#4A525C" d="M174.916,52.403c-0.095-0.272-0.392-0.418-0.665-0.324
		c-0.274,0.095-0.418,0.392-0.324,0.666c0.095,0.272,0.393,0.418,0.666,0.322C174.866,52.974,175.011,52.676,174.916,52.403"/>
	<path id="path11904_1_" inkscape:connector-curvature="0" fill="#4A525C" d="M174.54,49.639c-0.095-0.272-0.393-0.418-0.665-0.324
		c-0.274,0.095-0.419,0.392-0.324,0.666c0.095,0.272,0.392,0.418,0.665,0.322C174.49,50.21,174.635,49.911,174.54,49.639"/>
	<path id="path11908_1_" inkscape:connector-curvature="0" fill="#4A525C" d="M177.686,52.062c-0.095-0.272-0.392-0.418-0.665-0.324
		c-0.274,0.095-0.419,0.392-0.324,0.666c0.095,0.272,0.393,0.418,0.665,0.322C177.635,52.633,177.78,52.335,177.686,52.062"/>
	<path id="path11912_1_" inkscape:connector-curvature="0" fill="#4A525C" d="M177.309,49.298c-0.095-0.272-0.393-0.418-0.665-0.324
		c-0.274,0.095-0.418,0.392-0.324,0.666c0.095,0.272,0.392,0.418,0.666,0.322C177.259,49.869,177.404,49.57,177.309,49.298"/>
	<path id="path11916_1_" inkscape:connector-curvature="0" fill="#4A525C" d="M180.455,51.721c-0.095-0.272-0.392-0.418-0.665-0.324
		c-0.274,0.095-0.419,0.392-0.324,0.666c0.095,0.272,0.393,0.418,0.665,0.322C180.405,52.292,180.55,51.994,180.455,51.721"/>
	<path id="path11920_1_" inkscape:connector-curvature="0" fill="#4A525C" d="M180.079,48.957c-0.095-0.272-0.393-0.418-0.665-0.322
		c-0.274,0.094-0.418,0.392-0.324,0.665c0.095,0.272,0.392,0.418,0.665,0.322C180.028,49.528,180.173,49.229,180.079,48.957"/>
	<path id="path11924_1_" inkscape:connector-curvature="0" fill="#4A525C" d="M183.224,51.38c-0.095-0.272-0.393-0.418-0.665-0.324
		c-0.274,0.095-0.419,0.392-0.324,0.666c0.095,0.272,0.392,0.418,0.665,0.322C183.174,51.951,183.319,51.652,183.224,51.38"/>
	<path id="path11928_1_" inkscape:connector-curvature="0" fill="#4A525C" d="M185.993,51.039c-0.095-0.272-0.393-0.418-0.665-0.324
		c-0.274,0.095-0.419,0.392-0.324,0.666c0.095,0.272,0.392,0.418,0.665,0.322C185.943,51.61,186.088,51.312,185.993,51.039"/>
	<path id="path11932_1_" inkscape:connector-curvature="0" fill="#4A525C" d="M188.762,50.698c-0.095-0.272-0.393-0.418-0.665-0.324
		c-0.274,0.095-0.419,0.392-0.324,0.666c0.095,0.272,0.392,0.418,0.665,0.322C188.712,51.269,188.857,50.97,188.762,50.698"/>
	<path id="path11936_1_" inkscape:connector-curvature="0" fill="#4A525C" d="M191.532,50.356c-0.095-0.272-0.393-0.418-0.665-0.322
		c-0.274,0.094-0.419,0.392-0.324,0.665c0.095,0.272,0.392,0.418,0.665,0.322C191.482,50.928,191.627,50.629,191.532,50.356"/>
	<path id="path11940_1_" inkscape:connector-curvature="0" fill="#4A525C" d="M194.3,50.015c-0.095-0.272-0.392-0.418-0.665-0.324
		c-0.274,0.095-0.419,0.392-0.324,0.666c0.095,0.272,0.393,0.418,0.665,0.322C194.25,50.586,194.395,50.288,194.3,50.015"/>
	<path id="path11944_1_" inkscape:connector-curvature="0" fill="#4A525C" d="M197.07,49.675c-0.095-0.272-0.392-0.418-0.665-0.324
		c-0.274,0.095-0.419,0.392-0.324,0.666c0.095,0.272,0.393,0.418,0.665,0.322C197.02,50.246,197.165,49.947,197.07,49.675"/>
	<path id="path11948_1_" inkscape:connector-curvature="0" fill="#4A525C" d="M199.839,49.333c-0.095-0.272-0.392-0.418-0.665-0.324
		c-0.274,0.095-0.419,0.392-0.324,0.666c0.095,0.272,0.393,0.418,0.665,0.322C199.789,49.904,199.934,49.606,199.839,49.333"/>
	<path id="path11952_1_" inkscape:connector-curvature="0" fill="#4A525C" d="M182.847,48.615c-0.095-0.272-0.392-0.418-0.665-0.322
		c-0.274,0.094-0.418,0.392-0.324,0.665c0.095,0.272,0.393,0.418,0.665,0.322C182.797,49.187,182.942,48.888,182.847,48.615"/>
	<path id="path11956_1_" inkscape:connector-curvature="0" fill="#4A525C" d="M185.617,48.274c-0.095-0.272-0.392-0.418-0.665-0.322
		c-0.274,0.094-0.418,0.392-0.324,0.665c0.095,0.272,0.393,0.418,0.665,0.322C185.567,48.845,185.712,48.546,185.617,48.274"/>
	<path id="path11960_1_" inkscape:connector-curvature="0" fill="#4A525C" d="M185.24,45.51c-0.095-0.272-0.393-0.418-0.665-0.324
		c-0.274,0.095-0.418,0.392-0.324,0.666c0.095,0.272,0.392,0.418,0.665,0.322C185.19,46.081,185.335,45.782,185.24,45.51"/>
	<path id="path11964_1_" inkscape:connector-curvature="0" fill="#4A525C" d="M188.386,47.933c-0.095-0.272-0.393-0.418-0.665-0.324
		c-0.274,0.095-0.419,0.392-0.324,0.666c0.095,0.272,0.392,0.418,0.665,0.322C188.336,48.504,188.481,48.206,188.386,47.933"/>
	<path id="path11968_1_" inkscape:connector-curvature="0" fill="#4A525C" d="M188.01,45.168c-0.095-0.272-0.392-0.418-0.665-0.324
		c-0.274,0.095-0.419,0.392-0.324,0.666c0.095,0.272,0.393,0.418,0.665,0.322C187.96,45.739,188.105,45.441,188.01,45.168"/>
	<path id="path11972_1_" inkscape:connector-curvature="0" fill="#4A525C" d="M191.155,47.592c-0.095-0.272-0.393-0.418-0.665-0.324
		c-0.274,0.095-0.419,0.392-0.324,0.666c0.095,0.272,0.392,0.418,0.665,0.322C191.105,48.163,191.25,47.864,191.155,47.592"/>
	<path id="path11976_1_" inkscape:connector-curvature="0" fill="#4A525C" d="M190.779,44.828c-0.095-0.272-0.392-0.418-0.665-0.324
		c-0.274,0.095-0.419,0.392-0.324,0.666c0.095,0.272,0.393,0.418,0.665,0.322C190.729,45.399,190.874,45.1,190.779,44.828"/>
	<path id="path11980_1_" inkscape:connector-curvature="0" fill="#4A525C" d="M193.924,47.251c-0.095-0.272-0.393-0.418-0.665-0.324
		c-0.274,0.095-0.418,0.392-0.324,0.666c0.095,0.272,0.392,0.418,0.665,0.322C193.874,47.822,194.019,47.523,193.924,47.251"/>
	<path id="path11984_1_" inkscape:connector-curvature="0" fill="#4A525C" d="M193.548,44.486c-0.095-0.272-0.393-0.418-0.665-0.324
		c-0.274,0.095-0.419,0.392-0.324,0.666c0.095,0.272,0.392,0.418,0.665,0.322C193.498,45.058,193.643,44.759,193.548,44.486"/>
	<path id="path11988_1_" inkscape:connector-curvature="0" fill="#4A525C" d="M196.693,46.909c-0.095-0.272-0.392-0.418-0.665-0.324
		c-0.274,0.095-0.418,0.394-0.324,0.666c0.095,0.272,0.393,0.418,0.665,0.322C196.643,47.48,196.788,47.182,196.693,46.909"/>
	<path id="path11992_1_" inkscape:connector-curvature="0" fill="#4A525C" d="M196.317,44.145c-0.095-0.272-0.393-0.418-0.665-0.324
		c-0.274,0.095-0.419,0.392-0.324,0.666c0.095,0.272,0.392,0.418,0.665,0.322C196.267,44.716,196.412,44.417,196.317,44.145"/>
	<path id="path11996_1_" inkscape:connector-curvature="0" fill="#4A525C" d="M199.463,46.569c-0.095-0.272-0.392-0.418-0.665-0.324
		c-0.274,0.095-0.419,0.392-0.324,0.666c0.095,0.272,0.393,0.418,0.665,0.322C199.413,47.14,199.558,46.841,199.463,46.569"/>
	<path id="path12000_1_" inkscape:connector-curvature="0" fill="#4A525C" d="M170.13,58.615c-0.095-0.272-0.392-0.418-0.665-0.324
		c-0.274,0.095-0.419,0.392-0.324,0.666c0.095,0.272,0.393,0.418,0.665,0.322C170.08,59.186,170.225,58.888,170.13,58.615"/>
	<path id="path12004_1_" inkscape:connector-curvature="0" fill="#4A525C" d="M172.9,58.274c-0.095-0.272-0.393-0.418-0.665-0.324
		c-0.274,0.095-0.419,0.392-0.324,0.666c0.095,0.272,0.392,0.418,0.665,0.322C172.85,58.845,172.995,58.546,172.9,58.274"/>
	<path id="path12008_1_" inkscape:connector-curvature="0" fill="#4A525C" d="M175.669,57.933c-0.095-0.272-0.392-0.418-0.665-0.324
		c-0.274,0.095-0.418,0.392-0.324,0.666c0.095,0.272,0.393,0.418,0.665,0.322C175.619,58.504,175.764,58.205,175.669,57.933"/>
	<path id="path12012_1_" inkscape:connector-curvature="0" fill="#4A525C" d="M178.438,57.592c-0.095-0.272-0.393-0.418-0.665-0.324
		c-0.274,0.095-0.419,0.392-0.324,0.666c0.095,0.272,0.392,0.418,0.665,0.322C178.388,58.163,178.533,57.864,178.438,57.592"/>
	<path id="path12016_1_" inkscape:connector-curvature="0" fill="#4A525C" d="M181.207,57.25c-0.095-0.272-0.393-0.418-0.665-0.324
		c-0.274,0.095-0.418,0.392-0.324,0.666c0.095,0.272,0.392,0.418,0.665,0.322C181.157,57.821,181.302,57.523,181.207,57.25"/>
	<path id="path12020_1_" inkscape:connector-curvature="0" fill="#4A525C" d="M183.976,56.909c-0.095-0.272-0.392-0.418-0.665-0.322
		c-0.274,0.094-0.418,0.392-0.324,0.665c0.095,0.272,0.393,0.418,0.666,0.322C183.926,57.481,184.071,57.182,183.976,56.909"/>
	<path id="path12024_1_" inkscape:connector-curvature="0" fill="#4A525C" d="M186.745,56.568c-0.095-0.272-0.392-0.418-0.665-0.322
		c-0.274,0.094-0.418,0.392-0.324,0.665c0.095,0.272,0.393,0.418,0.665,0.322C186.695,57.139,186.84,56.841,186.745,56.568"/>
	<path id="path12028_1_" inkscape:connector-curvature="0" fill="#4A525C" d="M189.515,56.227c-0.095-0.272-0.392-0.418-0.665-0.324
		c-0.274,0.095-0.418,0.392-0.324,0.666c0.095,0.272,0.393,0.418,0.666,0.322C189.465,56.798,189.61,56.5,189.515,56.227"/>
	<path id="path12032_1_" inkscape:connector-curvature="0" fill="#4A525C" d="M192.284,55.886c-0.095-0.272-0.392-0.418-0.665-0.324
		c-0.274,0.095-0.419,0.392-0.324,0.666c0.095,0.272,0.393,0.418,0.665,0.322C192.234,56.457,192.379,56.159,192.284,55.886"/>
	<path id="path12036_1_" inkscape:connector-curvature="0" fill="#4A525C" d="M195.053,55.545c-0.095-0.272-0.392-0.418-0.665-0.324
		c-0.274,0.095-0.418,0.392-0.324,0.666c0.095,0.272,0.393,0.418,0.666,0.322C195.003,56.116,195.148,55.817,195.053,55.545"/>
	<path id="path12040_1_" inkscape:connector-curvature="0" fill="#4A525C" d="M197.822,55.203c-0.095-0.272-0.393-0.418-0.665-0.324
		c-0.274,0.095-0.419,0.392-0.324,0.666c0.095,0.272,0.392,0.418,0.665,0.322C197.772,55.774,197.917,55.476,197.822,55.203"/>
	<path id="path12044_1_" inkscape:connector-curvature="0" fill="#4A525C" d="M200.591,54.862c-0.095-0.272-0.393-0.418-0.665-0.324
		c-0.274,0.095-0.418,0.394-0.324,0.666c0.095,0.272,0.392,0.418,0.665,0.322C200.541,55.433,200.686,55.134,200.591,54.862"/>
	<path id="path12048_1_" inkscape:connector-curvature="0" fill="#4A525C" d="M186.646,56.602c-0.075-0.219-0.314-0.334-0.533-0.259
		c-0.218,0.076-0.334,0.314-0.259,0.532c0.076,0.219,0.315,0.334,0.532,0.259C186.606,57.06,186.723,56.821,186.646,56.602"/>
	<path id="path12052_1_" inkscape:connector-curvature="0" fill="#4A525C" d="M186.27,53.838c-0.076-0.219-0.314-0.334-0.532-0.259
		c-0.219,0.076-0.334,0.314-0.259,0.532c0.076,0.219,0.314,0.334,0.533,0.259C186.23,54.294,186.345,54.057,186.27,53.838"/>
	<path id="path12056_1_" inkscape:connector-curvature="0" fill="#4A525C" d="M185.894,51.073c-0.075-0.219-0.314-0.334-0.532-0.259
		c-0.218,0.076-0.334,0.314-0.259,0.532c0.076,0.219,0.315,0.334,0.533,0.259C185.854,51.53,185.969,51.292,185.894,51.073"/>
	<path id="path12060_1_" inkscape:connector-curvature="0" fill="#4A525C" d="M185.518,48.308c-0.075-0.219-0.314-0.334-0.533-0.259
		c-0.218,0.076-0.334,0.314-0.259,0.532c0.076,0.219,0.315,0.334,0.532,0.259C185.478,48.766,185.594,48.527,185.518,48.308"/>
	<path id="path12064_1_" inkscape:connector-curvature="0" fill="#4A525C" d="M185.142,45.544c-0.076-0.219-0.314-0.334-0.533-0.259
		c-0.219,0.076-0.334,0.314-0.259,0.532c0.076,0.219,0.314,0.334,0.532,0.259C185.102,46,185.217,45.763,185.142,45.544"/>
	<path id="path12068_1_" inkscape:connector-curvature="0" fill="#4A525C" d="M189.416,56.261c-0.076-0.219-0.314-0.334-0.533-0.259
		c-0.219,0.076-0.334,0.314-0.259,0.532c0.076,0.219,0.314,0.334,0.532,0.259C189.376,56.718,189.491,56.48,189.416,56.261"/>
	<path id="path12072_1_" inkscape:connector-curvature="0" fill="#4A525C" d="M189.04,53.497c-0.076-0.219-0.314-0.334-0.532-0.259
		c-0.219,0.076-0.334,0.314-0.259,0.532c0.076,0.219,0.314,0.334,0.533,0.259C189,53.953,189.115,53.715,189.04,53.497"/>
	<path id="path12076_1_" inkscape:connector-curvature="0" fill="#4A525C" d="M188.663,50.732c-0.075-0.219-0.314-0.334-0.532-0.259
		c-0.219,0.076-0.334,0.314-0.259,0.532c0.076,0.219,0.314,0.334,0.533,0.259C188.623,51.188,188.738,50.951,188.663,50.732"/>
	<path id="path12080_1_" inkscape:connector-curvature="0" fill="#4A525C" d="M188.287,47.967c-0.075-0.219-0.314-0.334-0.533-0.259
		c-0.218,0.076-0.334,0.314-0.259,0.532c0.076,0.219,0.315,0.334,0.532,0.259C188.247,48.424,188.362,48.186,188.287,47.967"/>
	<path id="path12084_1_" inkscape:connector-curvature="0" fill="#4A525C" d="M187.911,45.202c-0.075-0.219-0.314-0.334-0.533-0.259
		c-0.219,0.076-0.334,0.314-0.259,0.532c0.076,0.219,0.314,0.334,0.532,0.259C187.871,45.659,187.986,45.421,187.911,45.202"/>
	<path id="path12088_1_" inkscape:connector-curvature="0" fill="#4A525C" d="M192.185,55.92c-0.075-0.219-0.314-0.334-0.533-0.259
		c-0.218,0.076-0.334,0.314-0.259,0.532c0.076,0.219,0.315,0.334,0.532,0.259C192.145,56.378,192.261,56.139,192.185,55.92"/>
	<path id="path12092_1_" inkscape:connector-curvature="0" fill="#4A525C" d="M191.809,53.155c-0.075-0.219-0.314-0.334-0.532-0.259
		c-0.219,0.076-0.334,0.314-0.259,0.532c0.076,0.219,0.315,0.334,0.533,0.259C191.769,53.612,191.884,53.374,191.809,53.155"/>
	<path id="path12096_1_" inkscape:connector-curvature="0" fill="#4A525C" d="M191.433,50.391c-0.075-0.219-0.314-0.334-0.532-0.259
		c-0.219,0.076-0.334,0.314-0.259,0.532c0.076,0.219,0.314,0.335,0.533,0.259C191.393,50.848,191.509,50.609,191.433,50.391"/>
	<path id="path12100_1_" inkscape:connector-curvature="0" fill="#4A525C" d="M191.056,47.626c-0.075-0.219-0.314-0.334-0.532-0.259
		c-0.218,0.076-0.334,0.314-0.259,0.532c0.076,0.219,0.315,0.334,0.533,0.259C191.016,48.084,191.133,47.845,191.056,47.626"/>
	<path id="path12104_1_" inkscape:connector-curvature="0" fill="#4A525C" d="M190.68,44.862c-0.076-0.219-0.314-0.334-0.533-0.259
		c-0.219,0.076-0.334,0.314-0.259,0.532c0.076,0.219,0.314,0.334,0.532,0.259C190.64,45.318,190.755,45.081,190.68,44.862"/>
	<path id="path12108_1_" inkscape:connector-curvature="0" fill="#4A525C" d="M194.954,55.579c-0.075-0.219-0.314-0.334-0.533-0.259
		c-0.219,0.076-0.334,0.314-0.259,0.532c0.076,0.219,0.314,0.335,0.532,0.259C194.914,56.036,195.03,55.798,194.954,55.579"/>
	<path id="path12112_1_" inkscape:connector-curvature="0" fill="#4A525C" d="M194.578,52.814c-0.076-0.219-0.314-0.334-0.532-0.259
		c-0.219,0.076-0.334,0.314-0.259,0.532c0.076,0.219,0.314,0.334,0.533,0.259C194.538,53.271,194.653,53.033,194.578,52.814"/>
	<path id="path12116_1_" inkscape:connector-curvature="0" fill="#4A525C" d="M194.202,50.049c-0.075-0.219-0.314-0.334-0.532-0.259
		c-0.218,0.076-0.334,0.314-0.259,0.532c0.076,0.219,0.315,0.334,0.533,0.259C194.162,50.506,194.277,50.268,194.202,50.049"/>
	<path id="path12120_1_" inkscape:connector-curvature="0" fill="#4A525C" d="M193.825,47.285c-0.075-0.219-0.314-0.334-0.532-0.259
		c-0.219,0.076-0.334,0.314-0.259,0.532c0.076,0.219,0.314,0.335,0.533,0.259C193.785,47.742,193.902,47.504,193.825,47.285"/>
	<path id="path12124_1_" inkscape:connector-curvature="0" fill="#4A525C" d="M193.449,44.521c-0.076-0.219-0.314-0.334-0.533-0.259
		s-0.334,0.314-0.259,0.532c0.076,0.219,0.315,0.334,0.532,0.259C193.409,44.977,193.524,44.739,193.449,44.521"/>
	<path id="path12128_1_" inkscape:connector-curvature="0" fill="#4A525C" d="M197.723,55.238c-0.075-0.219-0.314-0.334-0.532-0.259
		c-0.219,0.076-0.334,0.314-0.259,0.532c0.076,0.219,0.314,0.335,0.533,0.259C197.683,55.695,197.8,55.456,197.723,55.238"/>
	<path id="path12132_1_" inkscape:connector-curvature="0" fill="#4A525C" d="M197.347,52.473c-0.076-0.219-0.314-0.334-0.533-0.259
		c-0.219,0.076-0.334,0.314-0.259,0.532c0.076,0.219,0.314,0.334,0.532,0.259C197.307,52.93,197.422,52.692,197.347,52.473"/>
	<path id="path12136_1_" inkscape:connector-curvature="0" fill="#4A525C" d="M196.971,49.709c-0.075-0.219-0.314-0.334-0.533-0.259
		c-0.219,0.076-0.334,0.314-0.259,0.532c0.076,0.219,0.314,0.334,0.532,0.259C196.931,50.165,197.046,49.927,196.971,49.709"/>
	<path id="path12140_1_" inkscape:connector-curvature="0" fill="#4A525C" d="M196.594,46.944c-0.075-0.219-0.314-0.334-0.532-0.259
		c-0.218,0.076-0.334,0.314-0.259,0.532c0.076,0.219,0.315,0.334,0.533,0.259C196.554,47.401,196.671,47.162,196.594,46.944"/>
	<path id="path12144_1_" inkscape:connector-curvature="0" fill="#4A525C" d="M196.218,44.179c-0.076-0.219-0.314-0.334-0.533-0.259
		c-0.219,0.076-0.334,0.314-0.259,0.532c0.076,0.219,0.314,0.334,0.532,0.259C196.178,44.635,196.293,44.398,196.218,44.179"/>
	<path id="path12148_1_" inkscape:connector-curvature="0" fill="#4A525C" d="M171.672,50.014c-0.076-0.219-0.314-0.334-0.533-0.259
		c-0.219,0.076-0.334,0.314-0.259,0.532c0.076,0.219,0.314,0.334,0.532,0.259C171.632,50.471,171.747,50.233,171.672,50.014"/>
	<path id="path12152_1_" inkscape:connector-curvature="0" fill="#4A525C" d="M172.425,55.543c-0.075-0.219-0.314-0.334-0.533-0.259
		c-0.219,0.076-0.334,0.314-0.259,0.532c0.076,0.219,0.314,0.334,0.532,0.259C172.385,56,172.5,55.762,172.425,55.543"/>
	<path id="path12156_1_" inkscape:connector-curvature="0" fill="#4A525C" d="M172.048,52.779c-0.075-0.219-0.314-0.334-0.532-0.259
		c-0.218,0.076-0.334,0.314-0.259,0.532c0.076,0.219,0.315,0.334,0.533,0.259C172.008,53.236,172.124,52.998,172.048,52.779"/>
	<path id="path12160_1_" inkscape:connector-curvature="0" fill="#4A525C" d="M172.801,58.308c-0.076-0.219-0.314-0.334-0.533-0.259
		c-0.219,0.076-0.334,0.314-0.259,0.532c0.076,0.219,0.315,0.334,0.532,0.259C172.761,58.764,172.876,58.527,172.801,58.308"/>
	<path id="path12164_1_" inkscape:connector-curvature="0" fill="#4A525C" d="M174.441,49.673c-0.075-0.219-0.314-0.334-0.533-0.259
		c-0.219,0.076-0.334,0.314-0.259,0.532c0.076,0.219,0.314,0.334,0.532,0.259C174.401,50.129,174.516,49.892,174.441,49.673"/>
	<path id="path12168_1_" inkscape:connector-curvature="0" fill="#4A525C" d="M175.194,55.203c-0.075-0.219-0.314-0.334-0.532-0.259
		c-0.219,0.076-0.334,0.314-0.259,0.532c0.076,0.219,0.314,0.334,0.533,0.259C175.154,55.659,175.269,55.421,175.194,55.203"/>
	<path id="path12172_1_" inkscape:connector-curvature="0" fill="#4A525C" d="M174.818,52.437c-0.075-0.219-0.314-0.334-0.533-0.259
		c-0.219,0.076-0.334,0.314-0.259,0.532c0.076,0.219,0.314,0.335,0.532,0.259C174.777,52.895,174.894,52.656,174.818,52.437"/>
	<path id="path12176_1_" inkscape:connector-curvature="0" fill="#4A525C" d="M175.57,57.967c-0.075-0.219-0.314-0.334-0.533-0.259
		c-0.219,0.076-0.334,0.314-0.259,0.532c0.076,0.219,0.314,0.335,0.532,0.259C175.53,58.424,175.645,58.186,175.57,57.967"/>
	<path id="path12180_1_" inkscape:connector-curvature="0" fill="#4A525C" d="M177.21,49.332c-0.076-0.219-0.314-0.334-0.532-0.259
		c-0.219,0.076-0.334,0.314-0.259,0.532c0.076,0.219,0.314,0.334,0.533,0.259C177.17,49.788,177.285,49.551,177.21,49.332"/>
	<path id="path12184_1_" inkscape:connector-curvature="0" fill="#4A525C" d="M177.963,54.861c-0.075-0.219-0.314-0.334-0.532-0.259
		c-0.219,0.076-0.334,0.314-0.259,0.532c0.076,0.219,0.314,0.334,0.533,0.259C177.923,55.318,178.038,55.08,177.963,54.861"/>
	<path id="path12188_1_" inkscape:connector-curvature="0" fill="#4A525C" d="M177.587,52.097c-0.075-0.219-0.314-0.334-0.532-0.259
		c-0.219,0.076-0.334,0.314-0.259,0.532c0.076,0.219,0.314,0.335,0.533,0.259C177.547,52.554,177.662,52.315,177.587,52.097"/>
	<path id="path12192_1_" inkscape:connector-curvature="0" fill="#4A525C" d="M178.339,57.626c-0.076-0.219-0.314-0.334-0.532-0.259
		s-0.334,0.314-0.259,0.532c0.076,0.219,0.315,0.334,0.533,0.259C178.299,58.082,178.414,57.845,178.339,57.626"/>
	<path id="path12196_1_" inkscape:connector-curvature="0" fill="#4A525C" d="M179.979,48.991c-0.075-0.219-0.314-0.334-0.533-0.259
		c-0.219,0.076-0.334,0.314-0.259,0.532c0.076,0.219,0.314,0.335,0.532,0.259C179.939,49.448,180.056,49.21,179.979,48.991"/>
	<path id="path12200_1_" inkscape:connector-curvature="0" fill="#4A525C" d="M180.732,54.52c-0.075-0.219-0.314-0.334-0.532-0.259
		c-0.218,0.076-0.334,0.314-0.259,0.532c0.076,0.219,0.315,0.334,0.533,0.259C180.692,54.976,180.807,54.739,180.732,54.52"/>
	<path id="path12204_1_" inkscape:connector-curvature="0" fill="#4A525C" d="M180.356,51.755c-0.075-0.219-0.314-0.334-0.532-0.259
		c-0.219,0.076-0.334,0.314-0.259,0.532c0.076,0.219,0.314,0.334,0.533,0.259C180.316,52.212,180.431,51.974,180.356,51.755"/>
	<path id="path12208_1_" inkscape:connector-curvature="0" fill="#4A525C" d="M181.108,57.284c-0.076-0.219-0.314-0.334-0.532-0.259
		c-0.219,0.076-0.334,0.314-0.259,0.532c0.076,0.219,0.314,0.334,0.533,0.259C181.068,57.741,181.183,57.503,181.108,57.284"/>
	<path id="path12212_1_" inkscape:connector-curvature="0" fill="#4A525C" d="M182.749,48.65c-0.075-0.219-0.314-0.334-0.532-0.259
		c-0.219,0.076-0.334,0.314-0.259,0.532c0.076,0.219,0.314,0.335,0.533,0.259C182.709,49.107,182.825,48.868,182.749,48.65"/>
	<path id="path12216_1_" inkscape:connector-curvature="0" fill="#4A525C" d="M183.501,54.179c-0.075-0.219-0.314-0.334-0.532-0.259
		c-0.219,0.076-0.334,0.314-0.259,0.532c0.076,0.219,0.314,0.334,0.533,0.259C183.461,54.635,183.576,54.397,183.501,54.179"/>
	<path id="path12220_1_" inkscape:connector-curvature="0" fill="#4A525C" d="M183.125,51.414c-0.075-0.219-0.314-0.334-0.533-0.259
		c-0.218,0.076-0.334,0.314-0.259,0.532c0.076,0.219,0.315,0.334,0.532,0.259C183.085,51.872,183.2,51.633,183.125,51.414"/>
	<path id="path12224_1_" inkscape:connector-curvature="0" fill="#4A525C" d="M183.877,56.944c-0.075-0.219-0.314-0.334-0.533-0.259
		c-0.219,0.076-0.334,0.314-0.259,0.532c0.076,0.219,0.314,0.335,0.532,0.259C183.837,57.401,183.954,57.162,183.877,56.944"/>
	<path id="path12228_1_" inkscape:connector-curvature="0" fill="#4A525C" d="M167.262,58.991c-0.076-0.219-0.314-0.334-0.532-0.259
		c-0.219,0.076-0.334,0.314-0.259,0.532c0.076,0.219,0.315,0.334,0.533,0.259C167.222,59.447,167.337,59.209,167.262,58.991"/>
	<path id="path12232_1_" inkscape:connector-curvature="0" fill="#4A525C" d="M166.886,56.226c-0.075-0.219-0.314-0.334-0.532-0.259
		c-0.219,0.076-0.334,0.314-0.259,0.532c0.076,0.219,0.314,0.334,0.533,0.259C166.846,56.682,166.961,56.445,166.886,56.226"/>
	<path id="path12236_1_" inkscape:connector-curvature="0" fill="#4A525C" d="M166.51,53.461c-0.075-0.219-0.314-0.334-0.532-0.259
		c-0.218,0.076-0.334,0.314-0.259,0.532c0.076,0.219,0.315,0.334,0.533,0.259C166.47,53.918,166.586,53.68,166.51,53.461"/>
	<path id="path12240_1_" inkscape:connector-curvature="0" fill="#4A525C" d="M170.032,58.649c-0.076-0.219-0.314-0.334-0.532-0.259
		c-0.219,0.076-0.334,0.314-0.259,0.532c0.076,0.219,0.314,0.334,0.533,0.259C169.992,59.105,170.107,58.868,170.032,58.649"/>
	<path id="path12244_1_" inkscape:connector-curvature="0" fill="#4A525C" d="M169.655,55.885c-0.075-0.219-0.314-0.334-0.533-0.259
		c-0.218,0.076-0.334,0.314-0.259,0.532c0.076,0.219,0.315,0.334,0.532,0.259C169.615,56.341,169.73,56.103,169.655,55.885"/>
	<path id="path12248_1_" inkscape:connector-curvature="0" fill="#4A525C" d="M169.279,53.12c-0.075-0.219-0.314-0.334-0.532-0.259
		c-0.218,0.076-0.334,0.314-0.259,0.532c0.076,0.219,0.315,0.334,0.533,0.259C169.239,53.578,169.355,53.339,169.279,53.12"/>
	<path id="path12252_1_" inkscape:connector-curvature="0" fill="#4A525C" d="M164.493,59.332c-0.076-0.219-0.314-0.334-0.533-0.259
		c-0.219,0.076-0.334,0.314-0.259,0.532c0.076,0.219,0.315,0.334,0.532,0.259C164.453,59.788,164.568,59.551,164.493,59.332"/>
	<path id="path12256_1_" inkscape:connector-curvature="0" fill="#4A525C" d="M164.117,56.567c-0.075-0.219-0.314-0.334-0.532-0.259
		c-0.218,0.076-0.334,0.314-0.259,0.532c0.076,0.219,0.315,0.334,0.533,0.259C164.077,57.023,164.192,56.785,164.117,56.567"/>
	<path id="path12260_1_" inkscape:connector-curvature="0" fill="#4A525C" d="M199.364,46.603c-0.075-0.219-0.314-0.334-0.532-0.259
		c-0.219,0.076-0.334,0.314-0.259,0.532c0.076,0.219,0.314,0.335,0.533,0.259C199.324,47.06,199.439,46.821,199.364,46.603"/>
	<path id="path12264_1_" inkscape:connector-curvature="0" fill="#4A525C" d="M200.492,54.896c-0.075-0.219-0.314-0.334-0.533-0.259
		c-0.218,0.076-0.334,0.314-0.259,0.532c0.076,0.219,0.315,0.334,0.532,0.259C200.452,55.354,200.569,55.115,200.492,54.896"/>
	<path id="path12268_1_" inkscape:connector-curvature="0" fill="#4A525C" d="M200.116,52.132c-0.076-0.219-0.314-0.334-0.533-0.259
		c-0.219,0.076-0.334,0.314-0.259,0.532c0.076,0.219,0.314,0.334,0.532,0.259C200.076,52.588,200.191,52.351,200.116,52.132"/>
	<path id="path12272_1_" inkscape:connector-curvature="0" fill="#4A525C" d="M199.74,49.367c-0.075-0.219-0.314-0.334-0.532-0.259
		c-0.218,0.076-0.334,0.314-0.259,0.532c0.076,0.219,0.315,0.334,0.533,0.259C199.7,49.824,199.815,49.586,199.74,49.367"/>
	
		<path id="path12276_1_" inkscape:connector-curvature="0" fill="none" stroke="#808081" stroke-width="0.18" stroke-linecap="round" stroke-linejoin="round" stroke-miterlimit="10" d="
		M57.15,63.958c-0.047-0.295-0.325-0.495-0.62-0.446c-0.294,0.047-0.494,0.325-0.446,0.619c0.047,0.295,0.325,0.495,0.62,0.448
		C56.997,64.531,57.197,64.253,57.15,63.958z"/>
	
		<path id="path12280_1_" inkscape:connector-curvature="0" fill="none" stroke="#808081" stroke-width="0.18" stroke-linecap="round" stroke-linejoin="round" stroke-miterlimit="10" d="
		M63.482,64.086c-0.047-0.295-0.325-0.495-0.62-0.446c-0.294,0.047-0.494,0.325-0.446,0.619c0.047,0.295,0.325,0.495,0.62,0.448
		C63.33,64.659,63.53,64.381,63.482,64.086z"/>
	
		<path id="path12284_1_" inkscape:connector-curvature="0" fill="none" stroke="#808081" stroke-width="0.18" stroke-linecap="round" stroke-linejoin="round" stroke-miterlimit="10" d="
		M63.22,69.672c-0.047-0.295-0.325-0.495-0.62-0.446c-0.295,0.047-0.495,0.325-0.446,0.619c0.047,0.295,0.325,0.495,0.62,0.448
		C63.067,70.244,63.267,69.967,63.22,69.672z"/>
	
		<path id="path12288_1_" inkscape:connector-curvature="0" fill="none" stroke="#808081" stroke-width="0.18" stroke-linecap="round" stroke-linejoin="round" stroke-miterlimit="10" d="
		M56.886,69.528c-0.047-0.295-0.325-0.495-0.62-0.446c-0.294,0.047-0.494,0.325-0.446,0.619c0.047,0.295,0.325,0.495,0.62,0.448
		C56.733,70.1,56.933,69.823,56.886,69.528z"/>
	
		<path id="path12292_1_" inkscape:connector-curvature="0" fill="none" stroke="#808081" stroke-width="0.18" stroke-linecap="round" stroke-linejoin="round" stroke-miterlimit="10" d="
		M69.552,69.797c-0.047-0.295-0.325-0.495-0.62-0.446c-0.294,0.047-0.494,0.325-0.446,0.619c0.047,0.295,0.325,0.495,0.62,0.448
		C69.4,70.37,69.6,70.092,69.552,69.797z"/>
	
		<path id="path12296_1_" inkscape:connector-curvature="0" fill="none" stroke="#808081" stroke-width="0.18" stroke-linecap="round" stroke-linejoin="round" stroke-miterlimit="10" d="
		M75.883,69.904c-0.047-0.295-0.325-0.495-0.62-0.446c-0.294,0.047-0.494,0.325-0.446,0.619c0.047,0.295,0.325,0.495,0.62,0.448
		C75.731,70.477,75.931,70.199,75.883,69.904z"/>
	
		<path id="path12300_1_" inkscape:connector-curvature="0" fill="none" stroke="#808081" stroke-width="0.18" stroke-linecap="round" stroke-linejoin="round" stroke-miterlimit="10" d="
		M82.214,70c-0.047-0.295-0.325-0.495-0.62-0.446c-0.295,0.047-0.495,0.325-0.446,0.619c0.047,0.295,0.325,0.495,0.62,0.448
		C82.061,70.573,82.261,70.295,82.214,70z"/>
	
		<path id="path12304_1_" inkscape:connector-curvature="0" fill="none" stroke="#808081" stroke-width="0.116" stroke-linecap="round" stroke-linejoin="round" stroke-miterlimit="10" d="
		M98.241,44.28c-0.126-0.329-0.496-0.494-0.826-0.366c-0.329,0.126-0.493,0.496-0.366,0.825c0.126,0.33,0.496,0.494,0.825,0.368
		C98.203,44.979,98.367,44.609,98.241,44.28z"/>
	
		<path id="path12308_1_" inkscape:connector-curvature="0" fill="none" stroke="#808081" stroke-width="0.116" stroke-linecap="round" stroke-linejoin="round" stroke-miterlimit="10" d="
		M100.996,43.465c-0.126-0.329-0.496-0.494-0.826-0.368c-0.329,0.127-0.493,0.498-0.366,0.826c0.126,0.33,0.496,0.494,0.826,0.368
		C100.958,44.164,101.122,43.794,100.996,43.465z"/>
	
		<path id="path12312_1_" inkscape:connector-curvature="0" fill="none" stroke="#808081" stroke-width="0.116" stroke-linecap="round" stroke-linejoin="round" stroke-miterlimit="10" d="
		M101.856,46.845c-0.126-0.329-0.496-0.494-0.826-0.366c-0.329,0.126-0.493,0.496-0.366,0.825c0.126,0.33,0.496,0.494,0.826,0.368
		C101.818,47.544,101.982,47.175,101.856,46.845z"/>
	
		<path id="path12316_1_" inkscape:connector-curvature="0" fill="none" stroke="#808081" stroke-width="0.116" stroke-linecap="round" stroke-linejoin="round" stroke-miterlimit="10" d="
		M105.2,49.514c-0.069-0.18-0.271-0.269-0.45-0.2c-0.18,0.069-0.27,0.27-0.2,0.45c0.069,0.18,0.27,0.27,0.45,0.2
		C105.18,49.895,105.269,49.694,105.2,49.514z"/>
	
		<path id="path12320_1_" inkscape:connector-curvature="0" fill="none" stroke="#808081" stroke-width="0.116" stroke-linecap="round" stroke-linejoin="round" stroke-miterlimit="10" d="
		M104.615,46.029c-0.126-0.33-0.496-0.494-0.826-0.368c-0.329,0.127-0.494,0.496-0.366,0.826c0.126,0.33,0.496,0.494,0.825,0.368
		C104.577,46.727,104.741,46.357,104.615,46.029z"/>
	
		<path id="path12324_1_" inkscape:connector-curvature="0" fill="none" stroke="#808081" stroke-width="0.116" stroke-linecap="round" stroke-linejoin="round" stroke-miterlimit="10" d="
		M108.233,48.592c-0.126-0.329-0.496-0.494-0.826-0.366c-0.329,0.126-0.493,0.496-0.366,0.825c0.126,0.33,0.496,0.494,0.825,0.368
		C108.195,49.291,108.359,48.921,108.233,48.592z"/>
	
		<path id="path12328_1_" inkscape:connector-curvature="0" fill="none" stroke="#808081" stroke-width="0.116" stroke-linecap="round" stroke-linejoin="round" stroke-miterlimit="10" d="
		M109.417,52.506c-0.069-0.18-0.271-0.269-0.45-0.2c-0.18,0.069-0.27,0.271-0.2,0.45c0.069,0.18,0.27,0.27,0.45,0.2
		C109.397,52.888,109.486,52.686,109.417,52.506z"/>
	
		<path id="path12332_1_" inkscape:connector-curvature="0" fill="none" stroke="#808081" stroke-width="0.116" stroke-linecap="round" stroke-linejoin="round" stroke-miterlimit="10" d="
		M112.184,51.688c-0.069-0.18-0.271-0.269-0.45-0.2c-0.18,0.069-0.27,0.271-0.2,0.45c0.069,0.18,0.27,0.27,0.45,0.2
		C112.164,52.069,112.253,51.868,112.184,51.688z"/>
	
		<path id="path12336_1_" inkscape:connector-curvature="0" fill="none" stroke="#808081" stroke-width="0.116" stroke-linecap="round" stroke-linejoin="round" stroke-miterlimit="10" d="
		M113.634,55.499c-0.069-0.18-0.271-0.269-0.45-0.2c-0.18,0.069-0.27,0.271-0.2,0.45c0.069,0.18,0.27,0.27,0.45,0.2
		C113.614,55.88,113.703,55.679,113.634,55.499z"/>
	
		<path id="path12340_1_" inkscape:connector-curvature="0" fill="none" stroke="#808081" stroke-width="0.116" stroke-linecap="round" stroke-linejoin="round" stroke-miterlimit="10" d="
		M116.406,54.679c-0.069-0.18-0.271-0.269-0.45-0.2c-0.18,0.069-0.27,0.27-0.2,0.45c0.069,0.18,0.27,0.27,0.45,0.2
		C116.386,55.06,116.474,54.859,116.406,54.679z"/>
	
		<path id="path12344_1_" inkscape:connector-curvature="0" fill="none" stroke="#808081" stroke-width="0.116" stroke-linecap="round" stroke-linejoin="round" stroke-miterlimit="10" d="
		M117.852,58.491c-0.069-0.18-0.271-0.269-0.45-0.2c-0.18,0.069-0.27,0.27-0.2,0.45c0.069,0.18,0.27,0.27,0.45,0.2
		C117.832,58.873,117.92,58.671,117.852,58.491z"/>
	
		<path id="path12348_1_" inkscape:connector-curvature="0" fill="none" stroke="#808081" stroke-width="0.116" stroke-linecap="round" stroke-linejoin="round" stroke-miterlimit="10" d="
		M120.628,57.67c-0.069-0.18-0.271-0.27-0.45-0.2c-0.18,0.069-0.27,0.271-0.2,0.45c0.069,0.18,0.27,0.27,0.45,0.2
		C120.608,58.051,120.696,57.85,120.628,57.67z"/>
	
		<path id="path12352_1_" inkscape:connector-curvature="0" fill="none" stroke="#808081" stroke-width="0.116" stroke-linecap="round" stroke-linejoin="round" stroke-miterlimit="10" d="
		M122.069,61.484c-0.069-0.18-0.271-0.269-0.45-0.2c-0.18,0.069-0.27,0.271-0.2,0.45c0.069,0.18,0.27,0.27,0.45,0.2
		C122.049,61.865,122.138,61.664,122.069,61.484z"/>
	
		<path id="path12356_1_" inkscape:connector-curvature="0" fill="none" stroke="#808081" stroke-width="0.116" stroke-linecap="round" stroke-linejoin="round" stroke-miterlimit="10" d="
		M124.849,60.661c-0.069-0.18-0.271-0.269-0.45-0.2c-0.18,0.069-0.27,0.271-0.2,0.45c0.069,0.18,0.27,0.27,0.45,0.2
		C124.829,61.042,124.918,60.841,124.849,60.661z"/>
	
		<path id="path12360_1_" inkscape:connector-curvature="0" fill="none" stroke="#808081" stroke-width="0.116" stroke-linecap="round" stroke-linejoin="round" stroke-miterlimit="10" d="
		M112.659,36.34c-0.122-0.331-0.49-0.5-0.821-0.376c-0.331,0.122-0.5,0.49-0.378,0.82c0.124,0.331,0.491,0.5,0.821,0.378
		C112.612,37.039,112.781,36.671,112.659,36.34z"/>
	
		<path id="path12364_1_" inkscape:connector-curvature="0" fill="none" stroke="#808081" stroke-width="0.116" stroke-linecap="round" stroke-linejoin="round" stroke-miterlimit="10" d="
		M115.63,35.5c-0.122-0.331-0.49-0.5-0.821-0.378c-0.331,0.124-0.5,0.491-0.378,0.821c0.124,0.331,0.491,0.5,0.822,0.378
		C115.584,36.199,115.753,35.831,115.63,35.5L115.63,35.5z"/>
	
		<path id="path12368_1_" inkscape:connector-curvature="0" fill="none" stroke="#808081" stroke-width="0.116" stroke-linecap="round" stroke-linejoin="round" stroke-miterlimit="10" d="
		M116.007,38.774c-0.122-0.331-0.49-0.5-0.821-0.376c-0.331,0.122-0.5,0.49-0.378,0.82c0.124,0.331,0.491,0.5,0.821,0.378
		C115.96,39.473,116.129,39.105,116.007,38.774z"/>
	
		<path id="path12372_1_" inkscape:connector-curvature="0" fill="none" stroke="#808081" stroke-width="0.116" stroke-linecap="round" stroke-linejoin="round" stroke-miterlimit="10" d="
		M118.974,37.935c-0.122-0.331-0.49-0.5-0.821-0.378c-0.331,0.124-0.5,0.491-0.378,0.821c0.124,0.331,0.491,0.5,0.821,0.378
		C118.928,38.634,119.096,38.267,118.974,37.935z"/>
	
		<path id="path12376_1_" inkscape:connector-curvature="0" fill="none" stroke="#808081" stroke-width="0.116" stroke-linecap="round" stroke-linejoin="round" stroke-miterlimit="10" d="
		M119.594,41.382c-0.122-0.331-0.49-0.5-0.821-0.378c-0.331,0.124-0.5,0.491-0.378,0.821c0.124,0.331,0.491,0.5,0.821,0.378
		C119.547,42.081,119.716,41.713,119.594,41.382z"/>
	
		<path id="path12380_1_" inkscape:connector-curvature="0" fill="none" stroke="#808081" stroke-width="0.116" stroke-linecap="round" stroke-linejoin="round" stroke-miterlimit="10" d="
		M123.181,43.99c-0.122-0.331-0.49-0.5-0.821-0.378c-0.331,0.124-0.5,0.491-0.378,0.821c0.124,0.331,0.491,0.5,0.821,0.378
		C123.135,44.688,123.303,44.321,123.181,43.99z"/>
	
		<path id="path12384_1_" inkscape:connector-curvature="0" fill="none" stroke="#808081" stroke-width="0.116" stroke-linecap="round" stroke-linejoin="round" stroke-miterlimit="10" d="
		M122.556,40.544c-0.122-0.331-0.49-0.5-0.821-0.378c-0.331,0.124-0.5,0.491-0.378,0.821c0.124,0.331,0.491,0.5,0.822,0.378
		C122.51,41.243,122.679,40.876,122.556,40.544L122.556,40.544z"/>
	
		<path id="path12388_1_" inkscape:connector-curvature="0" fill="none" stroke="#808081" stroke-width="0.116" stroke-linecap="round" stroke-linejoin="round" stroke-miterlimit="10" d="
		M126.138,43.154c-0.122-0.331-0.49-0.5-0.821-0.378c-0.331,0.124-0.5,0.491-0.376,0.821c0.122,0.331,0.49,0.5,0.821,0.378
		C126.092,43.852,126.261,43.485,126.138,43.154z"/>
	
		<path id="path12392_1_" inkscape:connector-curvature="0" fill="none" stroke="#808081" stroke-width="0.116" stroke-linecap="round" stroke-linejoin="round" stroke-miterlimit="10" d="
		M127.365,47.032c-0.122-0.331-0.49-0.5-0.821-0.378c-0.331,0.124-0.5,0.491-0.376,0.821c0.122,0.331,0.49,0.5,0.82,0.378
		C127.319,47.731,127.488,47.363,127.365,47.032z"/>
	
		<path id="path12396_1_" inkscape:connector-curvature="0" fill="none" stroke="#808081" stroke-width="0.116" stroke-linecap="round" stroke-linejoin="round" stroke-miterlimit="10" d="
		M130.318,46.198c-0.122-0.331-0.49-0.5-0.821-0.378c-0.331,0.124-0.5,0.491-0.376,0.821c0.122,0.331,0.49,0.5,0.82,0.378
		C130.271,46.896,130.44,46.529,130.318,46.198z"/>
	
		<path id="path12400_1_" inkscape:connector-curvature="0" fill="none" stroke="#808081" stroke-width="0.116" stroke-linecap="round" stroke-linejoin="round" stroke-miterlimit="10" d="
		M131.278,50.176c-0.066-0.18-0.267-0.272-0.448-0.205c-0.181,0.066-0.272,0.267-0.206,0.448c0.067,0.18,0.267,0.272,0.447,0.205
		C131.253,50.557,131.346,50.356,131.278,50.176z"/>
	
		<path id="path12404_1_" inkscape:connector-curvature="0" fill="none" stroke="#808081" stroke-width="0.116" stroke-linecap="round" stroke-linejoin="round" stroke-miterlimit="10" d="
		M134.225,49.343c-0.066-0.18-0.267-0.272-0.448-0.205c-0.181,0.066-0.272,0.267-0.206,0.448c0.067,0.18,0.267,0.272,0.447,0.205
		C134.2,49.724,134.293,49.523,134.225,49.343z"/>
	
		<path id="path12408_1_" inkscape:connector-curvature="0" fill="none" stroke="#808081" stroke-width="0.116" stroke-linecap="round" stroke-linejoin="round" stroke-miterlimit="10" d="
		M135.463,53.218c-0.067-0.18-0.267-0.272-0.448-0.205c-0.181,0.066-0.272,0.267-0.206,0.448c0.067,0.18,0.267,0.272,0.447,0.205
		C135.438,53.599,135.531,53.398,135.463,53.218z"/>
	
		<path id="path12412_1_" inkscape:connector-curvature="0" fill="none" stroke="#808081" stroke-width="0.116" stroke-linecap="round" stroke-linejoin="round" stroke-miterlimit="10" d="
		M139.648,56.26c-0.067-0.18-0.267-0.272-0.448-0.206c-0.181,0.067-0.272,0.267-0.206,0.449c0.067,0.18,0.267,0.272,0.449,0.205
		C139.623,56.642,139.716,56.44,139.648,56.26z"/>
	
		<path id="path12416_1_" inkscape:connector-curvature="0" fill="none" stroke="#808081" stroke-width="0.116" stroke-linecap="round" stroke-linejoin="round" stroke-miterlimit="10" d="
		M138.404,52.387c-0.067-0.18-0.267-0.272-0.447-0.205c-0.181,0.066-0.272,0.267-0.206,0.448c0.067,0.18,0.267,0.272,0.448,0.205
		C138.379,52.768,138.472,52.567,138.404,52.387z"/>
	
		<path id="path12420_1_" inkscape:connector-curvature="0" fill="none" stroke="#808081" stroke-width="0.116" stroke-linecap="round" stroke-linejoin="round" stroke-miterlimit="10" d="
		M142.584,55.431c-0.067-0.18-0.267-0.272-0.449-0.206c-0.18,0.067-0.271,0.269-0.205,0.449c0.067,0.18,0.267,0.272,0.447,0.205
		C142.559,55.812,142.65,55.611,142.584,55.431z"/>
	
		<path id="path12424_1_" inkscape:connector-curvature="0" fill="none" stroke="#808081" stroke-width="0.116" stroke-linecap="round" stroke-linejoin="round" stroke-miterlimit="10" d="
		M128.399,29.362c-0.121-0.331-0.488-0.503-0.819-0.381c-0.332,0.121-0.503,0.488-0.381,0.82c0.12,0.331,0.488,0.501,0.819,0.38
		C128.349,30.061,128.52,29.694,128.399,29.362z"/>
	
		<path id="path12428_1_" inkscape:connector-curvature="0" fill="none" stroke="#808081" stroke-width="0.116" stroke-linecap="round" stroke-linejoin="round" stroke-miterlimit="10" d="
		M131.968,31.99c-0.121-0.331-0.488-0.503-0.819-0.381c-0.332,0.121-0.503,0.488-0.381,0.819c0.121,0.332,0.488,0.503,0.819,0.381
		C131.918,32.689,132.089,32.321,131.968,31.99z"/>
	
		<path id="path12432_1_" inkscape:connector-curvature="0" fill="none" stroke="#808081" stroke-width="0.116" stroke-linecap="round" stroke-linejoin="round" stroke-miterlimit="10" d="
		M135.537,34.617c-0.121-0.331-0.488-0.503-0.82-0.381c-0.331,0.121-0.501,0.488-0.38,0.82c0.12,0.331,0.488,0.501,0.819,0.38
		C135.487,35.316,135.658,34.949,135.537,34.617z"/>
	
		<path id="path12436_1_" inkscape:connector-curvature="0" fill="none" stroke="#808081" stroke-width="0.116" stroke-linecap="round" stroke-linejoin="round" stroke-miterlimit="10" d="
		M139.701,37.683c-0.121-0.331-0.488-0.503-0.819-0.381c-0.332,0.121-0.503,0.488-0.381,0.819c0.121,0.332,0.488,0.503,0.819,0.381
		C139.651,38.382,139.822,38.014,139.701,37.683z"/>
	
		<path id="path12440_1_" inkscape:connector-curvature="0" fill="none" stroke="#808081" stroke-width="0.116" stroke-linecap="round" stroke-linejoin="round" stroke-miterlimit="10" d="
		M142.275,36.994c-0.066-0.181-0.266-0.274-0.447-0.207c-0.18,0.065-0.274,0.265-0.207,0.446c0.066,0.181,0.266,0.274,0.448,0.207
		C142.248,37.375,142.341,37.175,142.275,36.994z"/>
	
		<path id="path12444_1_" inkscape:connector-curvature="0" fill="none" stroke="#808081" stroke-width="0.116" stroke-linecap="round" stroke-linejoin="round" stroke-miterlimit="10" d="
		M146.439,40.059c-0.066-0.181-0.266-0.274-0.446-0.207c-0.181,0.066-0.275,0.266-0.209,0.446c0.066,0.181,0.266,0.274,0.447,0.209
		C146.411,40.44,146.505,40.24,146.439,40.059z"/>
	
		<path id="path12448_1_" inkscape:connector-curvature="0" fill="none" stroke="#808081" stroke-width="0.116" stroke-linecap="round" stroke-linejoin="round" stroke-miterlimit="10" d="
		M143.591,40.848c-0.066-0.181-0.266-0.274-0.448-0.207c-0.18,0.066-0.274,0.266-0.207,0.446c0.066,0.181,0.266,0.274,0.447,0.209
		C143.564,41.229,143.658,41.029,143.591,40.848z"/>
	
		<path id="path12452_1_" inkscape:connector-curvature="0" fill="none" stroke="#808081" stroke-width="0.116" stroke-linecap="round" stroke-linejoin="round" stroke-miterlimit="10" d="
		M150.603,43.124c-0.066-0.181-0.266-0.274-0.446-0.207c-0.181,0.066-0.275,0.266-0.209,0.446c0.066,0.181,0.266,0.274,0.448,0.209
		C150.575,43.505,150.669,43.305,150.603,43.124z"/>
	
		<path id="path12456_1_" inkscape:connector-curvature="0" fill="none" stroke="#808081" stroke-width="0.116" stroke-linecap="round" stroke-linejoin="round" stroke-miterlimit="10" d="
		M147.755,43.913c-0.066-0.181-0.266-0.274-0.446-0.207c-0.181,0.066-0.275,0.266-0.209,0.446c0.066,0.181,0.266,0.274,0.447,0.209
		C147.728,44.294,147.822,44.094,147.755,43.913z"/>
	<path id="path12460_1_" inkscape:connector-curvature="0" fill="#20211F" d="M120.935,8.599l0.391,0.255"/>
	<path id="path12464_1_" inkscape:connector-curvature="0" fill="#20211F" d="M123.944,12.678l0.387,0.254l-0.054,0.228l0.146,0.18
		l0.144,0.062l0.15-0.033l0.059-0.195l-0.505-0.62l0.016-0.311l0.189-0.247l0.299-0.081l0.44,0.16l0.33,0.33l0.09,0.379L125.561,13
		l-0.387-0.254l0.054-0.228l-0.146-0.18l-0.144-0.061l-0.15,0.031l-0.059,0.196l0.505,0.619l-0.016,0.311l-0.189,0.249l-0.299,0.08
		l-0.44-0.16l-0.33-0.33l-0.09-0.379L123.944,12.678L123.944,12.678z"/>
	<path id="path12468_1_" inkscape:connector-curvature="0" fill="#20211F" d="M119.645,10.577l0.936-1.434l0.39,0.255l-0.935,1.434
		L119.645,10.577L119.645,10.577z"/>
	<path id="path12472_1_" inkscape:connector-curvature="0" fill="#20211F" d="M123.229,10.096l0.228-4.152l1.787,0.098l-0.284,5.185
		L123.229,10.096L123.229,10.096z"/>
	<path id="path12476_1_" inkscape:connector-curvature="0" fill="#20211F" d="M120.935,8.599l0.129-2.345l1.772,0.096l-0.185,3.369
		l-1.325-0.865l-0.255,0.391l-0.391-0.255L120.935,8.599z"/>
	<path id="path12480_1_" inkscape:connector-curvature="0" fill="#20211F" d="M120.443,6.662l-1.787-0.098l-0.029,0.527l1.731,1.13
		L120.443,6.662z"/>
	<path id="path12484_1_" inkscape:connector-curvature="0" fill="#20211F" d="M123.596,12.071l-0.284,0.213l-0.355-0.019
		l-0.259-0.243l-0.042-0.353l0.194-0.298l0.34-0.104l0.326,0.14l0.161,0.316L123.596,12.071L123.596,12.071z M124.057,11.319
		l-0.065,0.099l-0.076-0.137l-0.355-0.309l-0.461-0.09l-0.445,0.154l-0.309,0.354l-0.09,0.462l0.154,0.444l0.355,0.309l0.394,0.091
		l-0.08,0.122l0.391,0.255l0.979-1.499L124.057,11.319z"/>
	<path id="path12488_1_" inkscape:connector-curvature="0" fill="#20211F" d="M121.879,10.951l-0.284,0.213l-0.355-0.019
		l-0.259-0.243l-0.042-0.353l0.194-0.298l0.34-0.103l0.326,0.139l0.161,0.316L121.879,10.951L121.879,10.951z M122.652,9.719
		l-0.378,0.578l-0.076-0.137l-0.355-0.309l-0.461-0.09l-0.445,0.154l-0.309,0.355l-0.089,0.461l0.153,0.444l0.355,0.309l0.394,0.093
		l-0.079,0.121l0.391,0.255l1.29-1.978L122.652,9.719L122.652,9.719z"/>
	<path id="path12492_1_" inkscape:connector-curvature="0" fill="#20211F" d="M119.619,9.476l-0.284,0.213L118.98,9.67l-0.259-0.243
		l-0.042-0.353l0.194-0.298l0.34-0.104l0.326,0.14l0.161,0.316L119.619,9.476L119.619,9.476z M120.392,8.245l-0.378,0.578
		l-0.076-0.137l-0.355-0.309l-0.461-0.09l-0.445,0.154l-0.309,0.355l-0.089,0.461l0.153,0.444l0.355,0.309l0.394,0.093l-0.079,0.121
		l0.391,0.255l1.29-1.978L120.392,8.245L120.392,8.245z"/>
	<path id="path12496_1_" inkscape:connector-curvature="0" fill="#20211F" d="M117.902,8.355l-0.284,0.213l-0.355-0.019
		l-0.259-0.243l-0.042-0.353l0.194-0.298l0.34-0.103l0.326,0.139l0.161,0.316L117.902,8.355L117.902,8.355z M118.362,7.603
		l-0.065,0.099l-0.076-0.137l-0.355-0.309l-0.461-0.09l-0.445,0.154l-0.309,0.355l-0.09,0.461l0.154,0.444l0.355,0.309l0.394,0.093
		l-0.079,0.121l0.39,0.255l0.979-1.499L118.362,7.603L118.362,7.603z"/>
	<path id="path12500_1_" inkscape:connector-curvature="0" fill="#005BA7" d="M101.257,28.883c-1.167-0.884,3.644-4.814,5.97-3.666
		c0.075,0.037-1.284,0.751-1.284,0.751s-1.123,0.379-2.239,0.908c-0.615,0.29-0.655,0.531-0.551,0.796
		C103.241,27.896,101.257,28.883,101.257,28.883"/>
	
		<path id="path12504_1_" inkscape:connector-curvature="0" fill="none" stroke="#252223" stroke-width="0.009" stroke-miterlimit="10" d="
		M101.257,28.883c-1.167-0.884,3.644-4.814,5.97-3.666c0.075,0.037-1.284,0.751-1.284,0.751s-1.123,0.379-2.239,0.908
		c-0.615,0.29-0.655,0.531-0.551,0.796C103.241,27.896,101.257,28.883,101.257,28.883z"/>
	<path id="path12508_1_" inkscape:connector-curvature="0" fill="#20211F" d="M88.63,39.913c-0.486-0.119-0.871,0.05-1.504,0.374
		c-1.524,0.779-3.449,1.771-4.562,2.351c-0.724,0.376-0.535,0.545-0.221,0.773c0.252,0.182,0.77,0.392,0.82,0.425l6.641-3.507
		C89.494,40.214,89.07,40.021,88.63,39.913"/>
	
		<path id="path12512_1_" inkscape:connector-curvature="0" fill="none" stroke="#6F6F6E" stroke-width="0.23" stroke-miterlimit="10" d="
		M88.63,39.913c-0.486-0.119-0.871,0.05-1.504,0.374c-1.524,0.779-3.449,1.771-4.562,2.351c-0.724,0.376-0.535,0.545-0.221,0.773
		c0.252,0.182,0.77,0.392,0.82,0.425l6.641-3.507C89.494,40.214,89.07,40.021,88.63,39.913L88.63,39.913z"/>
	<pattern  id="path12538_2_" xlink:href="#pattern37921" patternTransform="matrix(0.2276 0 0 0.2276 -13829.8662 1142.5795)">
	</pattern>
	<path id="path12538_1_" inkscape:connector-curvature="0" fill="url(#path12538_2_)" d="M89.766,40.329l-6.641,3.507
		c0.591,0.391,0.876,0.636,1.656,1.082c0.866,0.496,1.225,0.276,1.225,0.276c0.481-0.235,3.93-2.165,4.544-2.496
		c1.78-0.957,1.595-1.226,0.206-1.88C90.465,40.681,90.347,40.585,89.766,40.329"/>
	
		<path id="path12542_1_" inkscape:connector-curvature="0" fill="none" stroke="#000000" stroke-width="0.009" stroke-linecap="round" stroke-linejoin="round" stroke-miterlimit="10" d="
		M89.766,40.329l-6.641,3.507c0.591,0.391,0.876,0.636,1.656,1.082c0.866,0.496,1.225,0.276,1.225,0.276
		c0.481-0.235,3.93-2.165,4.544-2.496c1.78-0.957,1.595-1.226,0.206-1.88C90.465,40.681,90.347,40.585,89.766,40.329L89.766,40.329z
		"/>
	<path id="path12546_1_" inkscape:connector-curvature="0" d="M87.793,42.353l1.119-0.594l0.428,0.008l0.374,0.241l0.11,0.311
		l-0.125,0.306l-3.208,1.753l-0.426-0.009l-0.375-0.241l-0.109-0.31l0.125-0.308L87.793,42.353L87.793,42.353z"/>
	
		<path id="path12550_1_" inkscape:connector-curvature="0" fill="none" stroke="#000000" stroke-width="0.219" stroke-linecap="round" stroke-linejoin="round" stroke-miterlimit="10" d="
		M87.793,42.353l1.119-0.594l0.428,0.008l0.374,0.241l0.11,0.311l-0.125,0.306l-3.208,1.753l-0.426-0.009l-0.375-0.241l-0.109-0.31
		l0.125-0.308L87.793,42.353"/>
	
		<path id="path12554_1_" inkscape:connector-curvature="0" fill="none" stroke="#000000" stroke-width="0.219" stroke-linecap="round" stroke-linejoin="round" stroke-miterlimit="10" d="
		M87.607,42.009l1.175-0.619l0.354-0.056l0.501,0.143l0.371,0.27l0.158,0.266l0.049,0.312l-0.065,0.311l-0.17,0.26l-0.22,0.169
		l-3.139,1.68l-0.354,0.056l-0.503-0.143l-0.369-0.27l-0.159-0.266l-0.05-0.312l0.066-0.311l0.17-0.26l0.22-0.169L87.607,42.009"/>
	<path id="path12558_1_" inkscape:connector-curvature="0" fill="#20211F" d="M117.179,24.665c-0.455-0.115-0.794,0.049-1.346,0.365
		c-1.329,0.761-3.009,1.731-3.98,2.296c-0.631,0.368-0.444,0.532-0.137,0.755c0.247,0.179,0.514,0.344,0.564,0.376l5.817-3.439
		C117.803,24.908,117.592,24.77,117.179,24.665"/>
	
		<path id="path12562_1_" inkscape:connector-curvature="0" fill="none" stroke="#6F6F6E" stroke-width="0.23" stroke-miterlimit="10" d="
		M117.179,24.665c-0.455-0.115-0.794,0.049-1.346,0.365c-1.329,0.761-3.009,1.731-3.98,2.296c-0.631,0.368-0.444,0.532-0.137,0.755
		c0.247,0.179,0.514,0.344,0.564,0.376l5.817-3.439C117.803,24.908,117.592,24.77,117.179,24.665z"/>
	<pattern  id="path12588_2_" xlink:href="#pattern37912" patternTransform="matrix(0.2276 0 0 0.2276 -13801.5068 1157.8755)">
	</pattern>
	<path id="path12588_1_" inkscape:connector-curvature="0" fill="url(#path12588_2_)" d="M118.125,25.033l-5.846,3.411
		c0.575,0.381,1.048,0.675,1.8,1.111c0.838,0.485,1.147,0.27,1.147,0.27c0.42-0.229,3.415-2.115,3.95-2.438
		c1.55-0.936,1.356-1.199,0.029-1.838C118.926,25.415,118.678,25.284,118.125,25.033"/>
	
		<path id="path12592_1_" inkscape:connector-curvature="0" fill="none" stroke="#000000" stroke-width="0.009" stroke-linecap="round" stroke-linejoin="round" stroke-miterlimit="10" d="
		M118.125,25.033l-5.846,3.411c0.575,0.381,1.048,0.675,1.8,1.111c0.838,0.485,1.147,0.27,1.147,0.27
		c0.42-0.229,3.415-2.115,3.95-2.438c1.55-0.936,1.356-1.199,0.029-1.838C118.926,25.415,118.678,25.284,118.125,25.033z"/>
	<path id="path12596_1_" inkscape:connector-curvature="0" d="M116.62,27.049l0.975-0.58l0.391,0.008l0.364,0.236l0.126,0.304
		l-0.088,0.3l-2.79,1.711l-0.391-0.009l-0.364-0.235l-0.126-0.304l0.088-0.3L116.62,27.049L116.62,27.049z"/>
	
		<path id="path12600_1_" inkscape:connector-curvature="0" fill="none" stroke="#000000" stroke-width="0.208" stroke-linecap="round" stroke-linejoin="round" stroke-miterlimit="10" d="
		M116.62,27.049l0.975-0.58l0.391,0.008l0.364,0.236l0.126,0.304l-0.088,0.3l-2.79,1.711l-0.391-0.009l-0.364-0.235l-0.126-0.304
		l0.088-0.3L116.62,27.049"/>
	
		<path id="path12604_1_" inkscape:connector-curvature="0" fill="none" stroke="#000000" stroke-width="0.208" stroke-linecap="round" stroke-linejoin="round" stroke-miterlimit="10" d="
		M116.421,26.713l1.024-0.605l0.32-0.054l0.471,0.139l0.363,0.264l0.168,0.26l0.071,0.306l-0.033,0.304l-0.135,0.254l-0.186,0.165
		l-2.733,1.641l-0.32,0.055l-0.471-0.139l-0.363-0.265l-0.168-0.26l-0.073-0.305l0.034-0.304l0.134-0.255l0.187-0.165
		L116.421,26.713"/>
	<path id="path12608_1_" inkscape:connector-curvature="0" fill="#20211F" d="M103.237,31.97c-0.467-0.116-0.826,0.05-1.41,0.369
		c-1.409,0.768-3.19,1.748-4.22,2.319c-0.669,0.371-0.481,0.539-0.171,0.762c0.249,0.181,0.51,0.271,0.56,0.304l6.131-3.375
		C103.827,32.236,103.661,32.076,103.237,31.97"/>
	
		<path id="path12612_1_" inkscape:connector-curvature="0" fill="none" stroke="#6F6F6E" stroke-width="0.23" stroke-miterlimit="10" d="
		M103.237,31.97c-0.467-0.116-0.826,0.05-1.41,0.369c-1.409,0.768-3.19,1.748-4.22,2.319c-0.669,0.371-0.481,0.539-0.171,0.762
		c0.249,0.181,0.51,0.271,0.56,0.304l6.131-3.375C103.827,32.236,103.661,32.076,103.237,31.97z"/>
	<pattern  id="path12638_2_" xlink:href="#pattern37903" patternTransform="matrix(0.2276 0 0 0.2276 -13815.5293 1150.5397)">
	</pattern>
	<path id="path12638_1_" inkscape:connector-curvature="0" fill="url(#path12638_2_)" d="M104.103,32.369l-6.222,3.304
		c0.571,0.4,1.114,0.756,1.866,1.217c0.835,0.511,1.17,0.303,1.17,0.303c0.451-0.22,3.68-2.044,4.255-2.355
		c1.668-0.904,1.485-1.174,0.15-1.854C104.955,32.796,104.572,32.595,104.103,32.369"/>
	
		<path id="path12642_1_" inkscape:connector-curvature="0" fill="none" stroke="#000000" stroke-width="0.009" stroke-linecap="round" stroke-linejoin="round" stroke-miterlimit="10" d="
		M104.103,32.369l-6.222,3.304c0.571,0.4,1.114,0.756,1.866,1.217c0.835,0.511,1.17,0.303,1.17,0.303
		c0.451-0.22,3.68-2.044,4.255-2.355c1.668-0.904,1.485-1.174,0.15-1.854C104.955,32.796,104.572,32.595,104.103,32.369z"/>
	<path id="path12646_1_" inkscape:connector-curvature="0" d="M102.544,34.428l1.049-0.56l0.405,0.019l0.363,0.247l0.111,0.31
		l-0.111,0.3l-3.004,1.652l-0.405-0.019l-0.363-0.247l-0.11-0.309l0.11-0.301L102.544,34.428L102.544,34.428z"/>
	
		<path id="path12650_1_" inkscape:connector-curvature="0" fill="none" stroke="#000000" stroke-width="0.213" stroke-linecap="round" stroke-linejoin="round" stroke-miterlimit="10" d="
		M102.544,34.428l1.049-0.56l0.405,0.019l0.363,0.247l0.111,0.31l-0.111,0.3l-3.004,1.652l-0.405-0.019l-0.363-0.247l-0.11-0.309
		l0.11-0.301L102.544,34.428"/>
	
		<path id="path12654_1_" inkscape:connector-curvature="0" fill="none" stroke="#000000" stroke-width="0.213" stroke-linecap="round" stroke-linejoin="round" stroke-miterlimit="10" d="
		M102.359,34.084l1.101-0.583l0.335-0.047l0.48,0.154l0.358,0.276l0.156,0.266l0.055,0.31l-0.054,0.306l-0.156,0.252l-0.205,0.161
		l-2.94,1.584l-0.335,0.046l-0.48-0.153l-0.358-0.276l-0.156-0.266l-0.055-0.311l0.054-0.305l0.156-0.254l0.204-0.161
		L102.359,34.084"/>
	<path id="path12658_1_" inkscape:connector-curvature="0" fill="#ED6F87" d="M86.824,44.083c-1.449-2.359-3.925-3.526-5.942-4.719
		l3.13-1.399c2.679,1.581,3.861,1.899,5.455,4.494L86.824,44.083L86.824,44.083z"/>
	
		<path id="path12662_1_" inkscape:connector-curvature="0" fill="none" stroke="#252223" stroke-width="0.092" stroke-miterlimit="10" d="
		M86.824,44.083c-1.449-2.359-3.925-3.526-5.942-4.719l3.13-1.399c2.679,1.581,3.861,1.899,5.455,4.494L86.824,44.083L86.824,44.083
		z"/>
	<path id="path12666_1_" inkscape:connector-curvature="0" fill="#ED6F87" d="M101.06,36.068c-1.449-2.359-2.885-3.811-4.902-5.003
		l2.794-1.66c2.679,1.581,3.158,2.444,4.751,5.039L101.06,36.068L101.06,36.068z"/>
	
		<path id="path12670_1_" inkscape:connector-curvature="0" fill="none" stroke="#252223" stroke-width="0.092" stroke-miterlimit="10" d="
		M101.06,36.068c-1.449-2.359-2.885-3.811-4.902-5.003l2.794-1.66c2.679,1.581,3.158,2.444,4.751,5.039L101.06,36.068L101.06,36.068
		z"/>
	<path id="path12674_1_" inkscape:connector-curvature="0" fill="#ED6F87" d="M115.304,28.585c-1.449-2.359-4.77-3.747-6.789-4.94
		l2.863-1.73c2.677,1.58,4.975,2.451,6.569,5.046L115.304,28.585z"/>
	
		<path id="path12678_1_" inkscape:connector-curvature="0" fill="none" stroke="#252223" stroke-width="0.092" stroke-miterlimit="10" d="
		M115.304,28.585c-1.449-2.359-4.77-3.747-6.789-4.94l2.863-1.73c2.677,1.58,4.975,2.451,6.569,5.046L115.304,28.585z"/>
</g>
</svg>
