<!-- Generator: Adobe Illustrator 17.0.2, SVG Export Plug-In  -->
<svg version="1.1"
	 xmlns="http://www.w3.org/2000/svg" xmlns:xlink="http://www.w3.org/1999/xlink" xmlns:a="http://ns.adobe.com/AdobeSVGViewerExtensions/3.0/"
	 x="0px" y="0px" width="205.73px" height="86.693px" viewBox="0 0 205.73 86.693" enable-background="new 0 0 205.73 86.693"
	 xml:space="preserve">
<defs>
	
		<pattern  x="148.353" y="391.064" width="1488.188" height="1052.363" patternUnits="userSpaceOnUse" id="pattern38475" viewBox="0 -1052.363 1488.188 1052.363" overflow="visible">
		<g>
			<polygon fill="none" points="0,0 1488.188,0 1488.188,-1052.363 0,-1052.363 			"/>
		</g>
	</pattern>
	
		<pattern  x="148.353" y="391.064" width="1488.188" height="1052.363" patternUnits="userSpaceOnUse" id="pattern38488" viewBox="0 -1052.363 1488.188 1052.363" overflow="visible">
		<g>
			<polygon fill="none" points="0,0 1488.188,0 1488.188,-1052.363 0,-1052.363 			"/>
		</g>
	</pattern>
	
		<pattern  x="148.353" y="391.064" width="1488.188" height="1052.363" patternUnits="userSpaceOnUse" id="pattern38497" viewBox="0 -1052.363 1488.188 1052.363" overflow="visible">
		<g>
			<polygon fill="none" points="0,0 1488.188,0 1488.188,-1052.363 0,-1052.363 			"/>
		</g>
	</pattern>
</defs>
<g id="g45493_1_">
	<path id="path9160_1_" inkscape:connector-curvature="0" fill="#9A9E9F" d="M182.967,10.716c-2.939-1.517-1.901,0.996-3.066,12.786
		c-0.373,3.769-3.483,5.64-8.241,7.448c-6.476,2.461-7.537,0.993-35.837-10.382c0,0-0.83-2.357-3.509-10.278
		c-2.699-7.988-1.891-6.879-7.976-9.837c-3.159-1.535-1.628,2.223-2.218,6.29c0,0,2.327-1.779,4.51,1.395
		c2.183,3.174,5.23,16.348,5.23,16.348s14.805,7.854,24.327,10.433c9.521,2.579,13.688,4.166,17.456,2.183
		c3.769-1.984,8.927-4.364,10.315-7.34c1.389-2.975,0.993-9.919,0.794-13.291C184.554,13.096,182.967,10.716,182.967,10.716"/>
	
		<path id="path9164_1_" inkscape:connector-curvature="0" fill="none" stroke="#181613" stroke-width="0.202" stroke-miterlimit="10" d="
		M182.967,10.716c-2.939-1.517-1.901,0.996-3.066,12.786c-0.373,3.769-3.483,5.64-8.241,7.448
		c-6.476,2.461-7.537,0.993-35.837-10.382c0,0-0.83-2.357-3.509-10.278c-2.699-7.988-1.891-6.879-7.976-9.837
		c-3.159-1.535-1.628,2.223-2.218,6.29c0,0,2.327-1.779,4.51,1.395c2.183,3.174,5.23,16.348,5.23,16.348s14.805,7.854,24.327,10.433
		c9.521,2.579,13.688,4.166,17.456,2.183c3.769-1.984,8.927-4.364,10.315-7.34c1.389-2.975,0.993-9.919,0.794-13.291
		C184.554,13.096,182.967,10.716,182.967,10.716L182.967,10.716z"/>
	<path id="path9168_1_" inkscape:connector-curvature="0" fill="#4A525C" d="M3.53,51.226c0.251-1.664,1.383-2.21,3.956-2.744
		c0,0,0.163,0.059,1.495-0.075c5.241-0.526,20.331-0.327,43.792-4.15c17.159-2.795,22.491-2.924,41.511-13.96
		c22.959-13.322,25.683-16.353,26.642-22.96c0.591-4.067-0.94-7.825,2.219-6.29c6.085,2.959,5.278,1.85,7.976,9.837
		c2.677,7.92,3.509,10.278,3.509,10.278c30.252,13.192,32.075,13.61,39.487,10.286c4.645-2.082,6.55-3.796,6.923-7.565
		c1.164-11.79,0.127-14.305,3.065-12.786c3.339,1.724,5.008,2.361,5.521,4.199c1.02,3.639,2.44,7.878,3.639,10.48
		c1.196,2.605,2.427,4.398,3.525,7.804c0.77,2.39,1.652,6.384,1.652,6.384c0.452,3.568,1.423,10.148,0.884,14.245
		c-0.406,3.102-0.539,4.637-0.539,4.637l-4.2,2.612l-69.549,5.428l-44.378,7.326c0,0-43.029-2.985-44.111-3.799
		C35.466,69.6,7.322,60.373,7.322,60.373l-5.41-4.884L3.53,51.226L3.53,51.226z"/>
	
		<path id="path9172_1_" inkscape:connector-curvature="0" fill="none" stroke="#171511" stroke-width="0.202" stroke-miterlimit="10" d="
		M3.53,51.226c0.251-1.664,1.383-2.21,3.956-2.744c0,0,0.163,0.059,1.495-0.075c5.241-0.526,20.331-0.327,43.792-4.15
		c17.159-2.795,22.491-2.924,41.511-13.96c22.959-13.322,25.683-16.353,26.642-22.96c0.591-4.067-0.94-7.825,2.219-6.29
		c6.085,2.959,5.278,1.85,7.976,9.837c2.677,7.92,3.509,10.278,3.509,10.278c30.252,13.192,32.075,13.61,39.487,10.286
		c4.645-2.082,6.55-3.796,6.923-7.565c1.164-11.79,0.127-14.305,3.065-12.786c3.339,1.724,5.008,2.361,5.521,4.199
		c1.02,3.639,2.44,7.878,3.639,10.48c1.196,2.605,2.427,4.398,3.525,7.804c0.77,2.39,1.652,6.384,1.652,6.384
		c0.452,3.568,1.423,10.148,0.884,14.245c-0.406,3.102-0.539,4.637-0.539,4.637l-4.2,2.612l-69.549,5.428l-44.378,7.326
		c0,0-43.029-2.985-44.111-3.799C35.466,69.6,7.322,60.373,7.322,60.373l-5.41-4.884L3.53,51.226L3.53,51.226z"/>
	<path id="path9176_1_" inkscape:connector-curvature="0" fill="#4A525C" d="M103.475,68.366c2.262-3.469,2.101-4.686-0.905-6.857
		c-2.4-1.734-20.798-16.107-22.391-17.352c-0.205-0.368-0.169-0.806-0.073-1.684l0.02-0.176c0.096-0.897,0.135-0.981,0.338-1.091
		c0.389-0.21,0.771-0.42,1.151-0.629c1.632-0.895,3.172-1.741,5.12-2.611c0.08-0.035,0.19-0.05,0.32-0.05
		c0.39,0,0.963,0.135,1.445,0.249c0.634,0.15,1.281,0.303,1.89,0.303c0.414,0,0.809-0.07,1.173-0.259
		c0.333-0.173,0.609-0.306,0.87-0.433c0.456-0.221,0.888-0.429,1.471-0.774c0.949-0.561,1.166-1.494,1.324-2.175
		c0.146-0.625,0.238-0.96,0.585-1.165c1.941-1.147,3.102-1.787,4.603-2.539c0.277-0.137,0.548-0.192,0.818-0.192
		c0.455,0,0.914,0.154,1.415,0.322c0.494,0.168,1.03,0.348,1.581,0.348c0.333,0,0.671-0.065,1.009-0.24
		c1.493-0.77,1.915-0.996,2.984-1.637c0.908-0.545,1.052-1.473,1.159-2.15c0.099-0.64,0.168-0.916,0.443-1.074
		c0.949-0.541,2.054-1.241,3.029-1.857c0.494-0.312,0.942-0.596,1.299-0.814l0.693-0.423c4-2.44,6.642-4.053,7.705-4.631
		c0.112-0.061,0.222-0.125,0.334-0.19c0.473-0.274,0.93-0.54,1.691-0.54c0.695,0,1.641,0.223,3.083,0.863
		c2.12,0.942,2.854,1.231,3.39,1.441c0.391,0.155,0.65,0.256,1.308,0.564c1.332,0.621,1.994,1.246,2.641,3.504
		c0.271,0.949,0.549,1.831,0.87,2.853c0.223,0.71,0.473,1.505,0.768,2.47c0.74,2.427,1.357,3.181,5.287,4.449
		c4.655,1.502,19.137,5.485,24.52,6.715c0,0-10.098,8.504-11.78,10.186c-1.683,1.683-2.804,2.43-6.729,3.365
		c-3.926,0.935-25.047,6.916-27.665,7.57c-2.616,0.655-9.284,2.606-10.374,2.991c-1.589,0.561-3.031,2.637-3.831,3.177
		C104.401,69.309,103.475,68.367,103.475,68.366"/>
	
		<path id="path9180_1_" inkscape:connector-curvature="0" fill="none" stroke="#171511" stroke-width="0.202" stroke-miterlimit="10" d="
		M103.475,68.366c2.262-3.469,2.101-4.686-0.905-6.857c-2.4-1.734-20.798-16.107-22.391-17.352
		c-0.205-0.368-0.169-0.806-0.073-1.684l0.02-0.176c0.096-0.897,0.135-0.981,0.338-1.091c0.389-0.21,0.771-0.42,1.151-0.629
		c1.632-0.895,3.172-1.741,5.12-2.611c0.08-0.035,0.19-0.05,0.32-0.05c0.39,0,0.963,0.135,1.445,0.249
		c0.634,0.15,1.281,0.303,1.89,0.303c0.414,0,0.809-0.07,1.173-0.259c0.333-0.173,0.609-0.306,0.87-0.433
		c0.456-0.221,0.888-0.429,1.471-0.774c0.949-0.561,1.166-1.494,1.324-2.175c0.146-0.625,0.238-0.96,0.585-1.165
		c1.941-1.147,3.102-1.787,4.603-2.539c0.277-0.137,0.548-0.192,0.818-0.192c0.455,0,0.914,0.154,1.415,0.322
		c0.494,0.168,1.03,0.348,1.581,0.348c0.333,0,0.671-0.065,1.009-0.24c1.493-0.77,1.915-0.996,2.984-1.637
		c0.908-0.545,1.052-1.473,1.159-2.15c0.099-0.64,0.168-0.916,0.443-1.074c0.949-0.541,2.054-1.241,3.029-1.857
		c0.494-0.312,0.942-0.596,1.299-0.814l0.693-0.423c4-2.44,6.642-4.053,7.705-4.631c0.112-0.061,0.222-0.125,0.334-0.19
		c0.473-0.274,0.93-0.54,1.691-0.54c0.695,0,1.641,0.223,3.083,0.863c2.12,0.942,2.854,1.231,3.39,1.441
		c0.391,0.155,0.65,0.256,1.308,0.564c1.332,0.621,1.994,1.246,2.641,3.504c0.271,0.949,0.549,1.831,0.87,2.853
		c0.223,0.71,0.473,1.505,0.768,2.47c0.74,2.427,1.357,3.181,5.287,4.449c4.655,1.502,19.137,5.485,24.52,6.715
		c0,0-10.098,8.504-11.78,10.186c-1.683,1.683-2.804,2.43-6.729,3.365c-3.926,0.935-25.047,6.916-27.665,7.57
		c-2.616,0.655-9.284,2.606-10.374,2.991c-1.589,0.561-3.031,2.637-3.831,3.177C104.401,69.309,103.475,68.367,103.475,68.366
		L103.475,68.366z"/>
	
		<path id="path9184_1_" inkscape:connector-curvature="0" fill="#9A9E9F" stroke="#181613" stroke-width="0.202" stroke-miterlimit="10" d="
		M198.644,59.225c0,0-11.71,4.06-28.374,4.06s-63.461,5.039-63.461,5.039c0.415-0.414,1.661-1.971,2.18-2.593
		c0.518-0.622,1.556-1.143,3.526-1.661c1.971-0.518,35.926-9.62,38.105-10.346c2.178-0.726,3.734-1.66,5.186-3.216
		c1.454-1.556,5.65-5.731,7.622-7.702c1.971-1.971,3.008-3.112,6.535-4.254c3.527-1.141,12.199-3.794,15.207-4.622
		c3.009-0.83,4.98-1.66,6.64,0.725c1.66,2.386,2.865,4.956,4.264,8.185c1.053,2.429,1.507,4.953,3.23,5.06
		C199.306,47.899,200.094,51.953,198.644,59.225"/>
	<path id="path9188_1_" inkscape:connector-curvature="0" fill="#E63030" d="M116.793,61.671l-8.403,2.386L84.244,45.794
		l7.159-3.527L116.793,61.671L116.793,61.671z"/>
	
		<path id="path9192_1_" inkscape:connector-curvature="0" fill="none" stroke="#1A1714" stroke-width="0.202" stroke-linecap="round" stroke-linejoin="round" d="
		M116.793,61.671l-8.403,2.386L84.244,45.794l7.159-3.527L116.793,61.671L116.793,61.671z"/>
	<path id="path9196_1_" inkscape:connector-curvature="0" fill="#E63030" d="M133.923,56.967l-8.402,2.386l-27.055-20.51
		l7.159-3.527L133.923,56.967L133.923,56.967z"/>
	
		<path id="path9200_1_" inkscape:connector-curvature="0" fill="none" stroke="#1A1714" stroke-width="0.202" stroke-linecap="round" stroke-linejoin="round" d="
		M133.923,56.967l-8.402,2.386l-27.055-20.51l7.159-3.527L133.923,56.967L133.923,56.967z"/>
	<path id="path9204_1_" inkscape:connector-curvature="0" fill="#E63030" d="M151.226,52.094l-8.404,2.386l-30.136-22.588
		l7.159-3.527L151.226,52.094z"/>
	
		<path id="path9208_1_" inkscape:connector-curvature="0" fill="none" stroke="#1A1714" stroke-width="0.202" stroke-linecap="round" stroke-linejoin="round" d="
		M151.226,52.094l-8.404,2.386l-30.136-22.588l7.159-3.527L151.226,52.094z"/>
	
		<path id="path9212_1_" inkscape:connector-curvature="0" fill="none" stroke="#060A03" stroke-width="0.146" stroke-linecap="round" stroke-linejoin="round" stroke-dasharray="2.339" d="
		M104.271,67.926c2.219-3.402,1.75-4.566-1.199-6.696c-2.355-1.7-20.399-15.798-21.961-17.019c-0.201-0.36-0.455-0.762-0.361-1.623
		l0.019-0.173c0.095-0.882,0.134-0.964,0.333-1.071c0.381-0.206,0.756-0.412,1.129-0.617c1.6-0.877,3.111-1.707,5.021-2.56
		c0.079-0.035,0.186-0.05,0.314-0.05c0.384,0,0.944,0.132,1.419,0.245c0.621,0.146,1.255,0.296,1.852,0.296
		c0.405,0,0.794-0.069,1.15-0.254c0.326-0.169,0.597-0.3,0.854-0.424c0.448-0.218,0.87-0.421,1.443-0.76
		c0.931-0.55,1.144-1.464,1.299-2.132c0.143-0.612,0.233-0.941,0.574-1.143c1.904-1.125,3.043-1.754,4.515-2.49
		c0.271-0.135,0.536-0.189,0.801-0.189c0.446,0,0.896,0.151,1.386,0.316c0.486,0.164,1.011,0.341,1.553,0.341
		c0.326,0,0.658-0.065,0.989-0.236c1.465-0.755,1.878-0.978,2.926-1.606c0.891-0.534,1.033-1.444,1.136-2.109
		c0.098-0.628,0.165-0.897,0.435-1.053c0.93-0.531,2.014-1.217,2.97-1.823c0.484-0.306,0.925-0.585,1.274-0.798l0.679-0.415
		c3.924-2.393,6.515-3.974,7.558-4.543c0.11-0.06,0.219-0.122,0.327-0.186c0.462-0.267,0.912-0.529,1.659-0.529
		c0.681,0,1.61,0.218,3.022,0.845c2.081,0.925,2.8,1.208,3.325,1.415c0.385,0.151,0.639,0.251,1.283,0.551
		c1.308,0.61,1.956,1.222,2.591,3.438c0.266,0.93,0.539,1.796,0.853,2.798c0.219,0.696,0.464,1.476,0.753,2.422
		c0.728,2.381,1.279,3.181,5.134,4.424c4.566,1.474,18.473,5.498,23.753,6.704c0,0,0.8,0.446,2.152-0.537
		c1.579-1.149,10.334-3.445,12.917-4.234c2.604-0.796,7.306-2.296,9.114-2.296c0.933,0,1.435,0.43,2.296,2.152
		c1.266,2.531,1.435,2.87,1.435,2.87l2.871,6.171c0,0,0.882,2.871,2.296,3.301c1.65,0.503,1.291,0.215,1.291,0.215"/>
	
		<path id="path9216_1_" inkscape:connector-curvature="0" fill="none" stroke="#1D1D1B" stroke-width="0.146" stroke-miterlimit="10" d="
		M4.607,56.565c3.39,1.695,28.266,13.218,62.426,14.83c14.97,0.706,49.997-5.791,64.967-7.204
		c14.971-1.411,58.311-4.217,68.056-4.641"/>
	
		<path id="path9220_1_" inkscape:connector-curvature="0" fill="none" stroke="#060A03" stroke-width="0.146" stroke-linecap="round" stroke-linejoin="round" d="
		M59.304,43.007c5.79,3.716,7.481,4.651,12.18,5.146c4.705,0.495,9.829,1.073,11.661,1.214c1.833,0.14,3.271,0.566,4.393,1.495"/>
	
		<path id="path9224_1_" inkscape:connector-curvature="0" fill="none" stroke="#060A03" stroke-width="0.146" stroke-linecap="round" stroke-linejoin="round" d="
		M67.491,41.709c0.85,0.425,0.434,0.187,1.051,0.373c0.882,0.264,1.896-0.459,2.594-0.309c0.865,0.185,1.833,0.34,2.409,0.494
		c1.852,0.494,1.297,1.349,2.84,1.605c1.852,0.309,2.903,0.508,2.903,0.508"/>
	<path id="path9228_1_" inkscape:connector-curvature="0" fill="#1D1D1B" d="M125.429,21.463c0.184,0.324,0.076,0.732-0.241,0.914
		l-1.674,0.955c-0.317,0.181-0.725,0.066-0.91-0.257c-0.184-0.324-0.076-0.732,0.243-0.914l1.674-0.954
		C124.838,21.026,125.245,21.141,125.429,21.463"/>
	
		<path id="path9232_1_" inkscape:connector-curvature="0" fill="none" stroke="#060A03" stroke-width="0.146" stroke-linecap="round" stroke-linejoin="round" d="
		M125.429,21.463c0.184,0.324,0.076,0.732-0.241,0.914l-1.674,0.955c-0.317,0.181-0.725,0.066-0.91-0.257
		c-0.184-0.324-0.076-0.732,0.243-0.914l1.674-0.954C124.838,21.026,125.245,21.141,125.429,21.463L125.429,21.463z"/>
	<path id="path9236_1_" inkscape:connector-curvature="0" fill="#1D1D1B" d="M131.859,24.484c0.184,0.324,0.076,0.732-0.241,0.914
		l-1.674,0.954c-0.319,0.181-0.725,0.067-0.91-0.256c-0.184-0.324-0.076-0.732,0.243-0.914l1.674-0.954
		C131.268,24.046,131.675,24.162,131.859,24.484"/>
	
		<path id="path9240_1_" inkscape:connector-curvature="0" fill="none" stroke="#060A03" stroke-width="0.146" stroke-linecap="round" stroke-linejoin="round" d="
		M131.859,24.484c0.184,0.324,0.076,0.732-0.241,0.914l-1.674,0.954c-0.319,0.181-0.725,0.067-0.91-0.256
		c-0.184-0.324-0.076-0.732,0.243-0.914l1.674-0.954C131.268,24.046,131.675,24.162,131.859,24.484L131.859,24.484z"/>
	<path id="path9244_1_" inkscape:connector-curvature="0" fill="#1D1D1B" d="M115.084,26.509c0.171,0.33,0.046,0.735-0.278,0.904
		l-1.71,0.887c-0.324,0.169-0.728,0.039-0.899-0.291c-0.17-0.33-0.047-0.735,0.277-0.904l1.71-0.889
		C114.51,26.047,114.911,26.179,115.084,26.509"/>
	
		<path id="path9248_1_" inkscape:connector-curvature="0" fill="none" stroke="#060A03" stroke-width="0.146" stroke-linecap="round" stroke-linejoin="round" d="
		M115.084,26.509c0.171,0.33,0.046,0.735-0.278,0.904l-1.71,0.887c-0.324,0.169-0.728,0.039-0.899-0.291
		c-0.17-0.33-0.047-0.735,0.277-0.904l1.71-0.889C114.51,26.047,114.911,26.179,115.084,26.509z"/>
	<path id="path9252_1_" inkscape:connector-curvature="0" fill="#1D1D1B" d="M101.194,33.527c0.171,0.33,0.046,0.735-0.278,0.904
		l-1.71,0.887c-0.324,0.169-0.728,0.039-0.899-0.291c-0.17-0.33-0.047-0.735,0.277-0.904l1.71-0.889
		C100.62,33.065,101.022,33.197,101.194,33.527"/>
	
		<path id="path9256_1_" inkscape:connector-curvature="0" fill="none" stroke="#060A03" stroke-width="0.146" stroke-linecap="round" stroke-linejoin="round" d="
		M101.194,33.527c0.171,0.33,0.046,0.735-0.278,0.904l-1.71,0.887c-0.324,0.169-0.728,0.039-0.899-0.291
		c-0.17-0.33-0.047-0.735,0.277-0.904l1.71-0.889C100.62,33.065,101.022,33.197,101.194,33.527z"/>
	<path id="path9260_1_" inkscape:connector-curvature="0" fill="#1D1D1B" d="M87.01,40.691c0.171,0.33,0.046,0.735-0.278,0.904
		l-2.127,1.155c-0.324,0.169-0.726,0.039-0.897-0.291c-0.171-0.33-0.049-0.735,0.277-0.904l2.126-1.156
		C86.436,40.229,86.837,40.361,87.01,40.691"/>
	
		<path id="path9264_1_" inkscape:connector-curvature="0" fill="none" stroke="#060A03" stroke-width="0.146" stroke-linecap="round" stroke-linejoin="round" d="
		M87.01,40.691c0.171,0.33,0.046,0.735-0.278,0.904l-2.127,1.155c-0.324,0.169-0.726,0.039-0.897-0.291
		c-0.171-0.33-0.049-0.735,0.277-0.904l2.126-1.156C86.436,40.229,86.837,40.361,87.01,40.691L87.01,40.691z"/>
	<path id="path9268_1_" inkscape:connector-curvature="0" fill="#1D1D1B" d="M72.877,45.412c-0.065,0.366-0.41,0.612-0.77,0.549
		l-2.453-0.414c-0.36-0.062-0.601-0.411-0.536-0.778s0.409-0.612,0.77-0.549l2.453,0.412C72.701,44.696,72.941,45.045,72.877,45.412
		"/>
	
		<path id="path9272_1_" inkscape:connector-curvature="0" fill="none" stroke="#060A03" stroke-width="0.146" stroke-linecap="round" stroke-linejoin="round" d="
		M72.877,45.412c-0.065,0.366-0.41,0.612-0.77,0.549l-2.453-0.414c-0.36-0.062-0.601-0.411-0.536-0.778s0.409-0.612,0.77-0.549
		l2.453,0.412C72.701,44.696,72.941,45.045,72.877,45.412L72.877,45.412z"/>
	<path id="path9276_1_" inkscape:connector-curvature="0" fill="#4A525C" d="M76.25,78.698c1.74-0.58,9.446-7.407,10.73-10.645
		c1.073-2.7,1.466-3.641-6.436-5.861c-8.09-2.271-12.407-3.525-22.099-5.423c-3.767-0.737-5.621,0-6.979,1.939
		c-1.831,2.616-2.669,3.052-4.265,2.907c-2.327-0.211-3.627-1.357-6.187-3.074c-4.667-3.129-3.587-3.298-8.954-4.458
		c-4.277-0.925-16.244-3.741-25.141-5.334c-0.65-0.116-2.526,0.42-3.12,1.639c-0.508,1.045-0.697,2.505-0.452,4.51
		c0.531,4.345,2.03,7.245,2.03,7.245L76.25,78.698L76.25,78.698z"/>
	
		<path id="path9280_1_" inkscape:connector-curvature="0" fill="none" stroke="#171511" stroke-width="0.202" stroke-miterlimit="10" d="
		M76.25,78.698c1.74-0.58,9.446-7.407,10.73-10.645c1.073-2.7,1.466-3.641-6.436-5.861c-8.09-2.271-12.407-3.525-22.099-5.423
		c-3.767-0.737-5.621,0-6.979,1.939c-1.831,2.616-2.669,3.052-4.265,2.907c-2.327-0.211-3.627-1.357-6.187-3.074
		c-4.667-3.129-3.587-3.298-8.954-4.458c-4.277-0.925-16.244-3.741-25.141-5.334c-0.65-0.116-2.526,0.42-3.12,1.639
		c-0.508,1.045-0.697,2.505-0.452,4.51c0.531,4.345,2.03,7.245,2.03,7.245L76.25,78.698L76.25,78.698z"/>
	<path id="path9284_1_" inkscape:connector-curvature="0" fill="#4A525C" d="M3.781,50.216c0,0,1.09,0.786,7.549,2.077
		c6.457,1.291,15.426,3.136,19.16,4.736c3.014,1.291,4.951,2.584,7.75,5.597c2.799,3.014,5.382,4.951,4.09,5.597
		c-1.291,0.646-12.701-1.507-21.098-3.66c-8.396-2.152-14.424-3.229-16.576-4.951c-2.154-1.722-3.26-2.868-2.706-4.448
		c0.553-1.581,1.57-4.139,1.57-4.139L3.781,50.216L3.781,50.216z"/>
	
		<path id="path9288_1_" inkscape:connector-curvature="0" fill="none" stroke="#171511" stroke-width="0.202" stroke-miterlimit="10" d="
		M3.781,50.216c0,0,1.09,0.786,7.549,2.077c6.457,1.291,15.426,3.136,19.16,4.736c3.014,1.291,4.951,2.584,7.75,5.597
		c2.799,3.014,5.382,4.951,4.09,5.597c-1.291,0.646-12.701-1.507-21.098-3.66c-8.396-2.152-14.424-3.229-16.576-4.951
		c-2.154-1.722-3.26-2.868-2.706-4.448c0.553-1.581,1.57-4.139,1.57-4.139L3.781,50.216L3.781,50.216z"/>
	
		<path id="path9292_1_" inkscape:connector-curvature="0" fill="none" stroke="#060A03" stroke-width="0.146" stroke-linecap="round" stroke-linejoin="round" d="
		M6.717,49.531c0.023,0-1.346-0.452-1.329-0.448c0.029,0.006,0.056,0.013,0.085,0.019"/>
	
		<path id="path9296_1_" inkscape:connector-curvature="0" fill="none" stroke="#060A03" stroke-width="0.146" stroke-linecap="round" stroke-linejoin="round" stroke-dasharray="2.311,2.311" d="
		M8.295,49.722c6.491,1.416,14.605,3.125,19.495,4.225c1.694,0.381,3.106,0.699,4.102,0.915c3.826,0.827,4.156,1.073,5.991,2.433
		c0.659,0.489,1.478,1.097,2.687,1.908c0.387,0.26,0.748,0.508,1.085,0.741c1.912,1.315,3.294,2.266,5.474,2.464
		c0.206,0.019,0.391,0.028,0.566,0.028c1.812,0,2.87-1.054,4.421-3.27c0.935-1.336,2.031-1.881,3.785-1.881
		c0.693,0,1.475,0.088,2.39,0.266c9.212,1.805,13.626,3.045,20.938,5.1l1.099,0.309c2.706,0.76,5.875,1.758,6.357,2.733
		c0.116,0.235,0.089,0.539-0.036,0.959"/>
	
		<path id="path9300_1_" inkscape:connector-curvature="0" fill="none" stroke="#060A03" stroke-width="0.146" stroke-linecap="round" stroke-linejoin="round" d="
		M86.131,68.002l-0.615,1.357"/>
	<path id="path9304_1_" inkscape:connector-curvature="0" fill="#20211F" d="M204.958,76.588c-0.213,1.698-1.669,2.765-1.669,2.765
		l-25.269,5.139c-0.436,0.071-0.872,0.139-1.309,0.206c-2.098,0.321-4.202,0.605-6.311,0.851c-2.134,0.25-4.274,0.461-6.416,0.609
		c-1.075,0.075-2.15,0.135-3.225,0.17c-0.445,0.014-0.891,0.024-1.338,0.031c-0.79,0.014-1.579,0.018-2.37,0.018H69.424l-2.74-0.062
		c-1.758-0.13-3.515-0.285-5.269-0.472c-5.985-0.636-11.935-1.632-17.796-3.003c-0.373-0.086-0.744-0.175-1.115-0.264
		c-11-2.663-29.897-10.223-39.654-17.645c0,0-2.546-1.486-1.909-4.244c0,0,8.684,3.898,28.285,8.494
		c19.6,4.596,38.199,9.051,71.812,5.344c33.613-3.708,64.669-7.564,77.761-7.417s24.003-1.345,24.003-1.345L204.958,76.588
		L204.958,76.588z"/>
	<path id="path9308_1_" inkscape:connector-curvature="0" fill="none" stroke="#534F4E" stroke-width="0.202" d="M204.958,76.588
		c-0.213,1.698-1.669,2.765-1.669,2.765l-25.269,5.139c-0.436,0.071-0.872,0.139-1.309,0.206c-2.098,0.321-4.202,0.605-6.311,0.851
		c-2.134,0.25-4.274,0.461-6.416,0.609c-1.075,0.075-2.15,0.135-3.225,0.17c-0.445,0.014-0.891,0.024-1.338,0.031
		c-0.79,0.014-1.579,0.018-2.37,0.018H69.424l-2.74-0.062c-1.758-0.13-3.515-0.285-5.269-0.472
		c-5.985-0.636-11.935-1.632-17.796-3.003c-0.373-0.086-0.744-0.175-1.115-0.264c-11-2.663-29.897-10.223-39.654-17.645
		c0,0-2.546-1.486-1.909-4.244c0,0,8.684,3.898,28.285,8.494c19.6,4.596,38.199,9.051,71.812,5.344
		c33.613-3.708,64.669-7.564,77.761-7.417s24.003-1.345,24.003-1.345L204.958,76.588L204.958,76.588z"/>
	<path id="path9312_1_" inkscape:connector-curvature="0" fill="#FFFFFF" d="M205.158,65.663h-0.169
		c-0.016-0.003-0.03-0.006-0.045-0.009c-0.339,0.024-0.663,0.045-0.775,0.049c-11.581,0.479-23.144,1.177-34.7,2.096
		c-4.691,0.373-9.383,0.762-14.072,1.156c-5.925,0.499-11.848,1.004-17.765,1.57c-9.751,0.933-19.486,2.031-29.219,3.156
		c-7.817,0.905-15.637,1.828-23.503,2.24c-4.999,0.261-10.019,0.317-15.023,0.114c-2.003-0.081-4.006-0.159-6.006-0.303
		c-1.529-0.11-3.055-0.246-4.578-0.41c-5.959-0.643-11.87-1.706-17.709-3.051c-0.261-0.061-0.524-0.122-0.784-0.182
		c-12.048-2.83-23.892-6.21-35.613-10.164c-0.381-0.129-2.733-0.81-4.877-2.009c0.499,1.295,1.597,2.661,3.339,3.75l0.046,0.084
		c2.377,1.304,4.77,2.571,7.184,3.806c10.075,5.155,20.615,8.963,31.614,11.625c0.373,0.089,0.742,0.177,1.115,0.264
		c5.863,1.369,11.811,2.366,17.796,3.003c1.754,0.186,3.511,0.342,5.27,0.472l2.74,0.061h87.627c0.79,0,1.58-0.003,2.37-0.016
		c0.445-0.008,0.891-0.018,1.336-0.033c1.075-0.035,2.15-0.094,3.225-0.169c2.144-0.148,4.283-0.36,6.418-0.607
		c2.109-0.247,4.212-0.531,6.31-0.853c0.436-0.067,0.872-0.135,1.31-0.206l27.432-4.622c0.117-0.558,0.325-3.066,0.254-5.265
		C205.626,68.788,205.286,66.041,205.158,65.663"/>
	
		<path id="path9316_1_" inkscape:connector-curvature="0" fill="none" stroke="#252223" stroke-width="0.016" stroke-miterlimit="10" d="
		M205.158,65.663h-0.169c-0.016-0.003-0.03-0.006-0.045-0.009c-0.339,0.024-0.663,0.045-0.775,0.049
		c-11.581,0.479-23.144,1.177-34.7,2.096c-4.691,0.373-9.383,0.762-14.072,1.156c-5.925,0.499-11.848,1.004-17.765,1.57
		c-9.751,0.933-19.486,2.031-29.219,3.156c-7.817,0.905-15.637,1.828-23.503,2.24c-4.999,0.261-10.019,0.317-15.023,0.114
		c-2.003-0.081-4.006-0.159-6.006-0.303c-1.529-0.11-3.055-0.246-4.578-0.41c-5.959-0.643-11.87-1.706-17.709-3.051
		c-0.261-0.061-0.524-0.122-0.784-0.182c-12.048-2.83-23.892-6.21-35.613-10.164c-0.381-0.129-2.733-0.81-4.877-2.009
		c0.499,1.295,1.597,2.661,3.339,3.75l0.046,0.084c2.377,1.304,4.77,2.571,7.184,3.806c10.075,5.155,20.615,8.963,31.614,11.625
		c0.373,0.089,0.742,0.177,1.115,0.264c5.863,1.369,11.811,2.366,17.796,3.003c1.754,0.186,3.511,0.342,5.27,0.472l2.74,0.061
		h87.627c0.79,0,1.58-0.003,2.37-0.016c0.445-0.008,0.891-0.018,1.336-0.033c1.075-0.035,2.15-0.094,3.225-0.169
		c2.144-0.148,4.283-0.36,6.418-0.607c2.109-0.247,4.212-0.531,6.31-0.853c0.436-0.067,0.872-0.135,1.31-0.206l27.432-4.622
		c0.117-0.558,0.325-3.066,0.254-5.265C205.626,68.788,205.286,66.041,205.158,65.663L205.158,65.663z"/>
	<path id="path9320_1_" inkscape:connector-curvature="0" fill="#FFFFFF" d="M40.811,72.089c0.261,0.061,0.522,0.122,0.784,0.182
		c5.839,1.346,11.75,2.409,17.71,3.051c1.521,0.164,3.048,0.3,4.576,0.411c2,0.144,4.004,0.221,6.006,0.301
		c5.005,0.204,10.024,0.148,15.023-0.114c7.865-0.412,15.685-1.334,23.503-2.239c9.734-1.125,19.468-2.224,29.219-3.156
		c5.919-0.568,11.84-1.073,17.765-1.571c4.69-0.394,9.381-0.784,14.074-1.156c11.556-0.918,23.117-1.616,34.699-2.095
		c0.113-0.004,0.438-0.026,0.775-0.049c-2.784-0.321-3.15-1.98-3.875-3.31c0,0-1.177-2-1.864-3.155l-57.477,3.566
		c-16.036,1.162-32.029,3.051-47.908,5.559c-6.801,1.073-13.615,1.795-20.491,2.171c-0.809,0.042-1.618,0.076-2.427,0.096
		c-2.045,0.055-4.094,0.033-6.138-0.069c-0.889-0.045-1.776-0.104-2.661-0.176c-0.889-0.073-1.776-0.159-2.664-0.256
		c-0.888-0.098-1.775-0.207-2.66-0.326c-0.888-0.12-25.119-3.022-49.985-10.848c-2.013-0.477-2.695-1.289-2.811-2.327
		c-0.119-1.064-0.473-4.253-0.473-4.253s-0.912-0.269-1.89,0.708c-0.709,0.709-0.945,2.01-1.536,4.608
		c-0.152,0.672-0.075,1.46,0.239,2.274c2.144,1.2,4.495,1.881,4.877,2.01C16.92,65.879,28.764,69.259,40.811,72.089"/>
	
		<path id="path9324_1_" inkscape:connector-curvature="0" fill="none" stroke="#252223" stroke-width="0.016" stroke-miterlimit="10" d="
		M40.811,72.089c0.261,0.061,0.522,0.122,0.784,0.182c5.839,1.346,11.75,2.409,17.71,3.051c1.521,0.164,3.048,0.3,4.576,0.411
		c2,0.144,4.004,0.221,6.006,0.301c5.005,0.204,10.024,0.148,15.023-0.114c7.865-0.412,15.685-1.334,23.503-2.239
		c9.734-1.125,19.468-2.224,29.219-3.156c5.919-0.568,11.84-1.073,17.765-1.571c4.69-0.394,9.381-0.784,14.074-1.156
		c11.556-0.918,23.117-1.616,34.699-2.095c0.113-0.004,0.438-0.026,0.775-0.049c-2.784-0.321-3.15-1.98-3.875-3.31
		c0,0-1.177-2-1.864-3.155l-57.477,3.566c-16.036,1.162-32.029,3.051-47.908,5.559c-6.801,1.073-13.615,1.795-20.491,2.171
		c-0.809,0.042-1.618,0.076-2.427,0.096c-2.045,0.055-4.094,0.033-6.138-0.069c-0.889-0.045-1.776-0.104-2.661-0.176
		c-0.889-0.073-1.776-0.159-2.664-0.256c-0.888-0.098-1.775-0.207-2.66-0.326c-0.888-0.12-25.119-3.022-49.985-10.848
		c-2.013-0.477-2.695-1.289-2.811-2.327c-0.119-1.064-0.473-4.253-0.473-4.253s-0.912-0.269-1.89,0.708
		c-0.709,0.709-0.945,2.01-1.536,4.608c-0.152,0.672-0.075,1.46,0.239,2.274c2.144,1.2,4.495,1.881,4.877,2.01
		C16.92,65.879,28.764,69.259,40.811,72.089L40.811,72.089z"/>
	
		<path id="path9328_1_" inkscape:connector-curvature="0" fill="#FFFFFF" stroke="#252223" stroke-width="0.016" stroke-miterlimit="10" d="
		M181.817,83.965l-1.021-6.424c-0.075-0.466,0.243-0.905,0.711-0.98c0.466-0.074,0.905,0.245,0.978,0.711l1.003,6.296"/>
	
		<path id="path9332_1_" inkscape:connector-curvature="0" fill="#FFFFFF" stroke="#252223" stroke-width="0.016" stroke-miterlimit="10" d="
		M150.654,86.619l-0.288-5.831c-0.02-0.471,0.345-0.87,0.819-0.891c0.471-0.021,0.871,0.345,0.891,0.817l0.295,5.979"/>
	
		<path id="path9336_1_" inkscape:connector-curvature="0" fill="#FFFFFF" stroke="#252223" stroke-width="0.016" stroke-miterlimit="10" d="
		M91.875,86.334l-0.19-5.835c-0.014-0.471-0.408-0.844-0.881-0.83c-0.471,0.014-0.844,0.407-0.83,0.88l0.193,5.983"/>
	
		<path id="path9340_1_" inkscape:connector-curvature="0" fill="#FFFFFF" stroke="#252223" stroke-width="0.016" stroke-miterlimit="10" d="
		M69.275,86.417l0.515-6.014c0.033-0.471-0.321-0.88-0.794-0.915c-0.471-0.034-0.88,0.321-0.914,0.794l-0.526,6.16"/>
	
		<path id="path9344_1_" inkscape:connector-curvature="0" fill="#FFFFFF" stroke="#252223" stroke-width="0.016" stroke-miterlimit="10" d="
		M47.232,83.529l1.335-5.713c0.1-0.461-0.193-0.918-0.655-1.017c-0.461-0.1-0.919,0.192-1.017,0.654l-1.367,5.858"/>
	
		<path id="path9348_1_" inkscape:connector-curvature="0" fill="none" stroke="#060A03" stroke-width="0.146" stroke-linecap="round" stroke-linejoin="round" d="
		M121.014,2.294c0,0,2.319,0.94,3.061,1.475c0.742,0.534-0.405,4.214-1.268,6.275c-1.35,3.226-3.731,6.818-3.731,6.818l-2.375-1.312
		"/>
	
		<path id="path9352_1_" inkscape:connector-curvature="0" fill="none" stroke="#060A03" stroke-width="0.146" stroke-linecap="round" stroke-linejoin="round" stroke-dasharray="2.384" d="
		M60.842,42.983c0,0,3.656,2.451,5.835,3.229c2.178,0.778,3.306,0.855,7.546,1.323c4.24,0.466,10.658,1.245,10.658,1.245"/>
	
		<path id="path9356_1_" inkscape:connector-curvature="0" fill="none" stroke="#060A03" stroke-width="0.146" stroke-linecap="round" stroke-linejoin="round" stroke-dasharray="2.384" d="
		M70.526,42.087c0.973,0.272,2.218,0.389,2.84,0.661c0.623,0.272,0.661,1.361,1.906,1.556c1.244,0.195,5.095,1.011,5.095,1.011"/>
	<path id="path9360_1_" inkscape:connector-curvature="0" fill="#9A9E9F" d="M107.832,31.284
		c-0.745,0.409-27.804,14.198-27.804,14.198l-1.031-0.784c-0.444-0.641-0.374-1.31-0.265-2.311c0.111-1.001,0.13-1.533,0.77-1.879
		c2.034-1.104,3.882-2.176,6.325-3.268c1.174-0.525,3.555,0.902,4.785,0.262c0.914-0.475,1.42-0.662,2.304-1.185
		c1.313-0.776,0.596-2.565,1.909-3.34c2.05-1.211,3.196-1.837,4.651-2.565c1.909-0.954,3.5,0.92,4.814,0.241
		c1.507-0.778,1.914-0.998,2.939-1.613c1.194-0.716,0.364-2.516,1.616-3.231c1.423-0.814,3.263-2.023,4.308-2.661
		c0.695-0.424,2.941-1.743,3.318-2.023c0.578-0.429,0.736,0.363,0.736,0.363s0.149,3.026,0.186,4.002
		c0.037,0.936-0.075,1.359-1.199,2.055c-0.17,0.105-4.87,2.861-5.17,3.024C109.1,31.61,109.896,30.151,107.832,31.284"/>
	
		<path id="path9364_1_" inkscape:connector-curvature="0" fill="none" stroke="#181613" stroke-width="0.202" stroke-miterlimit="10" d="
		M107.832,31.284c-0.745,0.409-27.804,14.198-27.804,14.198l-1.031-0.784c-0.444-0.641-0.374-1.31-0.265-2.311
		c0.111-1.001,0.13-1.533,0.77-1.879c2.034-1.104,3.882-2.176,6.325-3.268c1.174-0.525,3.555,0.902,4.785,0.262
		c0.914-0.475,1.42-0.662,2.304-1.185c1.313-0.776,0.596-2.565,1.909-3.34c2.05-1.211,3.196-1.837,4.651-2.565
		c1.909-0.954,3.5,0.92,4.814,0.241c1.507-0.778,1.914-0.998,2.939-1.613c1.194-0.716,0.364-2.516,1.616-3.231
		c1.423-0.814,3.263-2.023,4.308-2.661c0.695-0.424,2.941-1.743,3.318-2.023c0.578-0.429,0.736,0.363,0.736,0.363
		s0.149,3.026,0.186,4.002c0.037,0.936-0.075,1.359-1.199,2.055c-0.17,0.105-4.87,2.861-5.17,3.024
		C109.1,31.61,109.896,30.151,107.832,31.284z"/>
	<path id="path9368_1_" inkscape:connector-curvature="0" fill="#4A525C" d="M84.404,42.259c-1.37-2.308-3.754-3.478-5.692-4.663
		l3.056-1.31c2.572,1.572,3.715,1.899,5.222,4.436L84.404,42.259z"/>
	
		<path id="path9372_1_" inkscape:connector-curvature="0" fill="none" stroke="#171511" stroke-width="0.202" stroke-miterlimit="10" d="
		M84.404,42.259c-1.37-2.308-3.754-3.478-5.692-4.663l3.056-1.31c2.572,1.572,3.715,1.899,5.222,4.436L84.404,42.259z"/>
	<path id="path9376_1_" inkscape:connector-curvature="0" fill="#4A525C" d="M71.397,41.746c0.558-0.57,1.42-1.341,1.42-1.856
		l3.327-0.845c0,0.985-0.839,2.549-1.628,3.481L71.397,41.746L71.397,41.746z"/>
	
		<path id="path9380_1_" inkscape:connector-curvature="0" fill="none" stroke="#171511" stroke-width="0.202" stroke-miterlimit="10" d="
		M71.397,41.746c0.558-0.57,1.42-1.341,1.42-1.856l3.327-0.845c0,0.985-0.839,2.549-1.628,3.481L71.397,41.746L71.397,41.746z"/>
	<path id="path9384_1_" inkscape:connector-curvature="0" fill="#4A525C" d="M122.498,22.725c-1.37-2.308-4.885-5.83-7.464-6.631
		l2.062-2.062c2.865,0.916,6.48,4.62,7.987,7.158L122.498,22.725L122.498,22.725z"/>
	
		<path id="path9388_1_" inkscape:connector-curvature="0" fill="none" stroke="#171511" stroke-width="0.202" stroke-miterlimit="10" d="
		M122.498,22.725c-1.37-2.308-4.885-5.83-7.464-6.631l2.062-2.062c2.865,0.916,6.48,4.62,7.987,7.158L122.498,22.725L122.498,22.725
		z"/>
	<path id="path9392_1_" inkscape:connector-curvature="0" fill="#4A525C" d="M69.388,44.504c-1.011-0.991-1.812-1.664-3.751-2.85
		l3.153-0.944c0.999,0.699,3.244,2.169,3.736,4.067L69.388,44.504z"/>
	
		<path id="path9396_1_" inkscape:connector-curvature="0" fill="none" stroke="#171511" stroke-width="0.202" stroke-miterlimit="10" d="
		M69.388,44.504c-1.011-0.991-1.812-1.664-3.751-2.85l3.153-0.944c0.999,0.699,3.244,2.169,3.736,4.067L69.388,44.504z"/>
	<path id="path9400_1_" inkscape:connector-curvature="0" fill="#4A525C" d="M85.175,37.743c0.831-1.346,1.266-2.406,1.476-3.602
		l3.03-1.594c0.04,1.189-0.518,3.264-1.231,4.729l-1.662-0.209L85.175,37.743z"/>
	
		<path id="path9404_1_" inkscape:connector-curvature="0" fill="none" stroke="#171511" stroke-width="0.202" stroke-miterlimit="10" d="
		M85.175,37.743c0.831-1.346,1.266-2.406,1.476-3.602l3.03-1.594c0.04,1.189-0.518,3.264-1.231,4.729l-1.662-0.209L85.175,37.743z"
		/>
	<path id="path9408_1_" inkscape:connector-curvature="0" fill="#4A525C" d="M112.73,23.758c-0.394-2.314-0.425-4.176-0.946-4.749
		l2.659-1.771c0.591,0.491,1.238,3.724,0.991,4.856L112.73,23.758z"/>
	
		<path id="path9412_1_" inkscape:connector-curvature="0" fill="none" stroke="#171511" stroke-width="0.202" stroke-miterlimit="10" d="
		M112.73,23.758c-0.394-2.314-0.425-4.176-0.946-4.749l2.659-1.771c0.591,0.491,1.238,3.724,0.991,4.856L112.73,23.758z"/>
	<path id="path9416_1_" inkscape:connector-curvature="0" fill="#4A525C" d="M99.657,30.57c0.491-1.787,1.2-3.438,0.809-4.585
		l2.409-1.461c1.229,1.23,0.429,4.809,0.134,5.941c0,0-1.194-0.262-1.478-0.296c-0.284-0.033-0.906,0.018-1.204,0.139
		C100.029,30.427,99.657,30.57,99.657,30.57"/>
	
		<path id="path9420_1_" inkscape:connector-curvature="0" fill="none" stroke="#171511" stroke-width="0.202" stroke-miterlimit="10" d="
		M99.657,30.57c0.491-1.787,1.2-3.438,0.809-4.585l2.409-1.461c1.229,1.23,0.429,4.809,0.134,5.941c0,0-1.194-0.262-1.478-0.296
		c-0.284-0.033-0.906,0.018-1.204,0.139C100.029,30.427,99.657,30.57,99.657,30.57L99.657,30.57z"/>
	<path id="path9424_1_" inkscape:connector-curvature="0" fill="#4A525C" d="M98.324,34.697c-1.37-2.308-2.741-3.737-4.68-4.922
		l2.734-1.567c2.573,1.571,3.025,2.416,4.533,4.954L98.324,34.697L98.324,34.697z"/>
	
		<path id="path9428_1_" inkscape:connector-curvature="0" fill="none" stroke="#171511" stroke-width="0.202" stroke-miterlimit="10" d="
		M98.324,34.697c-1.37-2.308-2.741-3.737-4.68-4.922l2.734-1.567c2.573,1.571,3.025,2.416,4.533,4.954L98.324,34.697L98.324,34.697z
		"/>
	<path id="path9432_1_" inkscape:connector-curvature="0" fill="#4A525C" d="M112.244,27.651c-1.37-2.308-4.57-3.704-6.509-4.889
		l2.8-1.636c2.573,1.572,4.788,2.451,6.295,4.989L112.244,27.651z"/>
	
		<path id="path9436_1_" inkscape:connector-curvature="0" fill="none" stroke="#171511" stroke-width="0.202" stroke-miterlimit="10" d="
		M112.244,27.651c-1.37-2.308-4.57-3.704-6.509-4.889l2.8-1.636c2.573,1.572,4.788,2.451,6.295,4.989L112.244,27.651z"/>
	<path id="path9440_1_" inkscape:connector-curvature="0" fill="#E63030" d="M174.663,41.766c0.106,0.384,0.484,0.606,0.866,0.5
		c0.391-0.11,0.604-0.493,0.495-0.879c-0.106-0.384-0.49-0.602-0.877-0.495C174.763,40.999,174.556,41.382,174.663,41.766
		 M176.287,42.356l-0.074-0.265c0,0-0.14,0.358-0.615,0.49c-0.542,0.151-1.109-0.161-1.265-0.723
		c-0.156-0.559,0.165-1.125,0.706-1.276c0.471-0.131,0.78,0.098,0.78,0.098l-0.266-0.95l0.334-0.094l0.734,2.626L176.287,42.356z"/>
	<path id="path9444_1_" inkscape:connector-curvature="0" fill="#E63030" d="M178.246,41.808l-0.069-0.246
		c0,0-0.094,0.329-0.531,0.451c-0.452,0.126-0.839-0.1-0.971-0.576l-0.331-1.19l0.334-0.093l0.319,1.143
		c0.089,0.319,0.325,0.469,0.624,0.385c0.33-0.093,0.489-0.369,0.39-0.721l-0.305-1.094l0.334-0.093l0.541,1.941L178.246,41.808
		L178.246,41.808z"/>
	<path id="path9448_1_" inkscape:connector-curvature="0" fill="#E63030" d="M179.339,39.755c-0.379,0.106-0.539,0.424-0.431,0.811
		l0.274,0.981l-0.336,0.094l-0.542-1.94l0.334-0.094l0.09,0.324c0,0,0.079-0.4,0.516-0.522L179.339,39.755L179.339,39.755z"/>
	<path id="path9452_1_" inkscape:connector-curvature="0" fill="#E63030" d="M179.958,40.288c0.107,0.384,0.482,0.606,0.866,0.5
		c0.391-0.11,0.602-0.493,0.495-0.879c-0.107-0.384-0.491-0.602-0.879-0.495C180.058,39.522,179.851,39.904,179.958,40.288
		 M181.507,40.613c0,0-0.131,0.355-0.615,0.49c-0.54,0.151-1.107-0.161-1.264-0.723c-0.156-0.559,0.165-1.125,0.706-1.276
		c0.467-0.13,0.778,0.094,0.778,0.094l-0.071-0.261l0.332-0.093l0.541,1.94l-0.332,0.094L181.507,40.613L181.507,40.613z"/>
	<path id="path9456_1_" inkscape:connector-curvature="0" fill="#E63030" d="M182.039,38.919c0,0,0.085-0.317,0.499-0.434
		c0.272-0.076,0.519-0.013,0.691,0.163c0.031-0.107,0.156-0.399,0.568-0.513c0.447-0.126,0.815,0.094,0.94,0.555l0.337,1.213
		l-0.329,0.093l-0.326-1.171c-0.085-0.303-0.306-0.444-0.579-0.368c-0.303,0.084-0.455,0.342-0.364,0.669l0.317,1.135l-0.33,0.093
		l-0.326-1.171c-0.085-0.303-0.306-0.444-0.579-0.368c-0.306,0.085-0.452,0.346-0.359,0.684l0.312,1.12l-0.334,0.093l-0.541-1.94
		l0.334-0.094L182.039,38.919L182.039,38.919z"/>
	<path id="path9460_1_" inkscape:connector-curvature="0" fill="#E63030" d="M185.36,38.781c0.11,0.395,0.477,0.615,0.869,0.506
		c0.387-0.109,0.602-0.491,0.493-0.886c-0.111-0.399-0.486-0.616-0.874-0.509C185.456,38.002,185.249,38.383,185.36,38.781
		 M187.054,38.303c0.156,0.565-0.153,1.13-0.731,1.291c-0.583,0.163-1.14-0.156-1.297-0.725c-0.156-0.559,0.154-1.121,0.737-1.284
		C186.341,37.424,186.897,37.744,187.054,38.303"/>
	<path id="path9464_1_" inkscape:connector-curvature="0" fill="#E63030" d="M188.107,39.056l-0.353,0.099l0.376-2.354l-1.216,0.339
		l-0.086-0.311l1.569-0.438l0.084,0.299L188.107,39.056L188.107,39.056z"/>
	<path id="path9468_1_" inkscape:connector-curvature="0" fill="#4A525C" d="M159.929,57.387c-0.086-0.262-0.369-0.405-0.631-0.319
		c-0.262,0.086-0.405,0.369-0.319,0.631c0.086,0.262,0.369,0.405,0.631,0.319C159.873,57.932,160.016,57.65,159.929,57.387"/>
	<path id="path9472_1_" inkscape:connector-curvature="0" fill="#4A525C" d="M162.581,57.101c-0.086-0.262-0.369-0.405-0.631-0.319
		c-0.262,0.086-0.405,0.369-0.319,0.631c0.086,0.262,0.369,0.405,0.631,0.319C162.525,57.646,162.668,57.363,162.581,57.101"/>
	<path id="path9476_1_" inkscape:connector-curvature="0" fill="#4A525C" d="M159.61,54.739c-0.086-0.262-0.369-0.405-0.631-0.319
		c-0.262,0.086-0.405,0.369-0.319,0.631c0.086,0.262,0.369,0.405,0.631,0.319C159.553,55.284,159.696,55.001,159.61,54.739"/>
	<path id="path9480_1_" inkscape:connector-curvature="0" fill="#4A525C" d="M162.262,54.453c-0.086-0.262-0.369-0.405-0.631-0.319
		c-0.262,0.086-0.405,0.369-0.319,0.631c0.086,0.262,0.369,0.405,0.631,0.319C162.205,54.998,162.348,54.716,162.262,54.453"/>
	<path id="path9484_1_" inkscape:connector-curvature="0" fill="#4A525C" d="M161.942,51.805c-0.086-0.262-0.369-0.405-0.631-0.319
		c-0.262,0.086-0.405,0.37-0.319,0.631c0.086,0.262,0.369,0.405,0.631,0.319C161.886,52.35,162.028,52.067,161.942,51.805"/>
	<path id="path9488_1_" inkscape:connector-curvature="0" fill="#4A525C" d="M164.913,54.167c-0.086-0.262-0.369-0.405-0.631-0.319
		c-0.262,0.086-0.405,0.369-0.319,0.631c0.086,0.262,0.369,0.405,0.631,0.319C164.857,54.712,165,54.43,164.913,54.167"/>
	<path id="path9492_1_" inkscape:connector-curvature="0" fill="#4A525C" d="M167.565,53.881c-0.086-0.262-0.369-0.405-0.631-0.319
		c-0.262,0.086-0.405,0.369-0.319,0.631c0.086,0.262,0.369,0.405,0.631,0.319C167.509,54.426,167.652,54.144,167.565,53.881"/>
	<path id="path9496_1_" inkscape:connector-curvature="0" fill="#4A525C" d="M170.217,53.596c-0.086-0.262-0.369-0.405-0.631-0.319
		c-0.262,0.086-0.405,0.369-0.319,0.631c0.086,0.262,0.369,0.405,0.631,0.319C170.161,54.141,170.303,53.858,170.217,53.596"/>
	<path id="path9500_1_" inkscape:connector-curvature="0" fill="#4A525C" d="M172.869,53.309c-0.086-0.262-0.369-0.405-0.631-0.319
		c-0.262,0.086-0.405,0.369-0.319,0.631c0.086,0.262,0.369,0.405,0.631,0.319C172.812,53.854,172.955,53.572,172.869,53.309"/>
	<path id="path9504_1_" inkscape:connector-curvature="0" fill="#4A525C" d="M175.521,53.023c-0.086-0.262-0.369-0.405-0.631-0.319
		c-0.262,0.086-0.405,0.369-0.319,0.631c0.086,0.262,0.369,0.405,0.631,0.319C175.464,53.568,175.607,53.286,175.521,53.023"/>
	<path id="path9508_1_" inkscape:connector-curvature="0" fill="#4A525C" d="M178.172,52.737c-0.086-0.262-0.369-0.405-0.631-0.319
		c-0.262,0.086-0.405,0.369-0.319,0.631c0.086,0.262,0.369,0.405,0.631,0.319C178.116,53.282,178.258,53,178.172,52.737"/>
	<path id="path9512_1_" inkscape:connector-curvature="0" fill="#4A525C" d="M180.824,52.452c-0.086-0.262-0.369-0.405-0.631-0.319
		c-0.262,0.086-0.405,0.369-0.319,0.631c0.086,0.262,0.369,0.405,0.631,0.319C180.768,52.997,180.91,52.714,180.824,52.452"/>
	<path id="path9516_1_" inkscape:connector-curvature="0" fill="#4A525C" d="M183.476,52.166c-0.086-0.262-0.369-0.405-0.631-0.319
		c-0.262,0.086-0.405,0.369-0.319,0.631c0.086,0.262,0.369,0.405,0.631,0.319C183.419,52.711,183.562,52.428,183.476,52.166"/>
	<path id="path9520_1_" inkscape:connector-curvature="0" fill="#4A525C" d="M186.128,51.88c-0.086-0.262-0.369-0.405-0.631-0.319
		c-0.262,0.086-0.405,0.369-0.319,0.631c0.086,0.262,0.369,0.405,0.631,0.319C186.071,52.425,186.214,52.142,186.128,51.88"/>
	<path id="path9524_1_" inkscape:connector-curvature="0" fill="#4A525C" d="M188.779,51.594c-0.086-0.262-0.369-0.405-0.631-0.319
		c-0.262,0.086-0.405,0.369-0.319,0.631c0.086,0.262,0.369,0.405,0.631,0.319C188.723,52.139,188.866,51.856,188.779,51.594"/>
	<path id="path9528_1_" inkscape:connector-curvature="0" fill="#4A525C" d="M191.431,51.308c-0.086-0.262-0.369-0.405-0.631-0.319
		c-0.262,0.086-0.405,0.369-0.319,0.631c0.086,0.262,0.369,0.405,0.631,0.319C191.375,51.853,191.517,51.57,191.431,51.308"/>
	<path id="path9532_1_" inkscape:connector-curvature="0" fill="#4A525C" d="M194.083,51.022c-0.086-0.262-0.369-0.405-0.631-0.319
		c-0.262,0.086-0.405,0.369-0.319,0.631c0.086,0.262,0.369,0.405,0.631,0.319C194.026,51.567,194.169,51.284,194.083,51.022"/>
	<path id="path9536_1_" inkscape:connector-curvature="0" fill="#4A525C" d="M164.594,51.519c-0.086-0.262-0.369-0.405-0.631-0.319
		c-0.262,0.086-0.405,0.369-0.319,0.631c0.086,0.262,0.369,0.405,0.631,0.319C164.538,52.064,164.68,51.782,164.594,51.519"/>
	<path id="path9540_1_" inkscape:connector-curvature="0" fill="#4A525C" d="M167.246,51.233c-0.086-0.262-0.369-0.405-0.631-0.319
		c-0.262,0.086-0.405,0.369-0.319,0.631c0.086,0.262,0.369,0.405,0.631,0.319C167.189,51.778,167.332,51.496,167.246,51.233"/>
	<path id="path9544_1_" inkscape:connector-curvature="0" fill="#4A525C" d="M166.926,48.586c-0.086-0.262-0.369-0.405-0.631-0.319
		c-0.262,0.086-0.405,0.369-0.319,0.631c0.086,0.262,0.369,0.405,0.631,0.319C166.87,49.131,167.012,48.848,166.926,48.586"/>
	<path id="path9548_1_" inkscape:connector-curvature="0" fill="#4A525C" d="M169.897,50.947c-0.086-0.262-0.369-0.405-0.631-0.319
		c-0.262,0.086-0.405,0.369-0.319,0.631c0.086,0.262,0.369,0.405,0.631,0.319C169.841,51.492,169.984,51.209,169.897,50.947"/>
	<path id="path9552_1_" inkscape:connector-curvature="0" fill="#4A525C" d="M169.578,48.299c-0.086-0.262-0.369-0.405-0.631-0.319
		c-0.262,0.086-0.405,0.369-0.319,0.631c0.086,0.262,0.369,0.405,0.631,0.319C169.522,48.844,169.664,48.562,169.578,48.299"/>
	<path id="path9556_1_" inkscape:connector-curvature="0" fill="#4A525C" d="M172.549,50.661c-0.086-0.262-0.369-0.405-0.631-0.319
		c-0.262,0.086-0.405,0.369-0.319,0.631c0.086,0.262,0.369,0.405,0.631,0.319C172.493,51.206,172.635,50.924,172.549,50.661"/>
	<path id="path9560_1_" inkscape:connector-curvature="0" fill="#4A525C" d="M172.23,48.013c-0.086-0.262-0.369-0.405-0.631-0.319
		c-0.262,0.086-0.405,0.369-0.319,0.631c0.086,0.262,0.369,0.405,0.631,0.319C172.173,48.558,172.316,48.276,172.23,48.013"/>
	<path id="path9564_1_" inkscape:connector-curvature="0" fill="#4A525C" d="M175.201,50.375c-0.086-0.262-0.369-0.405-0.631-0.319
		c-0.262,0.086-0.405,0.369-0.319,0.631c0.086,0.262,0.369,0.405,0.631,0.319C175.145,50.92,175.287,50.638,175.201,50.375"/>
	<path id="path9568_1_" inkscape:connector-curvature="0" fill="#4A525C" d="M174.882,47.728c-0.086-0.262-0.369-0.405-0.631-0.319
		c-0.262,0.086-0.405,0.37-0.319,0.631c0.086,0.262,0.369,0.405,0.631,0.319C174.825,48.273,174.968,47.99,174.882,47.728"/>
	<path id="path9572_1_" inkscape:connector-curvature="0" fill="#4A525C" d="M177.853,50.089c-0.086-0.262-0.369-0.405-0.631-0.319
		c-0.262,0.086-0.405,0.369-0.319,0.631c0.086,0.262,0.369,0.405,0.631,0.319C177.796,50.634,177.939,50.352,177.853,50.089"/>
	<path id="path9576_1_" inkscape:connector-curvature="0" fill="#4A525C" d="M180.505,49.804c-0.086-0.262-0.369-0.405-0.631-0.319
		c-0.262,0.086-0.405,0.369-0.319,0.631c0.086,0.262,0.369,0.405,0.631,0.319C180.448,50.349,180.591,50.066,180.505,49.804"/>
	<path id="path9580_1_" inkscape:connector-curvature="0" fill="#4A525C" d="M183.156,49.518c-0.086-0.262-0.369-0.405-0.631-0.319
		c-0.262,0.086-0.405,0.369-0.319,0.631c0.086,0.262,0.369,0.405,0.631,0.319C183.1,50.063,183.243,49.78,183.156,49.518"/>
	<path id="path9584_1_" inkscape:connector-curvature="0" fill="#4A525C" d="M185.808,49.232c-0.086-0.262-0.369-0.405-0.631-0.319
		c-0.262,0.086-0.405,0.37-0.319,0.631c0.086,0.262,0.369,0.405,0.631,0.319C185.752,49.777,185.894,49.494,185.808,49.232"/>
	<path id="path9588_1_" inkscape:connector-curvature="0" fill="#4A525C" d="M188.46,48.946c-0.086-0.262-0.369-0.405-0.631-0.319
		c-0.262,0.086-0.405,0.369-0.319,0.631c0.086,0.262,0.369,0.405,0.631,0.319C188.403,49.491,188.546,49.208,188.46,48.946"/>
	<path id="path9592_1_" inkscape:connector-curvature="0" fill="#4A525C" d="M191.111,48.66c-0.086-0.262-0.369-0.405-0.631-0.319
		c-0.262,0.086-0.405,0.369-0.319,0.631c0.086,0.262,0.369,0.405,0.631,0.319C191.055,49.205,191.198,48.923,191.111,48.66"/>
	<path id="path9596_1_" inkscape:connector-curvature="0" fill="#4A525C" d="M193.763,48.374c-0.086-0.262-0.369-0.405-0.631-0.319
		c-0.262,0.086-0.405,0.369-0.319,0.631c0.086,0.262,0.369,0.405,0.631,0.319C193.707,48.919,193.85,48.636,193.763,48.374"/>
	<path id="path9600_1_" inkscape:connector-curvature="0" fill="#4A525C" d="M177.533,47.441c-0.086-0.262-0.369-0.405-0.631-0.319
		c-0.262,0.086-0.405,0.37-0.319,0.631c0.086,0.262,0.369,0.405,0.631,0.319C177.477,47.986,177.619,47.704,177.533,47.441"/>
	<path id="path9604_1_" inkscape:connector-curvature="0" fill="#4A525C" d="M180.185,47.155c-0.086-0.262-0.369-0.405-0.631-0.319
		c-0.262,0.086-0.405,0.37-0.319,0.631c0.086,0.262,0.369,0.405,0.631,0.319C180.129,47.7,180.271,47.418,180.185,47.155"/>
	<path id="path9608_1_" inkscape:connector-curvature="0" fill="#4A525C" d="M179.865,44.508c-0.086-0.262-0.369-0.405-0.631-0.319
		c-0.262,0.086-0.405,0.369-0.319,0.631c0.086,0.262,0.369,0.405,0.631,0.319C179.809,45.053,179.952,44.77,179.865,44.508"/>
	<path id="path9612_1_" inkscape:connector-curvature="0" fill="#4A525C" d="M182.837,46.87c-0.086-0.262-0.369-0.405-0.631-0.319
		c-0.262,0.086-0.405,0.369-0.319,0.631c0.086,0.262,0.369,0.405,0.631,0.319C182.78,47.415,182.923,47.132,182.837,46.87"/>
	<path id="path9616_1_" inkscape:connector-curvature="0" fill="#4A525C" d="M182.517,44.222c-0.086-0.262-0.369-0.405-0.631-0.319
		c-0.262,0.086-0.405,0.369-0.319,0.631c0.086,0.262,0.369,0.405,0.631,0.319C182.461,44.767,182.603,44.484,182.517,44.222"/>
	<path id="path9620_1_" inkscape:connector-curvature="0" fill="#4A525C" d="M185.489,46.584c-0.086-0.262-0.369-0.405-0.631-0.319
		c-0.262,0.086-0.405,0.369-0.319,0.631c0.086,0.262,0.369,0.405,0.631,0.319C185.432,47.129,185.575,46.846,185.489,46.584"/>
	<path id="path9624_1_" inkscape:connector-curvature="0" fill="#4A525C" d="M185.169,43.936c-0.086-0.262-0.369-0.405-0.631-0.319
		c-0.262,0.086-0.405,0.369-0.319,0.631c0.086,0.262,0.369,0.405,0.631,0.319C185.113,44.481,185.255,44.199,185.169,43.936"/>
	<path id="path9628_1_" inkscape:connector-curvature="0" fill="#4A525C" d="M188.14,46.298c-0.086-0.262-0.369-0.405-0.631-0.319
		c-0.262,0.086-0.405,0.369-0.319,0.631c0.086,0.262,0.369,0.405,0.631,0.319C188.084,46.843,188.226,46.56,188.14,46.298"/>
	<path id="path9632_1_" inkscape:connector-curvature="0" fill="#4A525C" d="M187.821,43.65c-0.086-0.262-0.369-0.405-0.631-0.319
		c-0.262,0.086-0.405,0.369-0.319,0.631c0.086,0.262,0.369,0.405,0.631,0.319C187.764,44.195,187.907,43.913,187.821,43.65"/>
	<path id="path9636_1_" inkscape:connector-curvature="0" fill="#4A525C" d="M190.792,46.012c-0.086-0.262-0.369-0.405-0.631-0.319
		c-0.262,0.086-0.405,0.37-0.319,0.631c0.086,0.262,0.369,0.405,0.631,0.319C190.736,46.557,190.878,46.274,190.792,46.012"/>
	<path id="path9640_1_" inkscape:connector-curvature="0" fill="#4A525C" d="M190.473,43.364c-0.086-0.262-0.369-0.405-0.631-0.319
		c-0.262,0.086-0.405,0.369-0.319,0.631c0.086,0.262,0.369,0.405,0.631,0.319C190.416,43.909,190.559,43.626,190.473,43.364"/>
	<path id="path9644_1_" inkscape:connector-curvature="0" fill="#4A525C" d="M193.444,45.726c-0.086-0.262-0.369-0.405-0.631-0.319
		c-0.262,0.086-0.405,0.369-0.319,0.631c0.086,0.262,0.369,0.405,0.631,0.319C193.387,46.271,193.53,45.989,193.444,45.726"/>
	<path id="path9648_1_" inkscape:connector-curvature="0" fill="#4A525C" d="M165.233,56.815c-0.086-0.262-0.369-0.405-0.631-0.319
		c-0.262,0.086-0.405,0.369-0.319,0.631c0.086,0.262,0.369,0.405,0.631,0.319C165.177,57.36,165.319,57.077,165.233,56.815"/>
	<path id="path9652_1_" inkscape:connector-curvature="0" fill="#4A525C" d="M167.885,56.529c-0.086-0.262-0.369-0.405-0.631-0.319
		c-0.262,0.086-0.405,0.369-0.319,0.631c0.086,0.262,0.369,0.405,0.631,0.319C167.828,57.074,167.971,56.791,167.885,56.529"/>
	<path id="path9656_1_" inkscape:connector-curvature="0" fill="#4A525C" d="M170.536,56.243c-0.086-0.262-0.369-0.405-0.631-0.319
		c-0.262,0.086-0.405,0.369-0.319,0.631c0.086,0.262,0.369,0.405,0.631,0.319C170.48,56.788,170.623,56.506,170.536,56.243"/>
	<path id="path9660_1_" inkscape:connector-curvature="0" fill="#4A525C" d="M173.188,55.957c-0.086-0.262-0.369-0.405-0.631-0.319
		c-0.262,0.086-0.405,0.369-0.319,0.631c0.086,0.262,0.369,0.405,0.631,0.319C173.132,56.502,173.275,56.22,173.188,55.957"/>
	<path id="path9664_1_" inkscape:connector-curvature="0" fill="#4A525C" d="M175.84,55.671c-0.086-0.262-0.369-0.405-0.631-0.319
		c-0.262,0.086-0.405,0.369-0.319,0.631c0.086,0.262,0.369,0.405,0.631,0.319C175.784,56.216,175.926,55.934,175.84,55.671"/>
	<path id="path9668_1_" inkscape:connector-curvature="0" fill="#4A525C" d="M178.492,55.386c-0.086-0.262-0.369-0.405-0.631-0.319
		c-0.262,0.086-0.405,0.369-0.319,0.631c0.086,0.262,0.369,0.405,0.631,0.319C178.435,55.931,178.578,55.648,178.492,55.386"/>
	<path id="path9672_1_" inkscape:connector-curvature="0" fill="#4A525C" d="M181.143,55.099c-0.086-0.262-0.369-0.405-0.631-0.319
		c-0.262,0.086-0.405,0.37-0.319,0.631c0.086,0.262,0.369,0.405,0.631,0.319C181.087,55.644,181.23,55.362,181.143,55.099"/>
	<path id="path9676_1_" inkscape:connector-curvature="0" fill="#4A525C" d="M183.795,54.814c-0.086-0.262-0.369-0.405-0.631-0.319
		c-0.262,0.086-0.405,0.369-0.319,0.631c0.086,0.262,0.369,0.405,0.631,0.319C183.739,55.359,183.882,55.076,183.795,54.814"/>
	<path id="path9680_1_" inkscape:connector-curvature="0" fill="#4A525C" d="M186.447,54.528c-0.086-0.262-0.369-0.405-0.631-0.319
		c-0.262,0.086-0.405,0.369-0.319,0.631c0.086,0.262,0.369,0.405,0.631,0.319C186.391,55.073,186.533,54.79,186.447,54.528"/>
	<path id="path9684_1_" inkscape:connector-curvature="0" fill="#4A525C" d="M189.099,54.242c-0.086-0.262-0.369-0.405-0.631-0.319
		c-0.262,0.086-0.405,0.369-0.319,0.631c0.086,0.262,0.369,0.405,0.631,0.319C189.042,54.787,189.185,54.504,189.099,54.242"/>
	<path id="path9688_1_" inkscape:connector-curvature="0" fill="#4A525C" d="M191.75,53.956c-0.086-0.262-0.369-0.405-0.631-0.319
		c-0.262,0.086-0.405,0.369-0.319,0.631c0.086,0.262,0.369,0.405,0.631,0.319C191.694,54.501,191.837,54.218,191.75,53.956"/>
	<path id="path9692_1_" inkscape:connector-curvature="0" fill="#4A525C" d="M194.402,53.669c-0.086-0.262-0.369-0.405-0.631-0.319
		c-0.262,0.086-0.405,0.37-0.319,0.631c0.086,0.262,0.369,0.405,0.631,0.319C194.346,54.214,194.489,53.932,194.402,53.669"/>
	<path id="path9696_1_" inkscape:connector-curvature="0" fill="#4A525C" d="M181.048,55.131c-0.069-0.21-0.295-0.324-0.505-0.255
		c-0.21,0.069-0.324,0.295-0.255,0.505c0.07,0.21,0.295,0.324,0.505,0.255C181.003,55.567,181.117,55.341,181.048,55.131"/>
	<path id="path9700_1_" inkscape:connector-curvature="0" fill="#4A525C" d="M180.729,52.483c-0.069-0.21-0.295-0.324-0.505-0.255
		c-0.21,0.069-0.324,0.295-0.255,0.505s0.295,0.324,0.505,0.255C180.684,52.919,180.798,52.693,180.729,52.483"/>
	<path id="path9704_1_" inkscape:connector-curvature="0" fill="#4A525C" d="M180.409,49.835c-0.069-0.21-0.295-0.324-0.505-0.255
		c-0.21,0.069-0.324,0.295-0.255,0.505s0.295,0.324,0.505,0.255C180.364,50.271,180.478,50.045,180.409,49.835"/>
	<path id="path9708_1_" inkscape:connector-curvature="0" fill="#4A525C" d="M180.09,47.187c-0.069-0.21-0.295-0.324-0.505-0.255
		c-0.21,0.069-0.324,0.295-0.255,0.505c0.07,0.21,0.295,0.324,0.505,0.255C180.045,47.623,180.159,47.397,180.09,47.187"/>
	<path id="path9712_1_" inkscape:connector-curvature="0" fill="#4A525C" d="M179.77,44.539c-0.069-0.21-0.295-0.324-0.505-0.255
		c-0.21,0.069-0.324,0.295-0.255,0.505s0.295,0.324,0.505,0.255C179.725,44.975,179.839,44.749,179.77,44.539"/>
	<path id="path9716_1_" inkscape:connector-curvature="0" fill="#4A525C" d="M183.701,54.845c-0.069-0.21-0.295-0.324-0.505-0.255
		c-0.21,0.069-0.324,0.295-0.255,0.505s0.295,0.324,0.505,0.255C183.656,55.281,183.769,55.055,183.701,54.845"/>
	<path id="path9720_1_" inkscape:connector-curvature="0" fill="#4A525C" d="M183.381,52.197c-0.069-0.21-0.295-0.324-0.505-0.255
		c-0.21,0.069-0.324,0.295-0.255,0.505s0.295,0.324,0.505,0.255C183.336,52.633,183.45,52.407,183.381,52.197"/>
	<path id="path9724_1_" inkscape:connector-curvature="0" fill="#4A525C" d="M183.061,49.549c-0.069-0.21-0.295-0.324-0.505-0.255
		c-0.21,0.07-0.324,0.295-0.255,0.505s0.295,0.324,0.505,0.255C183.016,49.985,183.13,49.759,183.061,49.549"/>
	<path id="path9728_1_" inkscape:connector-curvature="0" fill="#4A525C" d="M182.742,46.901c-0.069-0.21-0.295-0.324-0.505-0.255
		c-0.21,0.069-0.324,0.295-0.255,0.505s0.295,0.324,0.505,0.255C182.697,47.337,182.81,47.111,182.742,46.901"/>
	<path id="path9732_1_" inkscape:connector-curvature="0" fill="#4A525C" d="M182.422,44.253c-0.069-0.21-0.295-0.324-0.505-0.255
		c-0.21,0.069-0.324,0.295-0.255,0.505s0.295,0.324,0.505,0.255C182.377,44.689,182.491,44.463,182.422,44.253"/>
	<path id="path9736_1_" inkscape:connector-curvature="0" fill="#4A525C" d="M186.352,54.559c-0.069-0.21-0.295-0.324-0.505-0.255
		c-0.21,0.069-0.324,0.295-0.255,0.505s0.295,0.324,0.505,0.255C186.307,54.995,186.421,54.769,186.352,54.559"/>
	<path id="path9740_1_" inkscape:connector-curvature="0" fill="#4A525C" d="M186.032,51.911c-0.069-0.21-0.295-0.324-0.505-0.255
		c-0.21,0.069-0.324,0.295-0.255,0.505s0.295,0.324,0.505,0.255C185.987,52.347,186.101,52.121,186.032,51.911"/>
	<path id="path9744_1_" inkscape:connector-curvature="0" fill="#4A525C" d="M185.713,49.263c-0.069-0.21-0.295-0.324-0.505-0.255
		c-0.21,0.07-0.324,0.295-0.255,0.505s0.295,0.325,0.505,0.255C185.668,49.699,185.782,49.473,185.713,49.263"/>
	<path id="path9748_1_" inkscape:connector-curvature="0" fill="#4A525C" d="M185.393,46.615c-0.069-0.21-0.295-0.324-0.505-0.255
		c-0.21,0.069-0.324,0.295-0.255,0.505c0.07,0.21,0.295,0.324,0.505,0.255C185.348,47.051,185.462,46.825,185.393,46.615"/>
	<path id="path9752_1_" inkscape:connector-curvature="0" fill="#4A525C" d="M185.074,43.967c-0.069-0.21-0.295-0.324-0.505-0.255
		c-0.21,0.069-0.324,0.295-0.255,0.505s0.295,0.324,0.505,0.255C185.029,44.404,185.143,44.177,185.074,43.967"/>
	<path id="path9756_1_" inkscape:connector-curvature="0" fill="#4A525C" d="M189.004,54.273c-0.069-0.21-0.295-0.324-0.505-0.255
		c-0.21,0.069-0.324,0.295-0.255,0.505s0.295,0.325,0.505,0.255C188.959,54.709,189.073,54.483,189.004,54.273"/>
	<path id="path9760_1_" inkscape:connector-curvature="0" fill="#4A525C" d="M188.684,51.625c-0.069-0.21-0.295-0.324-0.505-0.255
		c-0.21,0.069-0.324,0.295-0.255,0.505s0.295,0.324,0.505,0.255C188.639,52.061,188.753,51.835,188.684,51.625"/>
	<path id="path9764_1_" inkscape:connector-curvature="0" fill="#4A525C" d="M188.365,48.977c-0.069-0.21-0.295-0.324-0.505-0.255
		c-0.21,0.069-0.324,0.295-0.255,0.505s0.295,0.324,0.505,0.255C188.32,49.413,188.433,49.187,188.365,48.977"/>
	<path id="path9768_1_" inkscape:connector-curvature="0" fill="#4A525C" d="M188.045,46.329c-0.069-0.21-0.295-0.324-0.505-0.255
		c-0.21,0.07-0.324,0.295-0.255,0.505s0.295,0.325,0.505,0.255C188,46.765,188.114,46.539,188.045,46.329"/>
	<path id="path9772_1_" inkscape:connector-curvature="0" fill="#4A525C" d="M187.726,43.681c-0.069-0.21-0.295-0.324-0.505-0.255
		c-0.21,0.069-0.324,0.295-0.255,0.505s0.295,0.324,0.505,0.255C187.681,44.118,187.794,43.891,187.726,43.681"/>
	<path id="path9776_1_" inkscape:connector-curvature="0" fill="#4A525C" d="M191.656,53.987c-0.069-0.21-0.295-0.324-0.505-0.255
		c-0.21,0.07-0.324,0.295-0.255,0.505s0.295,0.325,0.505,0.255C191.611,54.423,191.724,54.197,191.656,53.987"/>
	<path id="path9780_1_" inkscape:connector-curvature="0" fill="#4A525C" d="M191.336,51.339c-0.069-0.21-0.295-0.324-0.505-0.255
		c-0.21,0.069-0.324,0.295-0.255,0.505s0.295,0.324,0.505,0.255C191.291,51.776,191.405,51.549,191.336,51.339"/>
	<path id="path9784_1_" inkscape:connector-curvature="0" fill="#4A525C" d="M191.017,48.691c-0.069-0.21-0.295-0.324-0.505-0.255
		c-0.21,0.07-0.324,0.295-0.255,0.505s0.295,0.324,0.505,0.255C190.972,49.128,191.086,48.901,191.017,48.691"/>
	<path id="path9788_1_" inkscape:connector-curvature="0" fill="#4A525C" d="M190.697,46.043c-0.069-0.21-0.295-0.324-0.505-0.255
		c-0.21,0.069-0.324,0.295-0.255,0.505s0.295,0.324,0.505,0.255C190.652,46.479,190.766,46.253,190.697,46.043"/>
	<path id="path9792_1_" inkscape:connector-curvature="0" fill="#4A525C" d="M190.378,43.395c-0.069-0.21-0.295-0.324-0.505-0.255
		c-0.21,0.069-0.324,0.295-0.255,0.505s0.295,0.324,0.505,0.255C190.332,43.831,190.446,43.605,190.378,43.395"/>
	<path id="path9796_1_" inkscape:connector-curvature="0" fill="#4A525C" d="M166.831,48.617c-0.069-0.21-0.295-0.324-0.505-0.255
		c-0.21,0.069-0.324,0.295-0.255,0.505s0.295,0.324,0.505,0.255C166.786,49.053,166.9,48.827,166.831,48.617"/>
	<path id="path9800_1_" inkscape:connector-curvature="0" fill="#4A525C" d="M167.47,53.912c-0.069-0.21-0.295-0.324-0.505-0.255
		c-0.21,0.07-0.324,0.295-0.255,0.505s0.295,0.324,0.505,0.255C167.425,54.349,167.539,54.122,167.47,53.912"/>
	<path id="path9804_1_" inkscape:connector-curvature="0" fill="#4A525C" d="M167.15,51.264c-0.069-0.21-0.295-0.324-0.505-0.255
		c-0.21,0.069-0.324,0.295-0.255,0.505s0.295,0.324,0.505,0.255C167.105,51.701,167.219,51.474,167.15,51.264"/>
	<path id="path9808_1_" inkscape:connector-curvature="0" fill="#4A525C" d="M167.79,56.56c-0.069-0.21-0.295-0.324-0.505-0.255
		c-0.21,0.069-0.324,0.295-0.255,0.505s0.295,0.324,0.505,0.255C167.745,56.996,167.858,56.77,167.79,56.56"/>
	<path id="path9812_1_" inkscape:connector-curvature="0" fill="#4A525C" d="M169.483,48.331c-0.069-0.21-0.295-0.324-0.505-0.255
		c-0.21,0.069-0.324,0.295-0.255,0.505s0.295,0.324,0.505,0.255C169.438,48.767,169.552,48.541,169.483,48.331"/>
	<path id="path9816_1_" inkscape:connector-curvature="0" fill="#4A525C" d="M170.122,53.627c-0.069-0.21-0.295-0.324-0.505-0.255
		c-0.21,0.069-0.324,0.295-0.255,0.505s0.295,0.324,0.505,0.255C170.077,54.063,170.191,53.837,170.122,53.627"/>
	<path id="path9820_1_" inkscape:connector-curvature="0" fill="#4A525C" d="M169.802,50.978c-0.069-0.21-0.295-0.324-0.505-0.255
		c-0.21,0.07-0.324,0.295-0.255,0.505s0.295,0.325,0.505,0.255C169.757,51.415,169.871,51.188,169.802,50.978"/>
	<path id="path9824_1_" inkscape:connector-curvature="0" fill="#4A525C" d="M170.442,56.274c-0.069-0.21-0.295-0.324-0.505-0.255
		c-0.21,0.07-0.324,0.295-0.255,0.505s0.295,0.325,0.505,0.255C170.396,56.711,170.51,56.484,170.442,56.274"/>
	<path id="path9828_1_" inkscape:connector-curvature="0" fill="#4A525C" d="M172.135,48.045c-0.069-0.21-0.295-0.324-0.505-0.255
		c-0.21,0.069-0.324,0.295-0.255,0.505s0.295,0.324,0.505,0.255C172.09,48.481,172.203,48.255,172.135,48.045"/>
	<path id="path9832_1_" inkscape:connector-curvature="0" fill="#4A525C" d="M172.774,53.341c-0.069-0.21-0.295-0.324-0.505-0.255
		c-0.21,0.07-0.324,0.295-0.255,0.505s0.295,0.324,0.505,0.255C172.729,53.777,172.842,53.551,172.774,53.341"/>
	<path id="path9836_1_" inkscape:connector-curvature="0" fill="#4A525C" d="M172.454,50.693c-0.069-0.21-0.295-0.324-0.505-0.255
		c-0.21,0.07-0.324,0.295-0.255,0.505s0.295,0.325,0.505,0.255C172.409,51.129,172.523,50.903,172.454,50.693"/>
	<path id="path9840_1_" inkscape:connector-curvature="0" fill="#4A525C" d="M173.093,55.989c-0.069-0.21-0.295-0.324-0.505-0.255
		c-0.21,0.069-0.324,0.295-0.255,0.505s0.295,0.324,0.505,0.255C173.048,56.425,173.162,56.199,173.093,55.989"/>
	<path id="path9844_1_" inkscape:connector-curvature="0" fill="#4A525C" d="M174.786,47.759c-0.069-0.21-0.295-0.324-0.505-0.255
		c-0.21,0.069-0.324,0.295-0.255,0.505s0.295,0.325,0.505,0.255C174.741,48.195,174.855,47.969,174.786,47.759"/>
	<path id="path9848_1_" inkscape:connector-curvature="0" fill="#4A525C" d="M175.425,53.055c-0.069-0.21-0.295-0.324-0.505-0.255
		c-0.21,0.069-0.324,0.295-0.255,0.505s0.295,0.324,0.505,0.255C175.38,53.491,175.494,53.265,175.425,53.055"/>
	<path id="path9852_1_" inkscape:connector-curvature="0" fill="#4A525C" d="M175.106,50.407c-0.069-0.21-0.295-0.324-0.505-0.255
		c-0.21,0.07-0.324,0.295-0.255,0.505s0.295,0.324,0.505,0.255C175.061,50.843,175.175,50.617,175.106,50.407"/>
	<path id="path9856_1_" inkscape:connector-curvature="0" fill="#4A525C" d="M175.745,55.702c-0.069-0.21-0.295-0.324-0.505-0.255
		c-0.21,0.069-0.324,0.295-0.255,0.505s0.295,0.324,0.505,0.255C175.7,56.139,175.814,55.912,175.745,55.702"/>
	<path id="path9860_1_" inkscape:connector-curvature="0" fill="#4A525C" d="M177.438,47.473c-0.069-0.21-0.295-0.324-0.505-0.255
		c-0.21,0.07-0.324,0.295-0.255,0.505s0.295,0.325,0.505,0.255C177.393,47.909,177.507,47.683,177.438,47.473"/>
	<path id="path9864_1_" inkscape:connector-curvature="0" fill="#4A525C" d="M178.077,52.769c-0.069-0.21-0.295-0.324-0.505-0.255
		c-0.21,0.07-0.324,0.295-0.255,0.505s0.295,0.324,0.505,0.255C178.032,53.205,178.146,52.979,178.077,52.769"/>
	<path id="path9868_1_" inkscape:connector-curvature="0" fill="#4A525C" d="M177.758,50.121c-0.069-0.21-0.295-0.324-0.505-0.255
		c-0.21,0.069-0.324,0.295-0.255,0.505s0.295,0.324,0.505,0.255C177.713,50.557,177.826,50.331,177.758,50.121"/>
	<path id="path9872_1_" inkscape:connector-curvature="0" fill="#4A525C" d="M178.397,55.417c-0.069-0.21-0.295-0.324-0.505-0.255
		c-0.21,0.069-0.324,0.295-0.255,0.505s0.295,0.324,0.505,0.255C178.352,55.853,178.465,55.627,178.397,55.417"/>
	<path id="path9876_1_" inkscape:connector-curvature="0" fill="#4A525C" d="M162.486,57.132c-0.069-0.21-0.295-0.324-0.505-0.255
		c-0.21,0.069-0.324,0.295-0.255,0.505s0.295,0.324,0.505,0.255C162.441,57.569,162.555,57.342,162.486,57.132"/>
	<path id="path9880_1_" inkscape:connector-curvature="0" fill="#4A525C" d="M162.167,54.484c-0.069-0.21-0.295-0.324-0.505-0.255
		c-0.21,0.069-0.324,0.295-0.255,0.505s0.295,0.324,0.505,0.255C162.122,54.921,162.235,54.694,162.167,54.484"/>
	<path id="path9884_1_" inkscape:connector-curvature="0" fill="#4A525C" d="M161.847,51.836c-0.069-0.21-0.295-0.324-0.505-0.255
		c-0.21,0.069-0.324,0.295-0.255,0.505c0.07,0.21,0.295,0.324,0.505,0.255C161.802,52.272,161.916,52.046,161.847,51.836"/>
	<path id="path9888_1_" inkscape:connector-curvature="0" fill="#4A525C" d="M165.138,56.846c-0.069-0.21-0.295-0.324-0.505-0.255
		c-0.21,0.069-0.324,0.295-0.255,0.505s0.295,0.324,0.505,0.255C165.093,57.282,165.207,57.056,165.138,56.846"/>
	<path id="path9892_1_" inkscape:connector-curvature="0" fill="#4A525C" d="M164.818,54.198c-0.069-0.21-0.295-0.324-0.505-0.255
		c-0.21,0.069-0.324,0.295-0.255,0.505s0.295,0.324,0.505,0.255C164.773,54.635,164.887,54.408,164.818,54.198"/>
	<path id="path9896_1_" inkscape:connector-curvature="0" fill="#4A525C" d="M164.499,51.55c-0.069-0.21-0.295-0.324-0.505-0.255
		c-0.21,0.069-0.324,0.295-0.255,0.505c0.07,0.21,0.295,0.324,0.505,0.255C164.454,51.987,164.567,51.76,164.499,51.55"/>
	<path id="path9900_1_" inkscape:connector-curvature="0" fill="#4A525C" d="M159.834,57.418c-0.069-0.21-0.295-0.324-0.505-0.255
		c-0.21,0.069-0.324,0.295-0.255,0.505s0.295,0.324,0.505,0.255C159.789,57.855,159.903,57.628,159.834,57.418"/>
	<path id="path9904_1_" inkscape:connector-curvature="0" fill="#4A525C" d="M159.515,54.77c-0.069-0.21-0.295-0.324-0.505-0.255
		c-0.21,0.069-0.324,0.295-0.255,0.505s0.295,0.324,0.505,0.255C159.47,55.206,159.584,54.98,159.515,54.77"/>
	<path id="path9908_1_" inkscape:connector-curvature="0" fill="#4A525C" d="M193.349,45.757c-0.069-0.21-0.295-0.324-0.505-0.255
		c-0.21,0.07-0.324,0.295-0.255,0.505s0.295,0.325,0.505,0.255C193.304,46.194,193.418,45.967,193.349,45.757"/>
	<path id="path9912_1_" inkscape:connector-curvature="0" fill="#4A525C" d="M194.307,53.701c-0.069-0.21-0.295-0.324-0.505-0.255
		c-0.21,0.069-0.324,0.295-0.255,0.505c0.07,0.21,0.295,0.324,0.505,0.255C194.262,54.137,194.376,53.911,194.307,53.701"/>
	<path id="path9916_1_" inkscape:connector-curvature="0" fill="#4A525C" d="M193.988,51.053c-0.069-0.21-0.295-0.324-0.505-0.255
		c-0.21,0.069-0.324,0.295-0.255,0.505s0.295,0.324,0.505,0.255C193.943,51.489,194.057,51.263,193.988,51.053"/>
	<path id="path9920_1_" inkscape:connector-curvature="0" fill="#4A525C" d="M193.668,48.405c-0.069-0.21-0.295-0.324-0.505-0.255
		c-0.21,0.069-0.324,0.295-0.255,0.505s0.295,0.324,0.505,0.255C193.623,48.842,193.737,48.615,193.668,48.405"/>
	
		<path id="path9924_1_" inkscape:connector-curvature="0" fill="none" stroke="#808081" stroke-width="0.172" stroke-linecap="round" stroke-linejoin="round" stroke-miterlimit="10" d="
		M56.208,60.488c-0.041-0.283-0.304-0.477-0.586-0.436c-0.281,0.041-0.478,0.304-0.436,0.586c0.042,0.283,0.304,0.477,0.586,0.436
		S56.249,60.77,56.208,60.488z"/>
	
		<path id="path9928_1_" inkscape:connector-curvature="0" fill="none" stroke="#808081" stroke-width="0.172" stroke-linecap="round" stroke-linejoin="round" stroke-miterlimit="10" d="
		M62.259,60.702c-0.041-0.283-0.304-0.477-0.586-0.436c-0.281,0.041-0.478,0.304-0.436,0.586c0.042,0.283,0.304,0.477,0.586,0.436
		S62.3,60.984,62.259,60.702z"/>
	
		<path id="path9932_1_" inkscape:connector-curvature="0" fill="none" stroke="#808081" stroke-width="0.172" stroke-linecap="round" stroke-linejoin="round" stroke-miterlimit="10" d="
		M61.927,66.037c-0.041-0.283-0.304-0.477-0.586-0.436s-0.478,0.304-0.436,0.586c0.041,0.283,0.304,0.477,0.586,0.436
		S61.968,66.319,61.927,66.037z"/>
	
		<path id="path9936_1_" inkscape:connector-curvature="0" fill="none" stroke="#808081" stroke-width="0.172" stroke-linecap="round" stroke-linejoin="round" stroke-miterlimit="10" d="
		M55.875,65.807c-0.041-0.283-0.304-0.477-0.586-0.436s-0.478,0.304-0.436,0.586c0.042,0.283,0.304,0.477,0.586,0.436
		S55.916,66.09,55.875,65.807z"/>
	
		<path id="path9940_1_" inkscape:connector-curvature="0" fill="none" stroke="#808081" stroke-width="0.172" stroke-linecap="round" stroke-linejoin="round" stroke-miterlimit="10" d="
		M67.978,66.249c-0.041-0.283-0.304-0.477-0.586-0.436c-0.283,0.041-0.478,0.304-0.436,0.586c0.042,0.283,0.304,0.477,0.586,0.436
		C67.824,66.794,68.019,66.531,67.978,66.249z"/>
	
		<path id="path9944_1_" inkscape:connector-curvature="0" fill="none" stroke="#808081" stroke-width="0.172" stroke-linecap="round" stroke-linejoin="round" stroke-miterlimit="10" d="
		M74.028,66.443c-0.041-0.283-0.304-0.477-0.586-0.436c-0.281,0.041-0.478,0.304-0.436,0.586c0.042,0.283,0.304,0.477,0.586,0.436
		C73.874,66.988,74.069,66.725,74.028,66.443z"/>
	
		<path id="path9948_1_" inkscape:connector-curvature="0" fill="none" stroke="#808081" stroke-width="0.172" stroke-linecap="round" stroke-linejoin="round" stroke-miterlimit="10" d="
		M80.077,66.626c-0.041-0.283-0.304-0.477-0.586-0.436c-0.282,0.041-0.478,0.304-0.436,0.586c0.041,0.283,0.304,0.477,0.586,0.436
		C79.923,67.171,80.118,66.909,80.077,66.626z"/>
	
		<path id="path9952_1_" inkscape:connector-curvature="0" fill="none" stroke="#808081" stroke-width="0.111" stroke-linecap="round" stroke-linejoin="round" stroke-miterlimit="10" d="
		M95.769,42.274c-0.116-0.316-0.467-0.479-0.784-0.363c-0.316,0.116-0.479,0.467-0.362,0.784c0.116,0.316,0.467,0.479,0.784,0.363
		C95.723,42.942,95.885,42.591,95.769,42.274z"/>
	
		<path id="path9956_1_" inkscape:connector-curvature="0" fill="none" stroke="#808081" stroke-width="0.111" stroke-linecap="round" stroke-linejoin="round" stroke-miterlimit="10" d="
		M98.414,41.535c-0.116-0.316-0.467-0.479-0.784-0.363c-0.316,0.116-0.479,0.467-0.362,0.784c0.116,0.316,0.467,0.479,0.784,0.363
		C98.368,42.203,98.53,41.851,98.414,41.535z"/>
	
		<path id="path9960_1_" inkscape:connector-curvature="0" fill="none" stroke="#808081" stroke-width="0.111" stroke-linecap="round" stroke-linejoin="round" stroke-miterlimit="10" d="
		M99.187,44.778c-0.116-0.316-0.467-0.479-0.784-0.363c-0.316,0.116-0.479,0.467-0.362,0.784c0.116,0.316,0.467,0.479,0.784,0.363
		C99.141,45.446,99.303,45.095,99.187,44.778z"/>
	
		<path id="path9964_1_" inkscape:connector-curvature="0" fill="none" stroke="#808081" stroke-width="0.111" stroke-linecap="round" stroke-linejoin="round" stroke-miterlimit="10" d="
		M102.344,47.378c-0.064-0.173-0.255-0.261-0.427-0.197c-0.173,0.062-0.261,0.255-0.198,0.428c0.063,0.173,0.255,0.261,0.427,0.197
		C102.319,47.742,102.408,47.551,102.344,47.378z"/>
	
		<path id="path9968_1_" inkscape:connector-curvature="0" fill="none" stroke="#808081" stroke-width="0.111" stroke-linecap="round" stroke-linejoin="round" stroke-miterlimit="10" d="
		M101.836,44.038c-0.116-0.316-0.467-0.479-0.784-0.363c-0.317,0.116-0.479,0.467-0.362,0.784c0.116,0.316,0.467,0.479,0.784,0.363
		C101.79,44.706,101.952,44.354,101.836,44.038z"/>
	
		<path id="path9972_1_" inkscape:connector-curvature="0" fill="none" stroke="#808081" stroke-width="0.111" stroke-linecap="round" stroke-linejoin="round" stroke-miterlimit="10" d="
		M105.257,46.541c-0.116-0.316-0.467-0.479-0.784-0.363c-0.316,0.116-0.479,0.467-0.362,0.784c0.116,0.316,0.467,0.479,0.784,0.363
		C105.211,47.209,105.373,46.857,105.257,46.541z"/>
	
		<path id="path9976_1_" inkscape:connector-curvature="0" fill="none" stroke="#808081" stroke-width="0.111" stroke-linecap="round" stroke-linejoin="round" stroke-miterlimit="10" d="
		M106.332,50.3c-0.064-0.173-0.255-0.261-0.427-0.197c-0.173,0.064-0.261,0.255-0.198,0.428c0.063,0.173,0.255,0.261,0.427,0.197
		C106.307,50.663,106.396,50.472,106.332,50.3z"/>
	
		<path id="path9980_1_" inkscape:connector-curvature="0" fill="none" stroke="#808081" stroke-width="0.111" stroke-linecap="round" stroke-linejoin="round" stroke-miterlimit="10" d="
		M108.988,49.557c-0.064-0.173-0.255-0.261-0.427-0.197c-0.173,0.064-0.261,0.255-0.198,0.428c0.063,0.173,0.255,0.261,0.427,0.197
		C108.963,49.921,109.052,49.73,108.988,49.557z"/>
	
		<path id="path9984_1_" inkscape:connector-curvature="0" fill="none" stroke="#808081" stroke-width="0.111" stroke-linecap="round" stroke-linejoin="round" stroke-miterlimit="10" d="
		M110.319,53.221c-0.064-0.173-0.255-0.261-0.427-0.197c-0.173,0.064-0.261,0.255-0.198,0.428c0.062,0.173,0.255,0.261,0.427,0.197
		C110.294,53.585,110.383,53.394,110.319,53.221z"/>
	
		<path id="path9988_1_" inkscape:connector-curvature="0" fill="none" stroke="#808081" stroke-width="0.111" stroke-linecap="round" stroke-linejoin="round" stroke-miterlimit="10" d="
		M112.98,52.477c-0.064-0.173-0.255-0.261-0.427-0.197c-0.173,0.062-0.261,0.255-0.198,0.428c0.063,0.173,0.255,0.261,0.427,0.197
		C112.955,52.841,113.044,52.65,112.98,52.477z"/>
	
		<path id="path9992_1_" inkscape:connector-curvature="0" fill="none" stroke="#808081" stroke-width="0.111" stroke-linecap="round" stroke-linejoin="round" stroke-miterlimit="10" d="
		M114.307,56.142c-0.064-0.173-0.255-0.261-0.427-0.197c-0.173,0.062-0.261,0.255-0.198,0.428c0.062,0.173,0.255,0.261,0.427,0.197
		C114.282,56.506,114.371,56.315,114.307,56.142z"/>
	
		<path id="path9996_1_" inkscape:connector-curvature="0" fill="none" stroke="#808081" stroke-width="0.111" stroke-linecap="round" stroke-linejoin="round" stroke-miterlimit="10" d="
		M116.972,55.398c-0.064-0.173-0.255-0.261-0.427-0.197c-0.173,0.062-0.261,0.255-0.198,0.428c0.063,0.173,0.255,0.261,0.427,0.197
		C116.947,55.761,117.036,55.57,116.972,55.398z"/>
	
		<path id="path10000_1_" inkscape:connector-curvature="0" fill="none" stroke="#808081" stroke-width="0.111" stroke-linecap="round" stroke-linejoin="round" stroke-miterlimit="10" d="
		M118.295,59.064c-0.064-0.173-0.255-0.261-0.427-0.197c-0.173,0.064-0.261,0.255-0.198,0.428c0.063,0.173,0.255,0.261,0.427,0.197
		C118.27,59.428,118.358,59.236,118.295,59.064z"/>
	
		<path id="path10004_1_" inkscape:connector-curvature="0" fill="none" stroke="#808081" stroke-width="0.111" stroke-linecap="round" stroke-linejoin="round" stroke-miterlimit="10" d="
		M120.964,58.318c-0.064-0.173-0.255-0.261-0.427-0.197c-0.173,0.064-0.261,0.255-0.198,0.428c0.063,0.173,0.255,0.261,0.427,0.197
		C120.939,58.682,121.028,58.49,120.964,58.318z"/>
	
		<path id="path10008_1_" inkscape:connector-curvature="0" fill="none" stroke="#808081" stroke-width="0.111" stroke-linecap="round" stroke-linejoin="round" stroke-miterlimit="10" d="
		M109.665,34.894c-0.112-0.317-0.461-0.485-0.78-0.373c-0.317,0.112-0.484,0.461-0.371,0.78c0.112,0.317,0.461,0.485,0.779,0.373
		C109.611,35.562,109.777,35.212,109.665,34.894L109.665,34.894z"/>
	
		<path id="path10012_1_" inkscape:connector-curvature="0" fill="none" stroke="#808081" stroke-width="0.111" stroke-linecap="round" stroke-linejoin="round" stroke-miterlimit="10" d="
		M112.517,34.134c-0.112-0.317-0.461-0.485-0.78-0.373c-0.317,0.112-0.484,0.461-0.371,0.78c0.112,0.317,0.461,0.485,0.779,0.373
		C112.464,34.802,112.63,34.452,112.517,34.134L112.517,34.134z"/>
	
		<path id="path10016_1_" inkscape:connector-curvature="0" fill="none" stroke="#808081" stroke-width="0.111" stroke-linecap="round" stroke-linejoin="round" stroke-miterlimit="10" d="
		M112.829,37.269c-0.112-0.317-0.461-0.485-0.78-0.373c-0.317,0.112-0.484,0.461-0.371,0.78c0.112,0.317,0.461,0.485,0.779,0.373
		C112.776,37.937,112.942,37.588,112.829,37.269L112.829,37.269z"/>
	
		<path id="path10020_1_" inkscape:connector-curvature="0" fill="none" stroke="#808081" stroke-width="0.111" stroke-linecap="round" stroke-linejoin="round" stroke-miterlimit="10" d="
		M115.678,36.511c-0.112-0.317-0.461-0.485-0.78-0.373c-0.317,0.112-0.484,0.461-0.371,0.78c0.112,0.317,0.461,0.485,0.779,0.373
		C115.624,37.178,115.79,36.828,115.678,36.511L115.678,36.511z"/>
	
		<path id="path10024_1_" inkscape:connector-curvature="0" fill="none" stroke="#808081" stroke-width="0.111" stroke-linecap="round" stroke-linejoin="round" stroke-miterlimit="10" d="
		M116.22,39.814c-0.112-0.317-0.461-0.485-0.78-0.373c-0.317,0.112-0.484,0.461-0.371,0.78c0.112,0.317,0.461,0.485,0.779,0.373
		C116.167,40.481,116.333,40.131,116.22,39.814L116.22,39.814z"/>
	
		<path id="path10028_1_" inkscape:connector-curvature="0" fill="none" stroke="#808081" stroke-width="0.111" stroke-linecap="round" stroke-linejoin="round" stroke-miterlimit="10" d="
		M119.611,42.359c-0.112-0.317-0.461-0.485-0.78-0.373c-0.317,0.112-0.484,0.461-0.371,0.78c0.112,0.317,0.461,0.485,0.779,0.373
		C119.557,43.026,119.724,42.676,119.611,42.359L119.611,42.359z"/>
	
		<path id="path10032_1_" inkscape:connector-curvature="0" fill="none" stroke="#808081" stroke-width="0.111" stroke-linecap="round" stroke-linejoin="round" stroke-miterlimit="10" d="
		M119.064,39.056c-0.112-0.317-0.461-0.485-0.78-0.373c-0.317,0.112-0.484,0.461-0.371,0.78c0.112,0.317,0.461,0.485,0.779,0.373
		C119.01,39.724,119.177,39.375,119.064,39.056L119.064,39.056z"/>
	
		<path id="path10036_1_" inkscape:connector-curvature="0" fill="none" stroke="#808081" stroke-width="0.111" stroke-linecap="round" stroke-linejoin="round" stroke-miterlimit="10" d="
		M122.45,41.602c-0.112-0.317-0.461-0.485-0.78-0.373c-0.317,0.112-0.484,0.461-0.371,0.78c0.112,0.317,0.461,0.485,0.779,0.373
		C122.397,42.27,122.563,41.92,122.45,41.602L122.45,41.602z"/>
	
		<path id="path10040_1_" inkscape:connector-curvature="0" fill="none" stroke="#808081" stroke-width="0.111" stroke-linecap="round" stroke-linejoin="round" stroke-miterlimit="10" d="
		M123.567,45.327c-0.112-0.317-0.461-0.485-0.78-0.373c-0.317,0.112-0.484,0.461-0.371,0.78c0.112,0.317,0.461,0.485,0.779,0.373
		C123.513,45.995,123.679,45.645,123.567,45.327L123.567,45.327z"/>
	
		<path id="path10044_1_" inkscape:connector-curvature="0" fill="none" stroke="#808081" stroke-width="0.111" stroke-linecap="round" stroke-linejoin="round" stroke-miterlimit="10" d="
		M126.401,44.572c-0.112-0.317-0.461-0.485-0.78-0.373c-0.317,0.112-0.484,0.461-0.371,0.78c0.112,0.317,0.461,0.485,0.779,0.373
		C126.347,45.24,126.513,44.89,126.401,44.572L126.401,44.572z"/>
	
		<path id="path10048_1_" inkscape:connector-curvature="0" fill="none" stroke="#808081" stroke-width="0.111" stroke-linecap="round" stroke-linejoin="round" stroke-miterlimit="10" d="
		M127.261,48.388c-0.061-0.174-0.251-0.264-0.425-0.202c-0.174,0.061-0.265,0.251-0.204,0.425c0.061,0.173,0.252,0.264,0.426,0.202
		C127.231,48.752,127.322,48.562,127.261,48.388L127.261,48.388z"/>
	
		<path id="path10052_1_" inkscape:connector-curvature="0" fill="none" stroke="#808081" stroke-width="0.111" stroke-linecap="round" stroke-linejoin="round" stroke-miterlimit="10" d="
		M130.09,47.635c-0.061-0.174-0.251-0.264-0.425-0.202c-0.174,0.061-0.265,0.251-0.204,0.425c0.061,0.173,0.253,0.264,0.425,0.202
		C130.06,47.999,130.151,47.809,130.09,47.635z"/>
	
		<path id="path10056_1_" inkscape:connector-curvature="0" fill="none" stroke="#808081" stroke-width="0.111" stroke-linecap="round" stroke-linejoin="round" stroke-miterlimit="10" d="
		M131.217,51.357c-0.061-0.174-0.251-0.264-0.425-0.202s-0.265,0.251-0.204,0.425c0.062,0.174,0.252,0.264,0.426,0.202
		C131.187,51.721,131.278,51.531,131.217,51.357L131.217,51.357z"/>
	
		<path id="path10060_1_" inkscape:connector-curvature="0" fill="none" stroke="#808081" stroke-width="0.111" stroke-linecap="round" stroke-linejoin="round" stroke-miterlimit="10" d="
		M135.173,54.326c-0.061-0.174-0.251-0.265-0.425-0.204c-0.174,0.062-0.265,0.252-0.204,0.426c0.061,0.173,0.252,0.264,0.426,0.202
		C135.143,54.69,135.234,54.5,135.173,54.326L135.173,54.326z"/>
	
		<path id="path10064_1_" inkscape:connector-curvature="0" fill="none" stroke="#808081" stroke-width="0.111" stroke-linecap="round" stroke-linejoin="round" stroke-miterlimit="10" d="
		M134.04,50.605c-0.061-0.174-0.251-0.264-0.425-0.202c-0.174,0.061-0.265,0.251-0.204,0.425c0.061,0.173,0.253,0.264,0.425,0.202
		C134.01,50.969,134.102,50.779,134.04,50.605z"/>
	
		<path id="path10068_1_" inkscape:connector-curvature="0" fill="none" stroke="#808081" stroke-width="0.111" stroke-linecap="round" stroke-linejoin="round" stroke-miterlimit="10" d="
		M137.991,53.576c-0.061-0.174-0.252-0.265-0.425-0.202c-0.174,0.061-0.265,0.251-0.204,0.425c0.061,0.173,0.253,0.264,0.425,0.202
		C137.961,53.939,138.052,53.749,137.991,53.576z"/>
	
		<path id="path10072_1_" inkscape:connector-curvature="0" fill="none" stroke="#808081" stroke-width="0.111" stroke-linecap="round" stroke-linejoin="round" stroke-miterlimit="10" d="
		M124.811,28.453c-0.111-0.319-0.459-0.488-0.777-0.376c-0.319,0.111-0.487,0.459-0.376,0.778c0.111,0.319,0.459,0.488,0.777,0.376
		C124.753,29.119,124.922,28.772,124.811,28.453z"/>
	
		<path id="path10076_1_" inkscape:connector-curvature="0" fill="none" stroke="#808081" stroke-width="0.111" stroke-linecap="round" stroke-linejoin="round" stroke-miterlimit="10" d="
		M128.184,31.016c-0.111-0.319-0.459-0.488-0.777-0.376c-0.319,0.111-0.488,0.459-0.376,0.778c0.111,0.319,0.459,0.488,0.777,0.376
		C128.126,31.683,128.295,31.335,128.184,31.016z"/>
	
		<path id="path10080_1_" inkscape:connector-curvature="0" fill="none" stroke="#808081" stroke-width="0.111" stroke-linecap="round" stroke-linejoin="round" stroke-miterlimit="10" d="
		M131.557,33.579c-0.111-0.319-0.459-0.488-0.777-0.376c-0.319,0.111-0.488,0.459-0.376,0.778c0.111,0.319,0.459,0.488,0.777,0.376
		C131.5,34.246,131.669,33.898,131.557,33.579z"/>
	
		<path id="path10084_1_" inkscape:connector-curvature="0" fill="none" stroke="#808081" stroke-width="0.111" stroke-linecap="round" stroke-linejoin="round" stroke-miterlimit="10" d="
		M135.492,36.57c-0.111-0.319-0.459-0.488-0.777-0.376c-0.319,0.111-0.488,0.459-0.376,0.778s0.459,0.488,0.777,0.376
		C135.435,37.236,135.604,36.889,135.492,36.57z"/>
	
		<path id="path10088_1_" inkscape:connector-curvature="0" fill="none" stroke="#808081" stroke-width="0.111" stroke-linecap="round" stroke-linejoin="round" stroke-miterlimit="10" d="
		M137.963,35.948c-0.06-0.174-0.25-0.266-0.424-0.205c-0.174,0.06-0.266,0.25-0.206,0.424c0.061,0.174,0.251,0.266,0.425,0.205
		C137.932,36.312,138.023,36.122,137.963,35.948z"/>
	
		<path id="path10092_1_" inkscape:connector-curvature="0" fill="none" stroke="#808081" stroke-width="0.111" stroke-linecap="round" stroke-linejoin="round" stroke-miterlimit="10" d="
		M141.898,38.938c-0.06-0.174-0.25-0.265-0.424-0.205c-0.174,0.06-0.266,0.25-0.205,0.424c0.06,0.174,0.25,0.266,0.424,0.205
		C141.867,39.302,141.958,39.112,141.898,38.938z"/>
	
		<path id="path10096_1_" inkscape:connector-curvature="0" fill="none" stroke="#808081" stroke-width="0.111" stroke-linecap="round" stroke-linejoin="round" stroke-miterlimit="10" d="
		M139.165,39.651c-0.06-0.174-0.25-0.265-0.424-0.205c-0.174,0.06-0.266,0.25-0.205,0.424c0.06,0.174,0.25,0.266,0.424,0.205
		C139.134,40.015,139.225,39.825,139.165,39.651z"/>
	
		<path id="path10100_1_" inkscape:connector-curvature="0" fill="none" stroke="#808081" stroke-width="0.111" stroke-linecap="round" stroke-linejoin="round" stroke-miterlimit="10" d="
		M145.834,41.929c-0.06-0.174-0.25-0.265-0.424-0.205c-0.174,0.06-0.266,0.25-0.205,0.424c0.06,0.174,0.25,0.266,0.424,0.205
		C145.803,42.293,145.894,42.103,145.834,41.929z"/>
	
		<path id="path10104_1_" inkscape:connector-curvature="0" fill="none" stroke="#808081" stroke-width="0.111" stroke-linecap="round" stroke-linejoin="round" stroke-miterlimit="10" d="
		M143.101,42.642c-0.06-0.174-0.25-0.265-0.424-0.205c-0.174,0.06-0.266,0.25-0.206,0.424c0.061,0.174,0.251,0.266,0.425,0.205
		C143.07,43.005,143.161,42.815,143.101,42.642z"/>
	<path id="path10108_1_" inkscape:connector-curvature="0" fill="#E63030" d="M86.33,38.36c-0.462-0.12-0.834,0.036-1.443,0.335
		c-1.467,0.723-3.323,1.644-4.395,2.181c-0.698,0.349-0.52,0.514-0.222,0.736c0.238,0.177,0.73,0.385,0.777,0.418l6.399-3.256
		C87.151,38.661,86.749,38.469,86.33,38.36"/>
	
		<path id="path10112_1_" inkscape:connector-curvature="0" fill="none" stroke="#1A1714" stroke-width="0.202" stroke-linecap="round" stroke-linejoin="round" d="
		M86.33,38.36c-0.462-0.12-0.834,0.036-1.443,0.335c-1.467,0.723-3.323,1.644-4.395,2.181c-0.698,0.349-0.52,0.514-0.222,0.736
		c0.238,0.177,0.73,0.385,0.777,0.418l6.399-3.256C87.151,38.661,86.749,38.469,86.33,38.36L86.33,38.36z"/>
	<pattern  id="path10138_2_" xlink:href="#pattern38497" patternTransform="matrix(0.2198 0 0 0.2198 -14187.7158 1238.5203)">
	</pattern>
	<path id="path10138_1_" inkscape:connector-curvature="0" fill="url(#path10138_2_)" d="M87.41,38.774l-6.399,3.256
		c0.56,0.382,0.829,0.62,1.567,1.059c0.821,0.488,1.168,0.281,1.168,0.281c0.462-0.216,3.787-2.012,4.379-2.319
		c1.715-0.89,1.541-1.15,0.225-1.795C88.073,39.12,87.96,39.027,87.41,38.774"/>
	
		<path id="path10142_1_" inkscape:connector-curvature="0" fill="none" stroke="#000000" stroke-width="0.009" stroke-linecap="round" stroke-linejoin="round" stroke-miterlimit="10" d="
		M87.41,38.774l-6.399,3.256c0.56,0.382,0.829,0.62,1.567,1.059c0.821,0.488,1.168,0.281,1.168,0.281
		c0.462-0.216,3.787-2.012,4.379-2.319c1.715-0.89,1.541-1.15,0.225-1.795C88.073,39.12,87.96,39.027,87.41,38.774z"/>
	<path id="path10146_1_" inkscape:connector-curvature="0" d="M85.494,40.68l1.079-0.551l0.408,0.014l0.355,0.236l0.099,0.299
		l-0.123,0.291l-3.091,1.628l-0.408-0.014l-0.355-0.236l-0.099-0.299l0.123-0.291L85.494,40.68z"/>
	
		<path id="path10150_1_" inkscape:connector-curvature="0" fill="none" stroke="#000000" stroke-width="0.21" stroke-linecap="round" stroke-linejoin="round" stroke-miterlimit="10" d="
		M85.494,40.68l1.079-0.551l0.408,0.014l0.355,0.236l0.099,0.299l-0.123,0.291l-3.091,1.628l-0.408-0.014l-0.355-0.236l-0.099-0.299
		l0.123-0.291L85.494,40.68"/>
	
		<path id="path10154_1_" inkscape:connector-curvature="0" fill="none" stroke="#000000" stroke-width="0.21" stroke-linecap="round" stroke-linejoin="round" stroke-miterlimit="10" d="
		M85.322,40.349l1.131-0.575l0.34-0.047l0.478,0.143l0.35,0.264l0.146,0.257l0.044,0.299l-0.068,0.298l-0.166,0.245l-0.212,0.159
		l-3.025,1.56l-0.339,0.049l-0.478-0.144l-0.35-0.264l-0.146-0.256l-0.044-0.3l0.066-0.296l0.168-0.246l0.213-0.159L85.322,40.349"
		/>
	<path id="path10158_1_" inkscape:connector-curvature="0" fill="#E63030" d="M114.12,23.992c-0.434-0.117-0.76,0.036-1.291,0.329
		c-1.283,0.709-2.903,1.611-3.839,2.137c-0.609,0.342-0.431,0.504-0.141,0.72c0.233,0.175,0.486,0.336,0.532,0.368l5.611-3.203
		C114.712,24.233,114.512,24.098,114.12,23.992"/>
	
		<path id="path10162_1_" inkscape:connector-curvature="0" fill="none" stroke="#1A1714" stroke-width="0.202" stroke-linecap="round" stroke-linejoin="round" d="
		M114.12,23.992c-0.434-0.117-0.76,0.036-1.291,0.329c-1.283,0.709-2.903,1.611-3.839,2.137c-0.609,0.342-0.431,0.504-0.141,0.72
		c0.233,0.175,0.486,0.336,0.532,0.368l5.611-3.203C114.712,24.233,114.512,24.098,114.12,23.992L114.12,23.992z"/>
	<pattern  id="path10188_2_" xlink:href="#pattern38488" patternTransform="matrix(0.2198 0 0 0.2198 -14160.1074 1252.9368)">
	</pattern>
	<path id="path10188_1_" inkscape:connector-curvature="0" fill="url(#path10188_2_)" d="M115.019,24.357l-5.637,3.175
		c0.544,0.374,0.991,0.661,1.705,1.089c0.793,0.476,1.091,0.275,1.091,0.275c0.405-0.213,3.296-1.973,3.811-2.272
		c1.495-0.872,1.315-1.126,0.055-1.756C115.779,24.735,115.544,24.605,115.019,24.357"/>
	
		<path id="path10192_1_" inkscape:connector-curvature="0" fill="none" stroke="#000000" stroke-width="0.009" stroke-linecap="round" stroke-linejoin="round" stroke-miterlimit="10" d="
		M115.019,24.357l-5.637,3.175c0.544,0.374,0.991,0.661,1.705,1.089c0.793,0.476,1.091,0.275,1.091,0.275
		c0.405-0.213,3.296-1.973,3.811-2.272c1.495-0.872,1.315-1.126,0.055-1.756C115.779,24.735,115.544,24.605,115.019,24.357
		L115.019,24.357z"/>
	<path id="path10196_1_" inkscape:connector-curvature="0" d="M113.551,26.262l0.94-0.54l0.375,0.013l0.344,0.231l0.116,0.291
		l-0.088,0.286l-2.691,1.595l-0.375-0.014l-0.344-0.23l-0.116-0.293l0.088-0.285L113.551,26.262L113.551,26.262z"/>
	
		<path id="path10200_1_" inkscape:connector-curvature="0" fill="none" stroke="#000000" stroke-width="0.199" stroke-linecap="round" stroke-linejoin="round" stroke-miterlimit="10" d="
		M113.551,26.262l0.94-0.54l0.375,0.013l0.344,0.231l0.116,0.291l-0.088,0.286l-2.691,1.595l-0.375-0.014l-0.344-0.23l-0.116-0.293
		l0.088-0.285L113.551,26.262"/>
	
		<path id="path10204_1_" inkscape:connector-curvature="0" fill="none" stroke="#000000" stroke-width="0.199" stroke-linecap="round" stroke-linejoin="round" stroke-miterlimit="10" d="
		M113.365,25.939l0.987-0.563l0.306-0.049l0.449,0.14l0.343,0.257l0.156,0.251l0.064,0.294l-0.035,0.29l-0.132,0.241l-0.181,0.155
		l-2.636,1.529l-0.306,0.047l-0.449-0.14l-0.342-0.257l-0.155-0.251l-0.065-0.294l0.036-0.289l0.131-0.241l0.181-0.155
		L113.365,25.939"/>
	<path id="path10208_1_" inkscape:connector-curvature="0" fill="#4A525C" d="M84.404,42.259c-1.37-2.308-3.754-3.478-5.692-4.663
		l3.056-1.31c2.572,1.572,3.715,1.899,5.222,4.436L84.404,42.259z"/>
	
		<path id="path10212_1_" inkscape:connector-curvature="0" fill="none" stroke="#171511" stroke-width="0.202" stroke-miterlimit="10" d="
		M84.404,42.259c-1.37-2.308-3.754-3.478-5.692-4.663l3.056-1.31c2.572,1.572,3.715,1.899,5.222,4.436L84.404,42.259z"/>
	<path id="path10216_1_" inkscape:connector-curvature="0" fill="#4A525C" d="M112.244,27.651c-1.37-2.308-4.57-3.704-6.509-4.889
		l2.8-1.636c2.573,1.572,4.788,2.451,6.295,4.989L112.244,27.651z"/>
	
		<path id="path10220_1_" inkscape:connector-curvature="0" fill="none" stroke="#171511" stroke-width="0.202" stroke-miterlimit="10" d="
		M112.244,27.651c-1.37-2.308-4.57-3.704-6.509-4.889l2.8-1.636c2.573,1.572,4.788,2.451,6.295,4.989L112.244,27.651z"/>
	<path id="path10224_1_" inkscape:connector-curvature="0" fill="#E63030" d="M100.303,30.901c-0.441-0.13-0.79,0.015-1.361,0.298
		c-1.375,0.679-3.115,1.546-4.12,2.051c-0.654,0.329-0.481,0.496-0.194,0.723c0.231,0.182,0.478,0.279,0.524,0.311l5.987-2.986
		C100.857,31.178,100.703,31.018,100.303,30.901"/>
	
		<path id="path10228_1_" inkscape:connector-curvature="0" fill="none" stroke="#1A1714" stroke-width="0.202" stroke-linecap="round" stroke-linejoin="round" d="
		M100.303,30.901c-0.441-0.13-0.79,0.015-1.361,0.298c-1.375,0.679-3.115,1.546-4.12,2.051c-0.654,0.329-0.481,0.496-0.194,0.723
		c0.231,0.182,0.478,0.279,0.524,0.311l5.987-2.986C100.857,31.178,100.703,31.018,100.303,30.901L100.303,30.901z"/>
	<pattern  id="path10254_2_" xlink:href="#pattern38475" patternTransform="matrix(0.2198 0 0 0.2198 -14174.04 1246.0642)">
	</pattern>
	<path id="path10254_1_" inkscape:connector-curvature="0" fill="url(#path10254_2_)" d="M101.085,31.23l-5.995,3.068
		c0.539,0.391,1.054,0.739,1.765,1.19c0.791,0.501,1.115,0.306,1.115,0.306c0.434-0.204,3.546-1.9,4.101-2.189
		c1.606-0.839,1.436-1.1,0.17-1.77C101.894,31.651,101.53,31.452,101.085,31.23"/>
	
		<path id="path10258_1_" inkscape:connector-curvature="0" fill="none" stroke="#000000" stroke-width="0.009" stroke-linecap="round" stroke-linejoin="round" stroke-miterlimit="10" d="
		M101.085,31.23l-5.995,3.068c0.539,0.391,1.054,0.739,1.765,1.19c0.791,0.501,1.115,0.306,1.115,0.306
		c0.434-0.204,3.546-1.9,4.101-2.189c1.606-0.839,1.436-1.1,0.17-1.77C101.894,31.651,101.53,31.452,101.085,31.23z"/>
	<path id="path10262_1_" inkscape:connector-curvature="0" d="M99.565,33.175l1.01-0.52l0.387,0.024l0.342,0.241l0.101,0.299
		l-0.11,0.285l-2.895,1.536l-0.387-0.024l-0.341-0.241l-0.103-0.299l0.11-0.285L99.565,33.175L99.565,33.175z"/>
	
		<path id="path10266_1_" inkscape:connector-curvature="0" fill="none" stroke="#000000" stroke-width="0.203" stroke-linecap="round" stroke-linejoin="round" stroke-miterlimit="10" d="
		M99.565,33.175l1.01-0.52l0.387,0.024l0.342,0.241l0.101,0.299l-0.11,0.285l-2.895,1.536l-0.387-0.024l-0.341-0.241l-0.103-0.299
		l0.11-0.285L99.565,33.175"/>
	
		<path id="path10270_1_" inkscape:connector-curvature="0" fill="none" stroke="#000000" stroke-width="0.203" stroke-linecap="round" stroke-linejoin="round" stroke-miterlimit="10" d="
		M99.394,32.844l1.06-0.541l0.321-0.04l0.456,0.154l0.339,0.269l0.146,0.257l0.047,0.298l-0.056,0.291l-0.152,0.24l-0.199,0.151
		l-2.833,1.47l-0.321,0.04l-0.456-0.153l-0.339-0.27l-0.145-0.257l-0.049-0.298l0.056-0.291l0.152-0.239l0.199-0.151L99.394,32.844"
		/>
	<path id="path10274_1_" inkscape:connector-curvature="0" fill="#4A525C" d="M98.324,34.697c-1.37-2.308-2.741-3.737-4.68-4.922
		l2.734-1.567c2.573,1.571,3.025,2.416,4.533,4.954L98.324,34.697L98.324,34.697z"/>
	
		<path id="path10278_1_" inkscape:connector-curvature="0" fill="none" stroke="#171511" stroke-width="0.202" stroke-miterlimit="10" d="
		M98.324,34.697c-1.37-2.308-2.741-3.737-4.68-4.922l2.734-1.567c2.573,1.571,3.025,2.416,4.533,4.954L98.324,34.697L98.324,34.697z
		"/>
	<path id="path10282_1_" inkscape:connector-curvature="0" fill="#E63030" d="M117.456,8.323l0.37,0.25"/>
	<path id="path10286_1_" inkscape:connector-curvature="0" fill="#E63030" d="M120.272,12.266l0.368,0.247l-0.055,0.218l0.136,0.174
		l0.136,0.061l0.145-0.028l0.059-0.186l-0.475-0.6l0.021-0.298l0.184-0.234l0.287-0.073l0.417,0.159l0.311,0.321l0.08,0.363
		l-0.074,0.206l-0.368-0.247l0.055-0.216l-0.136-0.175l-0.136-0.061l-0.144,0.029l-0.06,0.186l0.475,0.599l-0.021,0.298
		l-0.184,0.235l-0.287,0.073l-0.418-0.16l-0.311-0.32l-0.08-0.364L120.272,12.266L120.272,12.266z"/>
	<path id="path10290_1_" inkscape:connector-curvature="0" fill="#E63030" d="M116.194,10.195l0.915-1.357l0.37,0.25l-0.915,1.357
		L116.194,10.195z"/>
	<path id="path10294_1_" inkscape:connector-curvature="0" fill="#E63030" d="M119.626,9.787l0.277-3.966l1.707,0.12l-0.346,4.951
		L119.626,9.787z"/>
	<path id="path10298_1_" inkscape:connector-curvature="0" fill="#E63030" d="M117.455,8.324l0.156-2.24l1.693,0.119l-0.224,3.216
		l-1.255-0.845l-0.25,0.37l-0.37-0.25L117.455,8.324z"/>
	<path id="path10302_1_" inkscape:connector-curvature="0" fill="#E63030" d="M117.013,6.465l-1.707-0.12l-0.035,0.505l1.639,1.105
		L117.013,6.465z"/>
	<path id="path10306_1_" inkscape:connector-curvature="0" fill="#E63030" d="M119.949,11.681l-0.275,0.2l-0.339-0.024l-0.244-0.236
		l-0.035-0.337l0.189-0.281l0.327-0.094l0.31,0.137l0.149,0.305L119.949,11.681L119.949,11.681z M120.4,10.968l-0.065,0.094
		l-0.07-0.134l-0.335-0.3l-0.44-0.093l-0.427,0.14l-0.3,0.335l-0.093,0.44l0.14,0.428l0.335,0.3l0.375,0.093l-0.077,0.116
		l0.37,0.249l0.958-1.419L120.4,10.968z"/>
	<path id="path10310_1_" inkscape:connector-curvature="0" fill="#E63030" d="M118.324,10.585l-0.274,0.2l-0.339-0.024l-0.245-0.236
		l-0.035-0.337l0.19-0.281l0.326-0.094l0.31,0.139l0.149,0.304L118.324,10.585L118.324,10.585z M119.08,9.42l-0.369,0.546
		l-0.071-0.134l-0.335-0.299l-0.44-0.094l-0.427,0.14l-0.3,0.335l-0.093,0.44l0.14,0.428l0.335,0.3l0.376,0.093l-0.079,0.116
		l0.371,0.249l1.261-1.871L119.08,9.42L119.08,9.42z"/>
	<path id="path10314_1_" inkscape:connector-curvature="0" fill="#E63030" d="M116.185,9.142l-0.275,0.2l-0.338-0.024l-0.245-0.236
		l-0.035-0.337l0.19-0.281l0.326-0.094l0.31,0.139l0.149,0.304L116.185,9.142z M116.941,7.977l-0.369,0.546l-0.071-0.134l-0.335-0.3
		l-0.44-0.093l-0.427,0.14l-0.3,0.335l-0.093,0.44l0.14,0.428l0.335,0.3l0.376,0.093l-0.079,0.116l0.371,0.249l1.261-1.871
		L116.941,7.977L116.941,7.977z"/>
	<path id="path10318_1_" inkscape:connector-curvature="0" fill="#E63030" d="M114.56,8.047l-0.275,0.2l-0.339-0.024l-0.244-0.236
		l-0.035-0.337l0.19-0.281l0.326-0.094l0.31,0.137l0.149,0.305L114.56,8.047L114.56,8.047z M115.012,7.334l-0.064,0.094
		l-0.071-0.134l-0.335-0.3l-0.44-0.093l-0.427,0.14l-0.3,0.335l-0.093,0.44l0.14,0.428l0.335,0.3l0.376,0.093l-0.079,0.116
		l0.37,0.249l0.958-1.419L115.012,7.334L115.012,7.334z"/>
</g>
</svg>
